<?xml version="1.0" encoding="utf-8" standalone="no"?>
<!DOCTYPE svg PUBLIC "-//W3C//DTD SVG 1.1//EN"
  "http://www.w3.org/Graphics/SVG/1.1/DTD/svg11.dtd">
<!-- Created with matplotlib (https://matplotlib.org/) -->
<svg height="440.394375pt" version="1.1" viewBox="0 0 608.98125 440.394375" width="608.98125pt" xmlns="http://www.w3.org/2000/svg" xmlns:xlink="http://www.w3.org/1999/xlink">
 <metadata>
  <rdf:RDF xmlns:cc="http://creativecommons.org/ns#" xmlns:dc="http://purl.org/dc/elements/1.1/" xmlns:rdf="http://www.w3.org/1999/02/22-rdf-syntax-ns#">
   <cc:Work>
    <dc:type rdf:resource="http://purl.org/dc/dcmitype/StillImage"/>
    <dc:date>2021-01-07T16:30:00.142259</dc:date>
    <dc:format>image/svg+xml</dc:format>
    <dc:creator>
     <cc:Agent>
      <dc:title>Matplotlib v3.3.3, https://matplotlib.org/</dc:title>
     </cc:Agent>
    </dc:creator>
   </cc:Work>
  </rdf:RDF>
 </metadata>
 <defs>
  <style type="text/css">*{stroke-linecap:butt;stroke-linejoin:round;}</style>
 </defs>
 <g id="figure_1">
  <g id="patch_1">
   <path d="M 0 440.394375 
L 608.98125 440.394375 
L 608.98125 0 
L 0 0 
z
" style="fill:none;"/>
  </g>
  <g id="axes_1">
   <g id="patch_2">
    <path d="M 43.78125 402.838125 
L 601.78125 402.838125 
L 601.78125 22.318125 
L 43.78125 22.318125 
z
" style="fill:#ffffff;"/>
   </g>
   <g id="PolyCollection_1">
    <defs>
     <path d="M 69.144886 -54.852614 
L 69.144886 -54.852614 
L 74.268853 -87.723269 
L 79.39282 -123.059395 
L 84.516787 -122.013536 
L 89.640754 -142.344391 
L 94.764721 -165.53785 
L 99.888688 -180.951433 
L 105.012655 -180.951433 
L 110.136622 -180.951433 
L 115.260589 -190.094118 
L 120.384556 -209.124663 
L 125.508523 -225.457888 
L 130.63249 -233.257293 
L 135.756457 -242.2905 
L 140.880424 -250.136887 
L 146.00439 -250.136887 
L 151.128357 -260.686906 
L 156.252324 -260.686906 
L 161.376291 -270.68872 
L 166.500258 -278.069837 
L 171.624225 -286.628732 
L 176.748192 -291.57055 
L 181.872159 -288.930482 
L 186.996126 -295.279633 
L 192.120093 -303.019208 
L 197.24406 -317.604382 
L 202.368027 -317.604382 
L 207.491994 -327.488019 
L 212.615961 -327.488019 
L 217.739928 -331.594432 
L 222.863895 -332.670117 
L 227.987862 -342.313473 
L 233.111829 -342.313473 
L 238.235795 -349.003343 
L 243.359762 -349.003343 
L 248.483729 -362.522023 
L 253.607696 -362.522023 
L 258.731663 -362.522023 
L 263.85563 -366.187159 
L 268.979597 -366.187159 
L 274.103564 -366.187159 
L 279.227531 -366.187159 
L 284.351498 -366.187159 
L 289.475465 -366.187159 
L 294.599432 -366.187159 
L 299.723399 -366.187159 
L 304.847366 -366.187159 
L 309.971333 -366.187159 
L 315.0953 -366.187159 
L 320.219267 -366.187159 
L 325.343233 -371.128977 
L 330.4672 -371.128977 
L 335.591167 -371.128977 
L 340.715134 -371.128977 
L 345.839101 -371.128977 
L 350.963068 -371.128977 
L 356.087035 -371.128977 
L 361.211002 -371.128977 
L 366.334969 -371.128977 
L 371.458936 -371.128977 
L 376.582903 -371.128977 
L 381.70687 -371.128977 
L 386.830837 -371.128977 
L 391.954804 -371.128977 
L 397.078771 -371.128977 
L 402.202738 -371.128977 
L 407.326705 -371.128977 
L 412.450671 -385.954432 
L 417.574638 -385.954432 
L 422.698605 -385.954432 
L 427.822572 -385.954432 
L 432.946539 -385.954432 
L 438.070506 -385.954432 
L 443.194473 -385.954432 
L 448.31844 -385.954432 
L 453.442407 -385.954432 
L 458.566374 -385.954432 
L 463.690341 -385.954432 
L 468.814308 -400.779886 
L 473.938275 -400.779886 
L 479.062242 -400.779886 
L 484.186209 -400.779886 
L 489.310176 -400.779886 
L 494.434143 -400.779886 
L 499.55811 -400.779886 
L 504.682076 -400.779886 
L 509.806043 -400.779886 
L 514.93001 -400.779886 
L 520.053977 -400.779886 
L 525.177944 -400.779886 
L 530.301911 -400.779886 
L 535.425878 -400.779886 
L 540.549845 -400.779886 
L 545.673812 -400.779886 
L 550.797779 -400.779886 
L 555.921746 -400.779886 
L 561.045713 -400.779886 
L 566.16968 -400.779886 
L 571.293647 -400.779886 
L 576.417614 -400.779886 
L 576.417614 -400.779886 
L 576.417614 -400.779886 
L 571.293647 -400.779886 
L 566.16968 -400.779886 
L 561.045713 -400.779886 
L 555.921746 -400.779886 
L 550.797779 -400.779886 
L 545.673812 -400.779886 
L 540.549845 -400.779886 
L 535.425878 -400.779886 
L 530.301911 -400.779886 
L 525.177944 -400.779886 
L 520.053977 -400.779886 
L 514.93001 -400.779886 
L 509.806043 -400.779886 
L 504.682076 -400.779886 
L 499.55811 -400.779886 
L 494.434143 -400.779886 
L 489.310176 -400.779886 
L 484.186209 -400.779886 
L 479.062242 -400.779886 
L 473.938275 -400.779886 
L 468.814308 -400.779886 
L 463.690341 -400.779886 
L 458.566374 -400.779886 
L 453.442407 -400.779886 
L 448.31844 -400.779886 
L 443.194473 -400.779886 
L 438.070506 -400.779886 
L 432.946539 -400.779886 
L 427.822572 -400.779886 
L 422.698605 -400.779886 
L 417.574638 -400.779886 
L 412.450671 -400.779886 
L 407.326705 -400.779886 
L 402.202738 -400.779886 
L 397.078771 -400.779886 
L 391.954804 -400.779886 
L 386.830837 -400.779886 
L 381.70687 -400.779886 
L 376.582903 -400.779886 
L 371.458936 -400.779886 
L 366.334969 -400.779886 
L 361.211002 -400.779886 
L 356.087035 -400.779886 
L 350.963068 -400.779886 
L 345.839101 -400.779886 
L 340.715134 -400.779886 
L 335.591167 -400.779886 
L 330.4672 -400.779886 
L 325.343233 -400.779886 
L 320.219267 -400.779886 
L 315.0953 -400.779886 
L 309.971333 -400.779886 
L 304.847366 -400.779886 
L 299.723399 -400.779886 
L 294.599432 -400.779886 
L 289.475465 -400.779886 
L 284.351498 -400.779886 
L 279.227531 -400.779886 
L 274.103564 -400.779886 
L 268.979597 -400.779886 
L 263.85563 -400.779886 
L 258.731663 -399.503204 
L 253.607696 -399.503204 
L 248.483729 -399.503204 
L 243.359762 -400.779886 
L 238.235795 -400.779886 
L 233.111829 -399.944481 
L 227.987862 -399.944481 
L 222.863895 -399.704201 
L 217.739928 -390.89625 
L 212.615961 -385.119027 
L 207.491994 -385.119027 
L 202.368027 -375.23539 
L 197.24406 -375.23539 
L 192.120093 -370.053292 
L 186.996126 -367.909231 
L 181.872159 -354.491109 
L 176.748192 -341.967405 
L 171.624225 -337.025586 
L 166.500258 -335.700845 
L 161.376291 -333.198325 
L 156.252324 -333.316503 
L 151.128357 -333.316503 
L 146.00439 -324.099249 
L 140.880424 -324.099249 
L 135.756457 -312.178363 
L 130.63249 -281.677025 
L 125.508523 -279.592794 
L 120.384556 -276.158746 
L 115.260589 -255.654745 
L 110.136622 -254.913795 
L 105.012655 -254.913795 
L 99.888688 -254.913795 
L 94.764721 -250.560105 
L 89.640754 -244.102655 
L 84.516787 -244.666237 
L 79.39282 -223.853105 
L 74.268853 -160.352867 
L 69.144886 -54.852614 
z
" id="mbba24120a0" style="stroke:#808080;stroke-opacity:0.2;"/>
    </defs>
    <g clip-path="url(#pc6a43a36dc)">
     <use style="fill:#808080;fill-opacity:0.2;stroke:#808080;stroke-opacity:0.2;" x="0" xlink:href="#mbba24120a0" y="440.394375"/>
    </g>
   </g>
   <g id="matplotlib.axis_1">
    <g id="xtick_1">
     <g id="line2d_1">
      <defs>
       <path d="M 0 0 
L 0 3.5 
" id="ma6acdbcd0b" style="stroke:#000000;stroke-width:0.8;"/>
      </defs>
      <g>
       <use style="stroke:#000000;stroke-width:0.8;" x="69.144886" xlink:href="#ma6acdbcd0b" y="402.838125"/>
      </g>
     </g>
     <g id="text_1">
      <!-- 0.0 -->
      <g transform="translate(61.193324 417.436562)scale(0.1 -0.1)">
       <defs>
        <path d="M 31.78125 66.40625 
Q 24.171875 66.40625 20.328125 58.90625 
Q 16.5 51.421875 16.5 36.375 
Q 16.5 21.390625 20.328125 13.890625 
Q 24.171875 6.390625 31.78125 6.390625 
Q 39.453125 6.390625 43.28125 13.890625 
Q 47.125 21.390625 47.125 36.375 
Q 47.125 51.421875 43.28125 58.90625 
Q 39.453125 66.40625 31.78125 66.40625 
z
M 31.78125 74.21875 
Q 44.046875 74.21875 50.515625 64.515625 
Q 56.984375 54.828125 56.984375 36.375 
Q 56.984375 17.96875 50.515625 8.265625 
Q 44.046875 -1.421875 31.78125 -1.421875 
Q 19.53125 -1.421875 13.0625 8.265625 
Q 6.59375 17.96875 6.59375 36.375 
Q 6.59375 54.828125 13.0625 64.515625 
Q 19.53125 74.21875 31.78125 74.21875 
z
" id="DejaVuSans-48"/>
        <path d="M 10.6875 12.40625 
L 21 12.40625 
L 21 0 
L 10.6875 0 
z
" id="DejaVuSans-46"/>
       </defs>
       <use xlink:href="#DejaVuSans-48"/>
       <use x="63.623047" xlink:href="#DejaVuSans-46"/>
       <use x="95.410156" xlink:href="#DejaVuSans-48"/>
      </g>
     </g>
    </g>
    <g id="xtick_2">
     <g id="line2d_2">
      <g>
       <use style="stroke:#000000;stroke-width:0.8;" x="170.599432" xlink:href="#ma6acdbcd0b" y="402.838125"/>
      </g>
     </g>
     <g id="text_2">
      <!-- 0.2 -->
      <g transform="translate(162.647869 417.436562)scale(0.1 -0.1)">
       <defs>
        <path d="M 19.1875 8.296875 
L 53.609375 8.296875 
L 53.609375 0 
L 7.328125 0 
L 7.328125 8.296875 
Q 12.9375 14.109375 22.625 23.890625 
Q 32.328125 33.6875 34.8125 36.53125 
Q 39.546875 41.84375 41.421875 45.53125 
Q 43.3125 49.21875 43.3125 52.78125 
Q 43.3125 58.59375 39.234375 62.25 
Q 35.15625 65.921875 28.609375 65.921875 
Q 23.96875 65.921875 18.8125 64.3125 
Q 13.671875 62.703125 7.8125 59.421875 
L 7.8125 69.390625 
Q 13.765625 71.78125 18.9375 73 
Q 24.125 74.21875 28.421875 74.21875 
Q 39.75 74.21875 46.484375 68.546875 
Q 53.21875 62.890625 53.21875 53.421875 
Q 53.21875 48.921875 51.53125 44.890625 
Q 49.859375 40.875 45.40625 35.40625 
Q 44.1875 33.984375 37.640625 27.21875 
Q 31.109375 20.453125 19.1875 8.296875 
z
" id="DejaVuSans-50"/>
       </defs>
       <use xlink:href="#DejaVuSans-48"/>
       <use x="63.623047" xlink:href="#DejaVuSans-46"/>
       <use x="95.410156" xlink:href="#DejaVuSans-50"/>
      </g>
     </g>
    </g>
    <g id="xtick_3">
     <g id="line2d_3">
      <g>
       <use style="stroke:#000000;stroke-width:0.8;" x="272.053977" xlink:href="#ma6acdbcd0b" y="402.838125"/>
      </g>
     </g>
     <g id="text_3">
      <!-- 0.4 -->
      <g transform="translate(264.102415 417.436562)scale(0.1 -0.1)">
       <defs>
        <path d="M 37.796875 64.3125 
L 12.890625 25.390625 
L 37.796875 25.390625 
z
M 35.203125 72.90625 
L 47.609375 72.90625 
L 47.609375 25.390625 
L 58.015625 25.390625 
L 58.015625 17.1875 
L 47.609375 17.1875 
L 47.609375 0 
L 37.796875 0 
L 37.796875 17.1875 
L 4.890625 17.1875 
L 4.890625 26.703125 
z
" id="DejaVuSans-52"/>
       </defs>
       <use xlink:href="#DejaVuSans-48"/>
       <use x="63.623047" xlink:href="#DejaVuSans-46"/>
       <use x="95.410156" xlink:href="#DejaVuSans-52"/>
      </g>
     </g>
    </g>
    <g id="xtick_4">
     <g id="line2d_4">
      <g>
       <use style="stroke:#000000;stroke-width:0.8;" x="373.508523" xlink:href="#ma6acdbcd0b" y="402.838125"/>
      </g>
     </g>
     <g id="text_4">
      <!-- 0.6 -->
      <g transform="translate(365.55696 417.436562)scale(0.1 -0.1)">
       <defs>
        <path d="M 33.015625 40.375 
Q 26.375 40.375 22.484375 35.828125 
Q 18.609375 31.296875 18.609375 23.390625 
Q 18.609375 15.53125 22.484375 10.953125 
Q 26.375 6.390625 33.015625 6.390625 
Q 39.65625 6.390625 43.53125 10.953125 
Q 47.40625 15.53125 47.40625 23.390625 
Q 47.40625 31.296875 43.53125 35.828125 
Q 39.65625 40.375 33.015625 40.375 
z
M 52.59375 71.296875 
L 52.59375 62.3125 
Q 48.875 64.0625 45.09375 64.984375 
Q 41.3125 65.921875 37.59375 65.921875 
Q 27.828125 65.921875 22.671875 59.328125 
Q 17.53125 52.734375 16.796875 39.40625 
Q 19.671875 43.65625 24.015625 45.921875 
Q 28.375 48.1875 33.59375 48.1875 
Q 44.578125 48.1875 50.953125 41.515625 
Q 57.328125 34.859375 57.328125 23.390625 
Q 57.328125 12.15625 50.6875 5.359375 
Q 44.046875 -1.421875 33.015625 -1.421875 
Q 20.359375 -1.421875 13.671875 8.265625 
Q 6.984375 17.96875 6.984375 36.375 
Q 6.984375 53.65625 15.1875 63.9375 
Q 23.390625 74.21875 37.203125 74.21875 
Q 40.921875 74.21875 44.703125 73.484375 
Q 48.484375 72.75 52.59375 71.296875 
z
" id="DejaVuSans-54"/>
       </defs>
       <use xlink:href="#DejaVuSans-48"/>
       <use x="63.623047" xlink:href="#DejaVuSans-46"/>
       <use x="95.410156" xlink:href="#DejaVuSans-54"/>
      </g>
     </g>
    </g>
    <g id="xtick_5">
     <g id="line2d_5">
      <g>
       <use style="stroke:#000000;stroke-width:0.8;" x="474.963068" xlink:href="#ma6acdbcd0b" y="402.838125"/>
      </g>
     </g>
     <g id="text_5">
      <!-- 0.8 -->
      <g transform="translate(467.011506 417.436562)scale(0.1 -0.1)">
       <defs>
        <path d="M 31.78125 34.625 
Q 24.75 34.625 20.71875 30.859375 
Q 16.703125 27.09375 16.703125 20.515625 
Q 16.703125 13.921875 20.71875 10.15625 
Q 24.75 6.390625 31.78125 6.390625 
Q 38.8125 6.390625 42.859375 10.171875 
Q 46.921875 13.96875 46.921875 20.515625 
Q 46.921875 27.09375 42.890625 30.859375 
Q 38.875 34.625 31.78125 34.625 
z
M 21.921875 38.8125 
Q 15.578125 40.375 12.03125 44.71875 
Q 8.5 49.078125 8.5 55.328125 
Q 8.5 64.0625 14.71875 69.140625 
Q 20.953125 74.21875 31.78125 74.21875 
Q 42.671875 74.21875 48.875 69.140625 
Q 55.078125 64.0625 55.078125 55.328125 
Q 55.078125 49.078125 51.53125 44.71875 
Q 48 40.375 41.703125 38.8125 
Q 48.828125 37.15625 52.796875 32.3125 
Q 56.78125 27.484375 56.78125 20.515625 
Q 56.78125 9.90625 50.3125 4.234375 
Q 43.84375 -1.421875 31.78125 -1.421875 
Q 19.734375 -1.421875 13.25 4.234375 
Q 6.78125 9.90625 6.78125 20.515625 
Q 6.78125 27.484375 10.78125 32.3125 
Q 14.796875 37.15625 21.921875 38.8125 
z
M 18.3125 54.390625 
Q 18.3125 48.734375 21.84375 45.5625 
Q 25.390625 42.390625 31.78125 42.390625 
Q 38.140625 42.390625 41.71875 45.5625 
Q 45.3125 48.734375 45.3125 54.390625 
Q 45.3125 60.0625 41.71875 63.234375 
Q 38.140625 66.40625 31.78125 66.40625 
Q 25.390625 66.40625 21.84375 63.234375 
Q 18.3125 60.0625 18.3125 54.390625 
z
" id="DejaVuSans-56"/>
       </defs>
       <use xlink:href="#DejaVuSans-48"/>
       <use x="63.623047" xlink:href="#DejaVuSans-46"/>
       <use x="95.410156" xlink:href="#DejaVuSans-56"/>
      </g>
     </g>
    </g>
    <g id="xtick_6">
     <g id="line2d_6">
      <g>
       <use style="stroke:#000000;stroke-width:0.8;" x="576.417614" xlink:href="#ma6acdbcd0b" y="402.838125"/>
      </g>
     </g>
     <g id="text_6">
      <!-- 1.0 -->
      <g transform="translate(568.466051 417.436562)scale(0.1 -0.1)">
       <defs>
        <path d="M 12.40625 8.296875 
L 28.515625 8.296875 
L 28.515625 63.921875 
L 10.984375 60.40625 
L 10.984375 69.390625 
L 28.421875 72.90625 
L 38.28125 72.90625 
L 38.28125 8.296875 
L 54.390625 8.296875 
L 54.390625 0 
L 12.40625 0 
z
" id="DejaVuSans-49"/>
       </defs>
       <use xlink:href="#DejaVuSans-49"/>
       <use x="63.623047" xlink:href="#DejaVuSans-46"/>
       <use x="95.410156" xlink:href="#DejaVuSans-48"/>
      </g>
     </g>
    </g>
    <g id="text_7">
     <!-- False Positive Rate -->
     <g transform="translate(276.314844 431.114687)scale(0.1 -0.1)">
      <defs>
       <path d="M 9.8125 72.90625 
L 51.703125 72.90625 
L 51.703125 64.59375 
L 19.671875 64.59375 
L 19.671875 43.109375 
L 48.578125 43.109375 
L 48.578125 34.8125 
L 19.671875 34.8125 
L 19.671875 0 
L 9.8125 0 
z
" id="DejaVuSans-70"/>
       <path d="M 34.28125 27.484375 
Q 23.390625 27.484375 19.1875 25 
Q 14.984375 22.515625 14.984375 16.5 
Q 14.984375 11.71875 18.140625 8.90625 
Q 21.296875 6.109375 26.703125 6.109375 
Q 34.1875 6.109375 38.703125 11.40625 
Q 43.21875 16.703125 43.21875 25.484375 
L 43.21875 27.484375 
z
M 52.203125 31.203125 
L 52.203125 0 
L 43.21875 0 
L 43.21875 8.296875 
Q 40.140625 3.328125 35.546875 0.953125 
Q 30.953125 -1.421875 24.3125 -1.421875 
Q 15.921875 -1.421875 10.953125 3.296875 
Q 6 8.015625 6 15.921875 
Q 6 25.140625 12.171875 29.828125 
Q 18.359375 34.515625 30.609375 34.515625 
L 43.21875 34.515625 
L 43.21875 35.40625 
Q 43.21875 41.609375 39.140625 45 
Q 35.0625 48.390625 27.6875 48.390625 
Q 23 48.390625 18.546875 47.265625 
Q 14.109375 46.140625 10.015625 43.890625 
L 10.015625 52.203125 
Q 14.9375 54.109375 19.578125 55.046875 
Q 24.21875 56 28.609375 56 
Q 40.484375 56 46.34375 49.84375 
Q 52.203125 43.703125 52.203125 31.203125 
z
" id="DejaVuSans-97"/>
       <path d="M 9.421875 75.984375 
L 18.40625 75.984375 
L 18.40625 0 
L 9.421875 0 
z
" id="DejaVuSans-108"/>
       <path d="M 44.28125 53.078125 
L 44.28125 44.578125 
Q 40.484375 46.53125 36.375 47.5 
Q 32.28125 48.484375 27.875 48.484375 
Q 21.1875 48.484375 17.84375 46.4375 
Q 14.5 44.390625 14.5 40.28125 
Q 14.5 37.15625 16.890625 35.375 
Q 19.28125 33.59375 26.515625 31.984375 
L 29.59375 31.296875 
Q 39.15625 29.25 43.1875 25.515625 
Q 47.21875 21.78125 47.21875 15.09375 
Q 47.21875 7.46875 41.1875 3.015625 
Q 35.15625 -1.421875 24.609375 -1.421875 
Q 20.21875 -1.421875 15.453125 -0.5625 
Q 10.6875 0.296875 5.421875 2 
L 5.421875 11.28125 
Q 10.40625 8.6875 15.234375 7.390625 
Q 20.0625 6.109375 24.8125 6.109375 
Q 31.15625 6.109375 34.5625 8.28125 
Q 37.984375 10.453125 37.984375 14.40625 
Q 37.984375 18.0625 35.515625 20.015625 
Q 33.0625 21.96875 24.703125 23.78125 
L 21.578125 24.515625 
Q 13.234375 26.265625 9.515625 29.90625 
Q 5.8125 33.546875 5.8125 39.890625 
Q 5.8125 47.609375 11.28125 51.796875 
Q 16.75 56 26.8125 56 
Q 31.78125 56 36.171875 55.265625 
Q 40.578125 54.546875 44.28125 53.078125 
z
" id="DejaVuSans-115"/>
       <path d="M 56.203125 29.59375 
L 56.203125 25.203125 
L 14.890625 25.203125 
Q 15.484375 15.921875 20.484375 11.0625 
Q 25.484375 6.203125 34.421875 6.203125 
Q 39.59375 6.203125 44.453125 7.46875 
Q 49.3125 8.734375 54.109375 11.28125 
L 54.109375 2.78125 
Q 49.265625 0.734375 44.1875 -0.34375 
Q 39.109375 -1.421875 33.890625 -1.421875 
Q 20.796875 -1.421875 13.15625 6.1875 
Q 5.515625 13.8125 5.515625 26.8125 
Q 5.515625 40.234375 12.765625 48.109375 
Q 20.015625 56 32.328125 56 
Q 43.359375 56 49.78125 48.890625 
Q 56.203125 41.796875 56.203125 29.59375 
z
M 47.21875 32.234375 
Q 47.125 39.59375 43.09375 43.984375 
Q 39.0625 48.390625 32.421875 48.390625 
Q 24.90625 48.390625 20.390625 44.140625 
Q 15.875 39.890625 15.1875 32.171875 
z
" id="DejaVuSans-101"/>
       <path id="DejaVuSans-32"/>
       <path d="M 19.671875 64.796875 
L 19.671875 37.40625 
L 32.078125 37.40625 
Q 38.96875 37.40625 42.71875 40.96875 
Q 46.484375 44.53125 46.484375 51.125 
Q 46.484375 57.671875 42.71875 61.234375 
Q 38.96875 64.796875 32.078125 64.796875 
z
M 9.8125 72.90625 
L 32.078125 72.90625 
Q 44.34375 72.90625 50.609375 67.359375 
Q 56.890625 61.8125 56.890625 51.125 
Q 56.890625 40.328125 50.609375 34.8125 
Q 44.34375 29.296875 32.078125 29.296875 
L 19.671875 29.296875 
L 19.671875 0 
L 9.8125 0 
z
" id="DejaVuSans-80"/>
       <path d="M 30.609375 48.390625 
Q 23.390625 48.390625 19.1875 42.75 
Q 14.984375 37.109375 14.984375 27.296875 
Q 14.984375 17.484375 19.15625 11.84375 
Q 23.34375 6.203125 30.609375 6.203125 
Q 37.796875 6.203125 41.984375 11.859375 
Q 46.1875 17.53125 46.1875 27.296875 
Q 46.1875 37.015625 41.984375 42.703125 
Q 37.796875 48.390625 30.609375 48.390625 
z
M 30.609375 56 
Q 42.328125 56 49.015625 48.375 
Q 55.71875 40.765625 55.71875 27.296875 
Q 55.71875 13.875 49.015625 6.21875 
Q 42.328125 -1.421875 30.609375 -1.421875 
Q 18.84375 -1.421875 12.171875 6.21875 
Q 5.515625 13.875 5.515625 27.296875 
Q 5.515625 40.765625 12.171875 48.375 
Q 18.84375 56 30.609375 56 
z
" id="DejaVuSans-111"/>
       <path d="M 9.421875 54.6875 
L 18.40625 54.6875 
L 18.40625 0 
L 9.421875 0 
z
M 9.421875 75.984375 
L 18.40625 75.984375 
L 18.40625 64.59375 
L 9.421875 64.59375 
z
" id="DejaVuSans-105"/>
       <path d="M 18.3125 70.21875 
L 18.3125 54.6875 
L 36.8125 54.6875 
L 36.8125 47.703125 
L 18.3125 47.703125 
L 18.3125 18.015625 
Q 18.3125 11.328125 20.140625 9.421875 
Q 21.96875 7.515625 27.59375 7.515625 
L 36.8125 7.515625 
L 36.8125 0 
L 27.59375 0 
Q 17.1875 0 13.234375 3.875 
Q 9.28125 7.765625 9.28125 18.015625 
L 9.28125 47.703125 
L 2.6875 47.703125 
L 2.6875 54.6875 
L 9.28125 54.6875 
L 9.28125 70.21875 
z
" id="DejaVuSans-116"/>
       <path d="M 2.984375 54.6875 
L 12.5 54.6875 
L 29.59375 8.796875 
L 46.6875 54.6875 
L 56.203125 54.6875 
L 35.6875 0 
L 23.484375 0 
z
" id="DejaVuSans-118"/>
       <path d="M 44.390625 34.1875 
Q 47.5625 33.109375 50.5625 29.59375 
Q 53.5625 26.078125 56.59375 19.921875 
L 66.609375 0 
L 56 0 
L 46.6875 18.703125 
Q 43.0625 26.03125 39.671875 28.421875 
Q 36.28125 30.8125 30.421875 30.8125 
L 19.671875 30.8125 
L 19.671875 0 
L 9.8125 0 
L 9.8125 72.90625 
L 32.078125 72.90625 
Q 44.578125 72.90625 50.734375 67.671875 
Q 56.890625 62.453125 56.890625 51.90625 
Q 56.890625 45.015625 53.6875 40.46875 
Q 50.484375 35.9375 44.390625 34.1875 
z
M 19.671875 64.796875 
L 19.671875 38.921875 
L 32.078125 38.921875 
Q 39.203125 38.921875 42.84375 42.21875 
Q 46.484375 45.515625 46.484375 51.90625 
Q 46.484375 58.296875 42.84375 61.546875 
Q 39.203125 64.796875 32.078125 64.796875 
z
" id="DejaVuSans-82"/>
      </defs>
      <use xlink:href="#DejaVuSans-70"/>
      <use x="48.394531" xlink:href="#DejaVuSans-97"/>
      <use x="109.673828" xlink:href="#DejaVuSans-108"/>
      <use x="137.457031" xlink:href="#DejaVuSans-115"/>
      <use x="189.556641" xlink:href="#DejaVuSans-101"/>
      <use x="251.080078" xlink:href="#DejaVuSans-32"/>
      <use x="282.867188" xlink:href="#DejaVuSans-80"/>
      <use x="339.544922" xlink:href="#DejaVuSans-111"/>
      <use x="400.726562" xlink:href="#DejaVuSans-115"/>
      <use x="452.826172" xlink:href="#DejaVuSans-105"/>
      <use x="480.609375" xlink:href="#DejaVuSans-116"/>
      <use x="519.818359" xlink:href="#DejaVuSans-105"/>
      <use x="547.601562" xlink:href="#DejaVuSans-118"/>
      <use x="606.78125" xlink:href="#DejaVuSans-101"/>
      <use x="668.304688" xlink:href="#DejaVuSans-32"/>
      <use x="700.091797" xlink:href="#DejaVuSans-82"/>
      <use x="767.324219" xlink:href="#DejaVuSans-97"/>
      <use x="828.603516" xlink:href="#DejaVuSans-116"/>
      <use x="867.8125" xlink:href="#DejaVuSans-101"/>
     </g>
    </g>
   </g>
   <g id="matplotlib.axis_2">
    <g id="ytick_1">
     <g id="line2d_7">
      <defs>
       <path d="M 0 0 
L -3.5 0 
" id="m22566b3ad2" style="stroke:#000000;stroke-width:0.8;"/>
      </defs>
      <g>
       <use style="stroke:#000000;stroke-width:0.8;" x="43.78125" xlink:href="#m22566b3ad2" y="385.541761"/>
      </g>
     </g>
     <g id="text_8">
      <!-- 0.0 -->
      <g transform="translate(20.878125 389.34098)scale(0.1 -0.1)">
       <use xlink:href="#DejaVuSans-48"/>
       <use x="63.623047" xlink:href="#DejaVuSans-46"/>
       <use x="95.410156" xlink:href="#DejaVuSans-48"/>
      </g>
     </g>
    </g>
    <g id="ytick_2">
     <g id="line2d_8">
      <g>
       <use style="stroke:#000000;stroke-width:0.8;" x="43.78125" xlink:href="#m22566b3ad2" y="316.356307"/>
      </g>
     </g>
     <g id="text_9">
      <!-- 0.2 -->
      <g transform="translate(20.878125 320.155526)scale(0.1 -0.1)">
       <use xlink:href="#DejaVuSans-48"/>
       <use x="63.623047" xlink:href="#DejaVuSans-46"/>
       <use x="95.410156" xlink:href="#DejaVuSans-50"/>
      </g>
     </g>
    </g>
    <g id="ytick_3">
     <g id="line2d_9">
      <g>
       <use style="stroke:#000000;stroke-width:0.8;" x="43.78125" xlink:href="#m22566b3ad2" y="247.170852"/>
      </g>
     </g>
     <g id="text_10">
      <!-- 0.4 -->
      <g transform="translate(20.878125 250.970071)scale(0.1 -0.1)">
       <use xlink:href="#DejaVuSans-48"/>
       <use x="63.623047" xlink:href="#DejaVuSans-46"/>
       <use x="95.410156" xlink:href="#DejaVuSans-52"/>
      </g>
     </g>
    </g>
    <g id="ytick_4">
     <g id="line2d_10">
      <g>
       <use style="stroke:#000000;stroke-width:0.8;" x="43.78125" xlink:href="#m22566b3ad2" y="177.985398"/>
      </g>
     </g>
     <g id="text_11">
      <!-- 0.6 -->
      <g transform="translate(20.878125 181.784616)scale(0.1 -0.1)">
       <use xlink:href="#DejaVuSans-48"/>
       <use x="63.623047" xlink:href="#DejaVuSans-46"/>
       <use x="95.410156" xlink:href="#DejaVuSans-54"/>
      </g>
     </g>
    </g>
    <g id="ytick_5">
     <g id="line2d_11">
      <g>
       <use style="stroke:#000000;stroke-width:0.8;" x="43.78125" xlink:href="#m22566b3ad2" y="108.799943"/>
      </g>
     </g>
     <g id="text_12">
      <!-- 0.8 -->
      <g transform="translate(20.878125 112.599162)scale(0.1 -0.1)">
       <use xlink:href="#DejaVuSans-48"/>
       <use x="63.623047" xlink:href="#DejaVuSans-46"/>
       <use x="95.410156" xlink:href="#DejaVuSans-56"/>
      </g>
     </g>
    </g>
    <g id="ytick_6">
     <g id="line2d_12">
      <g>
       <use style="stroke:#000000;stroke-width:0.8;" x="43.78125" xlink:href="#m22566b3ad2" y="39.614489"/>
      </g>
     </g>
     <g id="text_13">
      <!-- 1.0 -->
      <g transform="translate(20.878125 43.413707)scale(0.1 -0.1)">
       <use xlink:href="#DejaVuSans-49"/>
       <use x="63.623047" xlink:href="#DejaVuSans-46"/>
       <use x="95.410156" xlink:href="#DejaVuSans-48"/>
      </g>
     </g>
    </g>
    <g id="text_14">
     <!-- True Positive Rate -->
     <g transform="translate(14.798438 257.107812)rotate(-90)scale(0.1 -0.1)">
      <defs>
       <path d="M -0.296875 72.90625 
L 61.375 72.90625 
L 61.375 64.59375 
L 35.5 64.59375 
L 35.5 0 
L 25.59375 0 
L 25.59375 64.59375 
L -0.296875 64.59375 
z
" id="DejaVuSans-84"/>
       <path d="M 41.109375 46.296875 
Q 39.59375 47.171875 37.8125 47.578125 
Q 36.03125 48 33.890625 48 
Q 26.265625 48 22.1875 43.046875 
Q 18.109375 38.09375 18.109375 28.8125 
L 18.109375 0 
L 9.078125 0 
L 9.078125 54.6875 
L 18.109375 54.6875 
L 18.109375 46.1875 
Q 20.953125 51.171875 25.484375 53.578125 
Q 30.03125 56 36.53125 56 
Q 37.453125 56 38.578125 55.875 
Q 39.703125 55.765625 41.0625 55.515625 
z
" id="DejaVuSans-114"/>
       <path d="M 8.5 21.578125 
L 8.5 54.6875 
L 17.484375 54.6875 
L 17.484375 21.921875 
Q 17.484375 14.15625 20.5 10.265625 
Q 23.53125 6.390625 29.59375 6.390625 
Q 36.859375 6.390625 41.078125 11.03125 
Q 45.3125 15.671875 45.3125 23.6875 
L 45.3125 54.6875 
L 54.296875 54.6875 
L 54.296875 0 
L 45.3125 0 
L 45.3125 8.40625 
Q 42.046875 3.421875 37.71875 1 
Q 33.40625 -1.421875 27.6875 -1.421875 
Q 18.265625 -1.421875 13.375 4.4375 
Q 8.5 10.296875 8.5 21.578125 
z
M 31.109375 56 
z
" id="DejaVuSans-117"/>
      </defs>
      <use xlink:href="#DejaVuSans-84"/>
      <use x="46.333984" xlink:href="#DejaVuSans-114"/>
      <use x="87.447266" xlink:href="#DejaVuSans-117"/>
      <use x="150.826172" xlink:href="#DejaVuSans-101"/>
      <use x="212.349609" xlink:href="#DejaVuSans-32"/>
      <use x="244.136719" xlink:href="#DejaVuSans-80"/>
      <use x="300.814453" xlink:href="#DejaVuSans-111"/>
      <use x="361.996094" xlink:href="#DejaVuSans-115"/>
      <use x="414.095703" xlink:href="#DejaVuSans-105"/>
      <use x="441.878906" xlink:href="#DejaVuSans-116"/>
      <use x="481.087891" xlink:href="#DejaVuSans-105"/>
      <use x="508.871094" xlink:href="#DejaVuSans-118"/>
      <use x="568.050781" xlink:href="#DejaVuSans-101"/>
      <use x="629.574219" xlink:href="#DejaVuSans-32"/>
      <use x="661.361328" xlink:href="#DejaVuSans-82"/>
      <use x="728.59375" xlink:href="#DejaVuSans-97"/>
      <use x="789.873047" xlink:href="#DejaVuSans-116"/>
      <use x="829.082031" xlink:href="#DejaVuSans-101"/>
     </g>
    </g>
   </g>
   <g id="line2d_13">
    <path clip-path="url(#pc6a43a36dc)" d="M 69.144886 385.541761 
L 73.841856 385.541761 
L 73.841856 336.12358 
L 78.538826 336.12358 
L 78.538826 237.287216 
L 83.235795 237.287216 
L 83.235795 212.578125 
L 116.114583 212.578125 
L 116.114583 187.869034 
L 134.902462 187.869034 
L 134.902462 163.159943 
L 186.569129 163.159943 
L 186.569129 138.450852 
L 191.266098 138.450852 
L 191.266098 113.741761 
L 247.629735 113.741761 
L 247.629735 89.03267 
L 412.023674 89.03267 
L 412.023674 64.32358 
L 468.387311 64.32358 
L 468.387311 39.614489 
L 576.417614 39.614489 
" style="fill:none;stroke:#1f77b4;stroke-linecap:square;stroke-opacity:0.3;"/>
   </g>
   <g id="line2d_14">
    <path clip-path="url(#pc6a43a36dc)" d="M 69.144886 385.541761 
L 69.144886 360.83267 
L 69.144886 311.414489 
L 73.841856 311.414489 
L 73.841856 261.996307 
L 78.538826 261.996307 
L 78.538826 187.869034 
L 83.235795 187.869034 
L 83.235795 163.159943 
L 116.114583 163.159943 
L 116.114583 138.450852 
L 139.599432 138.450852 
L 139.599432 113.741761 
L 205.357008 113.741761 
L 205.357008 89.03267 
L 214.750947 89.03267 
L 214.750947 64.32358 
L 322.78125 64.32358 
L 322.78125 39.614489 
L 576.417614 39.614489 
" style="fill:none;stroke:#ff7f0e;stroke-linecap:square;stroke-opacity:0.3;"/>
   </g>
   <g id="line2d_15">
    <path clip-path="url(#pc6a43a36dc)" d="M 69.144886 385.541761 
L 73.885753 385.541761 
L 73.885753 360.83267 
L 78.62662 360.83267 
L 78.62662 336.12358 
L 88.108353 336.12358 
L 88.108353 286.705398 
L 97.590086 286.705398 
L 97.590086 261.996307 
L 116.553552 261.996307 
L 116.553552 212.578125 
L 149.739619 212.578125 
L 149.739619 187.869034 
L 159.221352 187.869034 
L 159.221352 163.159943 
L 168.703085 163.159943 
L 168.703085 138.450852 
L 192.407418 138.450852 
L 192.407418 113.741761 
L 197.148285 113.741761 
L 197.148285 89.03267 
L 206.630018 89.03267 
L 206.630018 64.32358 
L 220.852618 64.32358 
L 220.852618 39.614489 
L 576.417614 39.614489 
" style="fill:none;stroke:#2ca02c;stroke-linecap:square;stroke-opacity:0.3;"/>
   </g>
   <g id="line2d_16">
    <path clip-path="url(#pc6a43a36dc)" d="M 69.144886 385.541761 
L 69.144886 360.83267 
L 69.144886 336.12358 
L 78.62662 336.12358 
L 78.62662 286.705398 
L 92.849219 286.705398 
L 92.849219 261.996307 
L 111.812686 261.996307 
L 111.812686 237.287216 
L 121.294419 237.287216 
L 121.294419 212.578125 
L 126.035286 212.578125 
L 126.035286 187.869034 
L 130.776152 187.869034 
L 130.776152 138.450852 
L 135.517019 138.450852 
L 135.517019 113.741761 
L 149.739619 113.741761 
L 149.739619 89.03267 
L 178.184818 89.03267 
L 178.184818 64.32358 
L 182.925685 64.32358 
L 182.925685 39.614489 
L 576.417614 39.614489 
" style="fill:none;stroke:#d62728;stroke-linecap:square;stroke-opacity:0.3;"/>
   </g>
   <g id="line2d_17">
    <path clip-path="url(#pc6a43a36dc)" d="M 69.144886 385.541761 
L 69.144886 360.83267 
L 69.144886 311.414489 
L 73.885753 311.414489 
L 73.885753 286.705398 
L 92.849219 286.705398 
L 92.849219 237.287216 
L 97.590086 237.287216 
L 97.590086 212.578125 
L 121.294419 212.578125 
L 121.294419 187.869034 
L 140.257886 187.869034 
L 140.257886 163.159943 
L 163.962219 163.159943 
L 163.962219 138.450852 
L 173.443952 138.450852 
L 173.443952 113.741761 
L 225.593484 113.741761 
L 225.593484 89.03267 
L 235.075218 89.03267 
L 235.075218 64.32358 
L 263.520417 64.32358 
L 263.520417 39.614489 
L 576.417614 39.614489 
" style="fill:none;stroke:#9467bd;stroke-linecap:square;stroke-opacity:0.3;"/>
   </g>
   <g id="line2d_18">
    <path clip-path="url(#pc6a43a36dc)" d="M 69.144886 385.541761 
L 576.417614 39.614489 
" style="fill:none;stroke:#ff0000;stroke-dasharray:7.4,3.2;stroke-dashoffset:0;stroke-opacity:0.8;stroke-width:2;"/>
   </g>
   <g id="line2d_19">
    <path clip-path="url(#pc6a43a36dc)" d="M 69.144886 385.541761 
L 74.268853 316.356307 
L 79.39282 266.938125 
L 84.516787 257.054489 
L 89.640754 247.170852 
L 94.764721 232.345398 
L 99.888688 222.461761 
L 105.012655 222.461761 
L 110.136622 222.461761 
L 115.260589 217.519943 
L 120.384556 197.75267 
L 125.508523 187.869034 
L 130.63249 182.927216 
L 135.756457 163.159943 
L 140.880424 153.276307 
L 146.00439 153.276307 
L 151.128357 143.39267 
L 156.252324 143.39267 
L 161.376291 138.450852 
L 166.500258 133.509034 
L 171.624225 128.567216 
L 176.748192 123.625398 
L 181.872159 118.68358 
L 186.996126 108.799943 
L 192.120093 103.858125 
L 197.24406 93.974489 
L 202.368027 93.974489 
L 207.491994 84.090852 
L 212.615961 84.090852 
L 217.739928 79.149034 
L 222.863895 74.207216 
L 227.987862 69.265398 
L 233.111829 69.265398 
L 238.235795 64.32358 
L 243.359762 64.32358 
L 248.483729 59.381761 
L 253.607696 59.381761 
L 258.731663 59.381761 
L 263.85563 54.439943 
L 268.979597 54.439943 
L 274.103564 54.439943 
L 279.227531 54.439943 
L 284.351498 54.439943 
L 289.475465 54.439943 
L 294.599432 54.439943 
L 299.723399 54.439943 
L 304.847366 54.439943 
L 309.971333 54.439943 
L 315.0953 54.439943 
L 320.219267 54.439943 
L 325.343233 49.498125 
L 330.4672 49.498125 
L 335.591167 49.498125 
L 340.715134 49.498125 
L 345.839101 49.498125 
L 350.963068 49.498125 
L 356.087035 49.498125 
L 361.211002 49.498125 
L 366.334969 49.498125 
L 371.458936 49.498125 
L 376.582903 49.498125 
L 381.70687 49.498125 
L 386.830837 49.498125 
L 391.954804 49.498125 
L 397.078771 49.498125 
L 402.202738 49.498125 
L 407.326705 49.498125 
L 412.450671 44.556307 
L 417.574638 44.556307 
L 422.698605 44.556307 
L 427.822572 44.556307 
L 432.946539 44.556307 
L 438.070506 44.556307 
L 443.194473 44.556307 
L 448.31844 44.556307 
L 453.442407 44.556307 
L 458.566374 44.556307 
L 463.690341 44.556307 
L 468.814308 39.614489 
L 473.938275 39.614489 
L 479.062242 39.614489 
L 484.186209 39.614489 
L 489.310176 39.614489 
L 494.434143 39.614489 
L 499.55811 39.614489 
L 504.682076 39.614489 
L 509.806043 39.614489 
L 514.93001 39.614489 
L 520.053977 39.614489 
L 525.177944 39.614489 
L 530.301911 39.614489 
L 535.425878 39.614489 
L 540.549845 39.614489 
L 545.673812 39.614489 
L 550.797779 39.614489 
L 555.921746 39.614489 
L 561.045713 39.614489 
L 566.16968 39.614489 
L 571.293647 39.614489 
L 576.417614 39.614489 
" style="fill:none;stroke:#0000ff;stroke-linecap:square;stroke-opacity:0.8;stroke-width:2;"/>
   </g>
   <g id="patch_3">
    <path d="M 43.78125 402.838125 
L 43.78125 22.318125 
" style="fill:none;stroke:#000000;stroke-linecap:square;stroke-linejoin:miter;stroke-width:0.8;"/>
   </g>
   <g id="patch_4">
    <path d="M 601.78125 402.838125 
L 601.78125 22.318125 
" style="fill:none;stroke:#000000;stroke-linecap:square;stroke-linejoin:miter;stroke-width:0.8;"/>
   </g>
   <g id="patch_5">
    <path d="M 43.78125 402.838125 
L 601.78125 402.838125 
" style="fill:none;stroke:#000000;stroke-linecap:square;stroke-linejoin:miter;stroke-width:0.8;"/>
   </g>
   <g id="patch_6">
    <path d="M 43.78125 22.318125 
L 601.78125 22.318125 
" style="fill:none;stroke:#000000;stroke-linecap:square;stroke-linejoin:miter;stroke-width:0.8;"/>
   </g>
   <g id="text_15">
    <!-- Receiver operating characteristic -->
    <g transform="translate(223.220625 16.318125)scale(0.12 -0.12)">
     <defs>
      <path d="M 48.78125 52.59375 
L 48.78125 44.1875 
Q 44.96875 46.296875 41.140625 47.34375 
Q 37.3125 48.390625 33.40625 48.390625 
Q 24.65625 48.390625 19.8125 42.84375 
Q 14.984375 37.3125 14.984375 27.296875 
Q 14.984375 17.28125 19.8125 11.734375 
Q 24.65625 6.203125 33.40625 6.203125 
Q 37.3125 6.203125 41.140625 7.25 
Q 44.96875 8.296875 48.78125 10.40625 
L 48.78125 2.09375 
Q 45.015625 0.34375 40.984375 -0.53125 
Q 36.96875 -1.421875 32.421875 -1.421875 
Q 20.0625 -1.421875 12.78125 6.34375 
Q 5.515625 14.109375 5.515625 27.296875 
Q 5.515625 40.671875 12.859375 48.328125 
Q 20.21875 56 33.015625 56 
Q 37.15625 56 41.109375 55.140625 
Q 45.0625 54.296875 48.78125 52.59375 
z
" id="DejaVuSans-99"/>
      <path d="M 18.109375 8.203125 
L 18.109375 -20.796875 
L 9.078125 -20.796875 
L 9.078125 54.6875 
L 18.109375 54.6875 
L 18.109375 46.390625 
Q 20.953125 51.265625 25.265625 53.625 
Q 29.59375 56 35.59375 56 
Q 45.5625 56 51.78125 48.09375 
Q 58.015625 40.1875 58.015625 27.296875 
Q 58.015625 14.40625 51.78125 6.484375 
Q 45.5625 -1.421875 35.59375 -1.421875 
Q 29.59375 -1.421875 25.265625 0.953125 
Q 20.953125 3.328125 18.109375 8.203125 
z
M 48.6875 27.296875 
Q 48.6875 37.203125 44.609375 42.84375 
Q 40.53125 48.484375 33.40625 48.484375 
Q 26.265625 48.484375 22.1875 42.84375 
Q 18.109375 37.203125 18.109375 27.296875 
Q 18.109375 17.390625 22.1875 11.75 
Q 26.265625 6.109375 33.40625 6.109375 
Q 40.53125 6.109375 44.609375 11.75 
Q 48.6875 17.390625 48.6875 27.296875 
z
" id="DejaVuSans-112"/>
      <path d="M 54.890625 33.015625 
L 54.890625 0 
L 45.90625 0 
L 45.90625 32.71875 
Q 45.90625 40.484375 42.875 44.328125 
Q 39.84375 48.1875 33.796875 48.1875 
Q 26.515625 48.1875 22.3125 43.546875 
Q 18.109375 38.921875 18.109375 30.90625 
L 18.109375 0 
L 9.078125 0 
L 9.078125 54.6875 
L 18.109375 54.6875 
L 18.109375 46.1875 
Q 21.34375 51.125 25.703125 53.5625 
Q 30.078125 56 35.796875 56 
Q 45.21875 56 50.046875 50.171875 
Q 54.890625 44.34375 54.890625 33.015625 
z
" id="DejaVuSans-110"/>
      <path d="M 45.40625 27.984375 
Q 45.40625 37.75 41.375 43.109375 
Q 37.359375 48.484375 30.078125 48.484375 
Q 22.859375 48.484375 18.828125 43.109375 
Q 14.796875 37.75 14.796875 27.984375 
Q 14.796875 18.265625 18.828125 12.890625 
Q 22.859375 7.515625 30.078125 7.515625 
Q 37.359375 7.515625 41.375 12.890625 
Q 45.40625 18.265625 45.40625 27.984375 
z
M 54.390625 6.78125 
Q 54.390625 -7.171875 48.1875 -13.984375 
Q 42 -20.796875 29.203125 -20.796875 
Q 24.46875 -20.796875 20.265625 -20.09375 
Q 16.0625 -19.390625 12.109375 -17.921875 
L 12.109375 -9.1875 
Q 16.0625 -11.328125 19.921875 -12.34375 
Q 23.78125 -13.375 27.78125 -13.375 
Q 36.625 -13.375 41.015625 -8.765625 
Q 45.40625 -4.15625 45.40625 5.171875 
L 45.40625 9.625 
Q 42.625 4.78125 38.28125 2.390625 
Q 33.9375 0 27.875 0 
Q 17.828125 0 11.671875 7.65625 
Q 5.515625 15.328125 5.515625 27.984375 
Q 5.515625 40.671875 11.671875 48.328125 
Q 17.828125 56 27.875 56 
Q 33.9375 56 38.28125 53.609375 
Q 42.625 51.21875 45.40625 46.390625 
L 45.40625 54.6875 
L 54.390625 54.6875 
z
" id="DejaVuSans-103"/>
      <path d="M 54.890625 33.015625 
L 54.890625 0 
L 45.90625 0 
L 45.90625 32.71875 
Q 45.90625 40.484375 42.875 44.328125 
Q 39.84375 48.1875 33.796875 48.1875 
Q 26.515625 48.1875 22.3125 43.546875 
Q 18.109375 38.921875 18.109375 30.90625 
L 18.109375 0 
L 9.078125 0 
L 9.078125 75.984375 
L 18.109375 75.984375 
L 18.109375 46.1875 
Q 21.34375 51.125 25.703125 53.5625 
Q 30.078125 56 35.796875 56 
Q 45.21875 56 50.046875 50.171875 
Q 54.890625 44.34375 54.890625 33.015625 
z
" id="DejaVuSans-104"/>
     </defs>
     <use xlink:href="#DejaVuSans-82"/>
     <use x="64.982422" xlink:href="#DejaVuSans-101"/>
     <use x="126.505859" xlink:href="#DejaVuSans-99"/>
     <use x="181.486328" xlink:href="#DejaVuSans-101"/>
     <use x="243.009766" xlink:href="#DejaVuSans-105"/>
     <use x="270.792969" xlink:href="#DejaVuSans-118"/>
     <use x="329.972656" xlink:href="#DejaVuSans-101"/>
     <use x="391.496094" xlink:href="#DejaVuSans-114"/>
     <use x="432.609375" xlink:href="#DejaVuSans-32"/>
     <use x="464.396484" xlink:href="#DejaVuSans-111"/>
     <use x="525.578125" xlink:href="#DejaVuSans-112"/>
     <use x="589.054688" xlink:href="#DejaVuSans-101"/>
     <use x="650.578125" xlink:href="#DejaVuSans-114"/>
     <use x="691.691406" xlink:href="#DejaVuSans-97"/>
     <use x="752.970703" xlink:href="#DejaVuSans-116"/>
     <use x="792.179688" xlink:href="#DejaVuSans-105"/>
     <use x="819.962891" xlink:href="#DejaVuSans-110"/>
     <use x="883.341797" xlink:href="#DejaVuSans-103"/>
     <use x="946.818359" xlink:href="#DejaVuSans-32"/>
     <use x="978.605469" xlink:href="#DejaVuSans-99"/>
     <use x="1033.585938" xlink:href="#DejaVuSans-104"/>
     <use x="1096.964844" xlink:href="#DejaVuSans-97"/>
     <use x="1158.244141" xlink:href="#DejaVuSans-114"/>
     <use x="1199.357422" xlink:href="#DejaVuSans-97"/>
     <use x="1260.636719" xlink:href="#DejaVuSans-99"/>
     <use x="1315.617188" xlink:href="#DejaVuSans-116"/>
     <use x="1354.826172" xlink:href="#DejaVuSans-101"/>
     <use x="1416.349609" xlink:href="#DejaVuSans-114"/>
     <use x="1457.462891" xlink:href="#DejaVuSans-105"/>
     <use x="1485.246094" xlink:href="#DejaVuSans-115"/>
     <use x="1537.345703" xlink:href="#DejaVuSans-116"/>
     <use x="1576.554688" xlink:href="#DejaVuSans-105"/>
     <use x="1604.337891" xlink:href="#DejaVuSans-99"/>
    </g>
   </g>
   <g id="legend_1">
    <g id="patch_7">
     <path d="M 404.68125 397.838125 
L 594.78125 397.838125 
Q 596.78125 397.838125 596.78125 395.838125 
L 596.78125 279.413125 
Q 596.78125 277.413125 594.78125 277.413125 
L 404.68125 277.413125 
Q 402.68125 277.413125 402.68125 279.413125 
L 402.68125 395.838125 
Q 402.68125 397.838125 404.68125 397.838125 
z
" style="fill:#ffffff;opacity:0.8;stroke:#cccccc;stroke-linejoin:miter;"/>
    </g>
    <g id="line2d_20">
     <path d="M 406.68125 285.511562 
L 426.68125 285.511562 
" style="fill:none;stroke:#1f77b4;stroke-linecap:square;stroke-opacity:0.3;"/>
    </g>
    <g id="line2d_21"/>
    <g id="text_16">
     <!-- ROC fold 1 (AUC = 0.81) -->
     <g transform="translate(434.68125 289.011562)scale(0.1 -0.1)">
      <defs>
       <path d="M 39.40625 66.21875 
Q 28.65625 66.21875 22.328125 58.203125 
Q 16.015625 50.203125 16.015625 36.375 
Q 16.015625 22.609375 22.328125 14.59375 
Q 28.65625 6.59375 39.40625 6.59375 
Q 50.140625 6.59375 56.421875 14.59375 
Q 62.703125 22.609375 62.703125 36.375 
Q 62.703125 50.203125 56.421875 58.203125 
Q 50.140625 66.21875 39.40625 66.21875 
z
M 39.40625 74.21875 
Q 54.734375 74.21875 63.90625 63.9375 
Q 73.09375 53.65625 73.09375 36.375 
Q 73.09375 19.140625 63.90625 8.859375 
Q 54.734375 -1.421875 39.40625 -1.421875 
Q 24.03125 -1.421875 14.8125 8.828125 
Q 5.609375 19.09375 5.609375 36.375 
Q 5.609375 53.65625 14.8125 63.9375 
Q 24.03125 74.21875 39.40625 74.21875 
z
" id="DejaVuSans-79"/>
       <path d="M 64.40625 67.28125 
L 64.40625 56.890625 
Q 59.421875 61.53125 53.78125 63.8125 
Q 48.140625 66.109375 41.796875 66.109375 
Q 29.296875 66.109375 22.65625 58.46875 
Q 16.015625 50.828125 16.015625 36.375 
Q 16.015625 21.96875 22.65625 14.328125 
Q 29.296875 6.6875 41.796875 6.6875 
Q 48.140625 6.6875 53.78125 8.984375 
Q 59.421875 11.28125 64.40625 15.921875 
L 64.40625 5.609375 
Q 59.234375 2.09375 53.4375 0.328125 
Q 47.65625 -1.421875 41.21875 -1.421875 
Q 24.65625 -1.421875 15.125 8.703125 
Q 5.609375 18.84375 5.609375 36.375 
Q 5.609375 53.953125 15.125 64.078125 
Q 24.65625 74.21875 41.21875 74.21875 
Q 47.75 74.21875 53.53125 72.484375 
Q 59.328125 70.75 64.40625 67.28125 
z
" id="DejaVuSans-67"/>
       <path d="M 37.109375 75.984375 
L 37.109375 68.5 
L 28.515625 68.5 
Q 23.6875 68.5 21.796875 66.546875 
Q 19.921875 64.59375 19.921875 59.515625 
L 19.921875 54.6875 
L 34.71875 54.6875 
L 34.71875 47.703125 
L 19.921875 47.703125 
L 19.921875 0 
L 10.890625 0 
L 10.890625 47.703125 
L 2.296875 47.703125 
L 2.296875 54.6875 
L 10.890625 54.6875 
L 10.890625 58.5 
Q 10.890625 67.625 15.140625 71.796875 
Q 19.390625 75.984375 28.609375 75.984375 
z
" id="DejaVuSans-102"/>
       <path d="M 45.40625 46.390625 
L 45.40625 75.984375 
L 54.390625 75.984375 
L 54.390625 0 
L 45.40625 0 
L 45.40625 8.203125 
Q 42.578125 3.328125 38.25 0.953125 
Q 33.9375 -1.421875 27.875 -1.421875 
Q 17.96875 -1.421875 11.734375 6.484375 
Q 5.515625 14.40625 5.515625 27.296875 
Q 5.515625 40.1875 11.734375 48.09375 
Q 17.96875 56 27.875 56 
Q 33.9375 56 38.25 53.625 
Q 42.578125 51.265625 45.40625 46.390625 
z
M 14.796875 27.296875 
Q 14.796875 17.390625 18.875 11.75 
Q 22.953125 6.109375 30.078125 6.109375 
Q 37.203125 6.109375 41.296875 11.75 
Q 45.40625 17.390625 45.40625 27.296875 
Q 45.40625 37.203125 41.296875 42.84375 
Q 37.203125 48.484375 30.078125 48.484375 
Q 22.953125 48.484375 18.875 42.84375 
Q 14.796875 37.203125 14.796875 27.296875 
z
" id="DejaVuSans-100"/>
       <path d="M 31 75.875 
Q 24.46875 64.65625 21.28125 53.65625 
Q 18.109375 42.671875 18.109375 31.390625 
Q 18.109375 20.125 21.3125 9.0625 
Q 24.515625 -2 31 -13.1875 
L 23.1875 -13.1875 
Q 15.875 -1.703125 12.234375 9.375 
Q 8.59375 20.453125 8.59375 31.390625 
Q 8.59375 42.28125 12.203125 53.3125 
Q 15.828125 64.359375 23.1875 75.875 
z
" id="DejaVuSans-40"/>
       <path d="M 34.1875 63.1875 
L 20.796875 26.90625 
L 47.609375 26.90625 
z
M 28.609375 72.90625 
L 39.796875 72.90625 
L 67.578125 0 
L 57.328125 0 
L 50.6875 18.703125 
L 17.828125 18.703125 
L 11.1875 0 
L 0.78125 0 
z
" id="DejaVuSans-65"/>
       <path d="M 8.6875 72.90625 
L 18.609375 72.90625 
L 18.609375 28.609375 
Q 18.609375 16.890625 22.84375 11.734375 
Q 27.09375 6.59375 36.625 6.59375 
Q 46.09375 6.59375 50.34375 11.734375 
Q 54.59375 16.890625 54.59375 28.609375 
L 54.59375 72.90625 
L 64.5 72.90625 
L 64.5 27.390625 
Q 64.5 13.140625 57.4375 5.859375 
Q 50.390625 -1.421875 36.625 -1.421875 
Q 22.796875 -1.421875 15.734375 5.859375 
Q 8.6875 13.140625 8.6875 27.390625 
z
" id="DejaVuSans-85"/>
       <path d="M 10.59375 45.40625 
L 73.1875 45.40625 
L 73.1875 37.203125 
L 10.59375 37.203125 
z
M 10.59375 25.484375 
L 73.1875 25.484375 
L 73.1875 17.1875 
L 10.59375 17.1875 
z
" id="DejaVuSans-61"/>
       <path d="M 8.015625 75.875 
L 15.828125 75.875 
Q 23.140625 64.359375 26.78125 53.3125 
Q 30.421875 42.28125 30.421875 31.390625 
Q 30.421875 20.453125 26.78125 9.375 
Q 23.140625 -1.703125 15.828125 -13.1875 
L 8.015625 -13.1875 
Q 14.5 -2 17.703125 9.0625 
Q 20.90625 20.125 20.90625 31.390625 
Q 20.90625 42.671875 17.703125 53.65625 
Q 14.5 64.65625 8.015625 75.875 
z
" id="DejaVuSans-41"/>
      </defs>
      <use xlink:href="#DejaVuSans-82"/>
      <use x="69.482422" xlink:href="#DejaVuSans-79"/>
      <use x="148.193359" xlink:href="#DejaVuSans-67"/>
      <use x="218.017578" xlink:href="#DejaVuSans-32"/>
      <use x="249.804688" xlink:href="#DejaVuSans-102"/>
      <use x="285.009766" xlink:href="#DejaVuSans-111"/>
      <use x="346.191406" xlink:href="#DejaVuSans-108"/>
      <use x="373.974609" xlink:href="#DejaVuSans-100"/>
      <use x="437.451172" xlink:href="#DejaVuSans-32"/>
      <use x="469.238281" xlink:href="#DejaVuSans-49"/>
      <use x="532.861328" xlink:href="#DejaVuSans-32"/>
      <use x="564.648438" xlink:href="#DejaVuSans-40"/>
      <use x="603.662109" xlink:href="#DejaVuSans-65"/>
      <use x="672.070312" xlink:href="#DejaVuSans-85"/>
      <use x="745.263672" xlink:href="#DejaVuSans-67"/>
      <use x="815.087891" xlink:href="#DejaVuSans-32"/>
      <use x="846.875" xlink:href="#DejaVuSans-61"/>
      <use x="930.664062" xlink:href="#DejaVuSans-32"/>
      <use x="962.451172" xlink:href="#DejaVuSans-48"/>
      <use x="1026.074219" xlink:href="#DejaVuSans-46"/>
      <use x="1057.861328" xlink:href="#DejaVuSans-56"/>
      <use x="1121.484375" xlink:href="#DejaVuSans-49"/>
      <use x="1185.107422" xlink:href="#DejaVuSans-41"/>
     </g>
    </g>
    <g id="line2d_22">
     <path d="M 406.68125 300.189687 
L 426.68125 300.189687 
" style="fill:none;stroke:#ff7f0e;stroke-linecap:square;stroke-opacity:0.3;"/>
    </g>
    <g id="line2d_23"/>
    <g id="text_17">
     <!-- ROC fold 2 (AUC = 0.90) -->
     <g transform="translate(434.68125 303.689687)scale(0.1 -0.1)">
      <defs>
       <path d="M 10.984375 1.515625 
L 10.984375 10.5 
Q 14.703125 8.734375 18.5 7.8125 
Q 22.3125 6.890625 25.984375 6.890625 
Q 35.75 6.890625 40.890625 13.453125 
Q 46.046875 20.015625 46.78125 33.40625 
Q 43.953125 29.203125 39.59375 26.953125 
Q 35.25 24.703125 29.984375 24.703125 
Q 19.046875 24.703125 12.671875 31.3125 
Q 6.296875 37.9375 6.296875 49.421875 
Q 6.296875 60.640625 12.9375 67.421875 
Q 19.578125 74.21875 30.609375 74.21875 
Q 43.265625 74.21875 49.921875 64.515625 
Q 56.59375 54.828125 56.59375 36.375 
Q 56.59375 19.140625 48.40625 8.859375 
Q 40.234375 -1.421875 26.421875 -1.421875 
Q 22.703125 -1.421875 18.890625 -0.6875 
Q 15.09375 0.046875 10.984375 1.515625 
z
M 30.609375 32.421875 
Q 37.25 32.421875 41.125 36.953125 
Q 45.015625 41.5 45.015625 49.421875 
Q 45.015625 57.28125 41.125 61.84375 
Q 37.25 66.40625 30.609375 66.40625 
Q 23.96875 66.40625 20.09375 61.84375 
Q 16.21875 57.28125 16.21875 49.421875 
Q 16.21875 41.5 20.09375 36.953125 
Q 23.96875 32.421875 30.609375 32.421875 
z
" id="DejaVuSans-57"/>
      </defs>
      <use xlink:href="#DejaVuSans-82"/>
      <use x="69.482422" xlink:href="#DejaVuSans-79"/>
      <use x="148.193359" xlink:href="#DejaVuSans-67"/>
      <use x="218.017578" xlink:href="#DejaVuSans-32"/>
      <use x="249.804688" xlink:href="#DejaVuSans-102"/>
      <use x="285.009766" xlink:href="#DejaVuSans-111"/>
      <use x="346.191406" xlink:href="#DejaVuSans-108"/>
      <use x="373.974609" xlink:href="#DejaVuSans-100"/>
      <use x="437.451172" xlink:href="#DejaVuSans-32"/>
      <use x="469.238281" xlink:href="#DejaVuSans-50"/>
      <use x="532.861328" xlink:href="#DejaVuSans-32"/>
      <use x="564.648438" xlink:href="#DejaVuSans-40"/>
      <use x="603.662109" xlink:href="#DejaVuSans-65"/>
      <use x="672.070312" xlink:href="#DejaVuSans-85"/>
      <use x="745.263672" xlink:href="#DejaVuSans-67"/>
      <use x="815.087891" xlink:href="#DejaVuSans-32"/>
      <use x="846.875" xlink:href="#DejaVuSans-61"/>
      <use x="930.664062" xlink:href="#DejaVuSans-32"/>
      <use x="962.451172" xlink:href="#DejaVuSans-48"/>
      <use x="1026.074219" xlink:href="#DejaVuSans-46"/>
      <use x="1057.861328" xlink:href="#DejaVuSans-57"/>
      <use x="1121.484375" xlink:href="#DejaVuSans-48"/>
      <use x="1185.107422" xlink:href="#DejaVuSans-41"/>
     </g>
    </g>
    <g id="line2d_24">
     <path d="M 406.68125 314.867812 
L 426.68125 314.867812 
" style="fill:none;stroke:#2ca02c;stroke-linecap:square;stroke-opacity:0.3;"/>
    </g>
    <g id="line2d_25"/>
    <g id="text_18">
     <!-- ROC fold 3 (AUC = 0.86) -->
     <g transform="translate(434.68125 318.367812)scale(0.1 -0.1)">
      <defs>
       <path d="M 40.578125 39.3125 
Q 47.65625 37.796875 51.625 33 
Q 55.609375 28.21875 55.609375 21.1875 
Q 55.609375 10.40625 48.1875 4.484375 
Q 40.765625 -1.421875 27.09375 -1.421875 
Q 22.515625 -1.421875 17.65625 -0.515625 
Q 12.796875 0.390625 7.625 2.203125 
L 7.625 11.71875 
Q 11.71875 9.328125 16.59375 8.109375 
Q 21.484375 6.890625 26.8125 6.890625 
Q 36.078125 6.890625 40.9375 10.546875 
Q 45.796875 14.203125 45.796875 21.1875 
Q 45.796875 27.640625 41.28125 31.265625 
Q 36.765625 34.90625 28.71875 34.90625 
L 20.21875 34.90625 
L 20.21875 43.015625 
L 29.109375 43.015625 
Q 36.375 43.015625 40.234375 45.921875 
Q 44.09375 48.828125 44.09375 54.296875 
Q 44.09375 59.90625 40.109375 62.90625 
Q 36.140625 65.921875 28.71875 65.921875 
Q 24.65625 65.921875 20.015625 65.03125 
Q 15.375 64.15625 9.8125 62.3125 
L 9.8125 71.09375 
Q 15.4375 72.65625 20.34375 73.4375 
Q 25.25 74.21875 29.59375 74.21875 
Q 40.828125 74.21875 47.359375 69.109375 
Q 53.90625 64.015625 53.90625 55.328125 
Q 53.90625 49.265625 50.4375 45.09375 
Q 46.96875 40.921875 40.578125 39.3125 
z
" id="DejaVuSans-51"/>
      </defs>
      <use xlink:href="#DejaVuSans-82"/>
      <use x="69.482422" xlink:href="#DejaVuSans-79"/>
      <use x="148.193359" xlink:href="#DejaVuSans-67"/>
      <use x="218.017578" xlink:href="#DejaVuSans-32"/>
      <use x="249.804688" xlink:href="#DejaVuSans-102"/>
      <use x="285.009766" xlink:href="#DejaVuSans-111"/>
      <use x="346.191406" xlink:href="#DejaVuSans-108"/>
      <use x="373.974609" xlink:href="#DejaVuSans-100"/>
      <use x="437.451172" xlink:href="#DejaVuSans-32"/>
      <use x="469.238281" xlink:href="#DejaVuSans-51"/>
      <use x="532.861328" xlink:href="#DejaVuSans-32"/>
      <use x="564.648438" xlink:href="#DejaVuSans-40"/>
      <use x="603.662109" xlink:href="#DejaVuSans-65"/>
      <use x="672.070312" xlink:href="#DejaVuSans-85"/>
      <use x="745.263672" xlink:href="#DejaVuSans-67"/>
      <use x="815.087891" xlink:href="#DejaVuSans-32"/>
      <use x="846.875" xlink:href="#DejaVuSans-61"/>
      <use x="930.664062" xlink:href="#DejaVuSans-32"/>
      <use x="962.451172" xlink:href="#DejaVuSans-48"/>
      <use x="1026.074219" xlink:href="#DejaVuSans-46"/>
      <use x="1057.861328" xlink:href="#DejaVuSans-56"/>
      <use x="1121.484375" xlink:href="#DejaVuSans-54"/>
      <use x="1185.107422" xlink:href="#DejaVuSans-41"/>
     </g>
    </g>
    <g id="line2d_26">
     <path d="M 406.68125 329.545937 
L 426.68125 329.545937 
" style="fill:none;stroke:#d62728;stroke-linecap:square;stroke-opacity:0.3;"/>
    </g>
    <g id="line2d_27"/>
    <g id="text_19">
     <!-- ROC fold 4 (AUC = 0.90) -->
     <g transform="translate(434.68125 333.045937)scale(0.1 -0.1)">
      <use xlink:href="#DejaVuSans-82"/>
      <use x="69.482422" xlink:href="#DejaVuSans-79"/>
      <use x="148.193359" xlink:href="#DejaVuSans-67"/>
      <use x="218.017578" xlink:href="#DejaVuSans-32"/>
      <use x="249.804688" xlink:href="#DejaVuSans-102"/>
      <use x="285.009766" xlink:href="#DejaVuSans-111"/>
      <use x="346.191406" xlink:href="#DejaVuSans-108"/>
      <use x="373.974609" xlink:href="#DejaVuSans-100"/>
      <use x="437.451172" xlink:href="#DejaVuSans-32"/>
      <use x="469.238281" xlink:href="#DejaVuSans-52"/>
      <use x="532.861328" xlink:href="#DejaVuSans-32"/>
      <use x="564.648438" xlink:href="#DejaVuSans-40"/>
      <use x="603.662109" xlink:href="#DejaVuSans-65"/>
      <use x="672.070312" xlink:href="#DejaVuSans-85"/>
      <use x="745.263672" xlink:href="#DejaVuSans-67"/>
      <use x="815.087891" xlink:href="#DejaVuSans-32"/>
      <use x="846.875" xlink:href="#DejaVuSans-61"/>
      <use x="930.664062" xlink:href="#DejaVuSans-32"/>
      <use x="962.451172" xlink:href="#DejaVuSans-48"/>
      <use x="1026.074219" xlink:href="#DejaVuSans-46"/>
      <use x="1057.861328" xlink:href="#DejaVuSans-57"/>
      <use x="1121.484375" xlink:href="#DejaVuSans-48"/>
      <use x="1185.107422" xlink:href="#DejaVuSans-41"/>
     </g>
    </g>
    <g id="line2d_28">
     <path d="M 406.68125 344.224062 
L 426.68125 344.224062 
" style="fill:none;stroke:#9467bd;stroke-linecap:square;stroke-opacity:0.3;"/>
    </g>
    <g id="line2d_29"/>
    <g id="text_20">
     <!-- ROC fold 5 (AUC = 0.87) -->
     <g transform="translate(434.68125 347.724062)scale(0.1 -0.1)">
      <defs>
       <path d="M 10.796875 72.90625 
L 49.515625 72.90625 
L 49.515625 64.59375 
L 19.828125 64.59375 
L 19.828125 46.734375 
Q 21.96875 47.46875 24.109375 47.828125 
Q 26.265625 48.1875 28.421875 48.1875 
Q 40.625 48.1875 47.75 41.5 
Q 54.890625 34.8125 54.890625 23.390625 
Q 54.890625 11.625 47.5625 5.09375 
Q 40.234375 -1.421875 26.90625 -1.421875 
Q 22.3125 -1.421875 17.546875 -0.640625 
Q 12.796875 0.140625 7.71875 1.703125 
L 7.71875 11.625 
Q 12.109375 9.234375 16.796875 8.0625 
Q 21.484375 6.890625 26.703125 6.890625 
Q 35.15625 6.890625 40.078125 11.328125 
Q 45.015625 15.765625 45.015625 23.390625 
Q 45.015625 31 40.078125 35.4375 
Q 35.15625 39.890625 26.703125 39.890625 
Q 22.75 39.890625 18.8125 39.015625 
Q 14.890625 38.140625 10.796875 36.28125 
z
" id="DejaVuSans-53"/>
       <path d="M 8.203125 72.90625 
L 55.078125 72.90625 
L 55.078125 68.703125 
L 28.609375 0 
L 18.3125 0 
L 43.21875 64.59375 
L 8.203125 64.59375 
z
" id="DejaVuSans-55"/>
      </defs>
      <use xlink:href="#DejaVuSans-82"/>
      <use x="69.482422" xlink:href="#DejaVuSans-79"/>
      <use x="148.193359" xlink:href="#DejaVuSans-67"/>
      <use x="218.017578" xlink:href="#DejaVuSans-32"/>
      <use x="249.804688" xlink:href="#DejaVuSans-102"/>
      <use x="285.009766" xlink:href="#DejaVuSans-111"/>
      <use x="346.191406" xlink:href="#DejaVuSans-108"/>
      <use x="373.974609" xlink:href="#DejaVuSans-100"/>
      <use x="437.451172" xlink:href="#DejaVuSans-32"/>
      <use x="469.238281" xlink:href="#DejaVuSans-53"/>
      <use x="532.861328" xlink:href="#DejaVuSans-32"/>
      <use x="564.648438" xlink:href="#DejaVuSans-40"/>
      <use x="603.662109" xlink:href="#DejaVuSans-65"/>
      <use x="672.070312" xlink:href="#DejaVuSans-85"/>
      <use x="745.263672" xlink:href="#DejaVuSans-67"/>
      <use x="815.087891" xlink:href="#DejaVuSans-32"/>
      <use x="846.875" xlink:href="#DejaVuSans-61"/>
      <use x="930.664062" xlink:href="#DejaVuSans-32"/>
      <use x="962.451172" xlink:href="#DejaVuSans-48"/>
      <use x="1026.074219" xlink:href="#DejaVuSans-46"/>
      <use x="1057.861328" xlink:href="#DejaVuSans-56"/>
      <use x="1121.484375" xlink:href="#DejaVuSans-55"/>
      <use x="1185.107422" xlink:href="#DejaVuSans-41"/>
     </g>
    </g>
    <g id="line2d_30">
     <path d="M 406.68125 358.902187 
L 426.68125 358.902187 
" style="fill:none;stroke:#ff0000;stroke-dasharray:7.4,3.2;stroke-dashoffset:0;stroke-opacity:0.8;stroke-width:2;"/>
    </g>
    <g id="line2d_31"/>
    <g id="text_21">
     <!-- Chance -->
     <g transform="translate(434.68125 362.402187)scale(0.1 -0.1)">
      <use xlink:href="#DejaVuSans-67"/>
      <use x="69.824219" xlink:href="#DejaVuSans-104"/>
      <use x="133.203125" xlink:href="#DejaVuSans-97"/>
      <use x="194.482422" xlink:href="#DejaVuSans-110"/>
      <use x="257.861328" xlink:href="#DejaVuSans-99"/>
      <use x="312.841797" xlink:href="#DejaVuSans-101"/>
     </g>
    </g>
    <g id="line2d_32">
     <path d="M 406.68125 373.580312 
L 426.68125 373.580312 
" style="fill:none;stroke:#0000ff;stroke-linecap:square;stroke-opacity:0.8;stroke-width:2;"/>
    </g>
    <g id="line2d_33"/>
    <g id="text_22">
     <!-- Mean ROC (AUC = 0.87 $\pm$ 0.03) -->
     <g transform="translate(434.68125 377.080312)scale(0.1 -0.1)">
      <defs>
       <path d="M 9.8125 72.90625 
L 24.515625 72.90625 
L 43.109375 23.296875 
L 61.8125 72.90625 
L 76.515625 72.90625 
L 76.515625 0 
L 66.890625 0 
L 66.890625 64.015625 
L 48.09375 14.015625 
L 38.1875 14.015625 
L 19.390625 64.015625 
L 19.390625 0 
L 9.8125 0 
z
" id="DejaVuSans-77"/>
       <path d="M 46 62.703125 
L 46 43.796875 
L 73.1875 43.796875 
L 73.1875 35.5 
L 46 35.5 
L 46 16.609375 
L 37.796875 16.609375 
L 37.796875 35.5 
L 10.59375 35.5 
L 10.59375 43.796875 
L 37.796875 43.796875 
L 37.796875 62.703125 
z
M 10.59375 8.296875 
L 73.1875 8.296875 
L 73.1875 0 
L 10.59375 0 
z
" id="DejaVuSans-177"/>
      </defs>
      <use transform="translate(0 0.125)" xlink:href="#DejaVuSans-77"/>
      <use transform="translate(86.279297 0.125)" xlink:href="#DejaVuSans-101"/>
      <use transform="translate(147.802734 0.125)" xlink:href="#DejaVuSans-97"/>
      <use transform="translate(209.082031 0.125)" xlink:href="#DejaVuSans-110"/>
      <use transform="translate(272.460938 0.125)" xlink:href="#DejaVuSans-32"/>
      <use transform="translate(304.248047 0.125)" xlink:href="#DejaVuSans-82"/>
      <use transform="translate(373.730469 0.125)" xlink:href="#DejaVuSans-79"/>
      <use transform="translate(452.441406 0.125)" xlink:href="#DejaVuSans-67"/>
      <use transform="translate(522.265625 0.125)" xlink:href="#DejaVuSans-32"/>
      <use transform="translate(554.052734 0.125)" xlink:href="#DejaVuSans-40"/>
      <use transform="translate(593.066406 0.125)" xlink:href="#DejaVuSans-65"/>
      <use transform="translate(661.474609 0.125)" xlink:href="#DejaVuSans-85"/>
      <use transform="translate(734.667969 0.125)" xlink:href="#DejaVuSans-67"/>
      <use transform="translate(804.492188 0.125)" xlink:href="#DejaVuSans-32"/>
      <use transform="translate(836.279297 0.125)" xlink:href="#DejaVuSans-61"/>
      <use transform="translate(920.068359 0.125)" xlink:href="#DejaVuSans-32"/>
      <use transform="translate(951.855469 0.125)" xlink:href="#DejaVuSans-48"/>
      <use transform="translate(1015.478516 0.125)" xlink:href="#DejaVuSans-46"/>
      <use transform="translate(1044.640625 0.125)" xlink:href="#DejaVuSans-56"/>
      <use transform="translate(1108.263672 0.125)" xlink:href="#DejaVuSans-55"/>
      <use transform="translate(1171.886719 0.125)" xlink:href="#DejaVuSans-32"/>
      <use transform="translate(1203.673828 0.125)" xlink:href="#DejaVuSans-177"/>
      <use transform="translate(1287.462891 0.125)" xlink:href="#DejaVuSans-32"/>
      <use transform="translate(1319.25 0.125)" xlink:href="#DejaVuSans-48"/>
      <use transform="translate(1382.873047 0.125)" xlink:href="#DejaVuSans-46"/>
      <use transform="translate(1414.660156 0.125)" xlink:href="#DejaVuSans-48"/>
      <use transform="translate(1478.283203 0.125)" xlink:href="#DejaVuSans-51"/>
      <use transform="translate(1541.90625 0.125)" xlink:href="#DejaVuSans-41"/>
     </g>
    </g>
    <g id="patch_8">
     <path d="M 406.68125 391.758437 
L 426.68125 391.758437 
L 426.68125 384.758437 
L 406.68125 384.758437 
z
" style="fill:#808080;opacity:0.2;stroke:#808080;stroke-linejoin:miter;"/>
    </g>
    <g id="text_23">
     <!-- $\pm$ 1 std. dev. -->
     <g transform="translate(434.68125 391.758437)scale(0.1 -0.1)">
      <use transform="translate(0 0.015625)" xlink:href="#DejaVuSans-177"/>
      <use transform="translate(83.789062 0.015625)" xlink:href="#DejaVuSans-32"/>
      <use transform="translate(115.576172 0.015625)" xlink:href="#DejaVuSans-49"/>
      <use transform="translate(179.199219 0.015625)" xlink:href="#DejaVuSans-32"/>
      <use transform="translate(210.986328 0.015625)" xlink:href="#DejaVuSans-115"/>
      <use transform="translate(263.085938 0.015625)" xlink:href="#DejaVuSans-116"/>
      <use transform="translate(302.294922 0.015625)" xlink:href="#DejaVuSans-100"/>
      <use transform="translate(365.771484 0.015625)" xlink:href="#DejaVuSans-46"/>
      <use transform="translate(397.558594 0.015625)" xlink:href="#DejaVuSans-32"/>
      <use transform="translate(429.345703 0.015625)" xlink:href="#DejaVuSans-100"/>
      <use transform="translate(492.822266 0.015625)" xlink:href="#DejaVuSans-101"/>
      <use transform="translate(554.345703 0.015625)" xlink:href="#DejaVuSans-118"/>
      <use transform="translate(613.525391 0.015625)" xlink:href="#DejaVuSans-46"/>
     </g>
    </g>
   </g>
  </g>
 </g>
 <defs>
  <clipPath id="pc6a43a36dc">
   <rect height="380.52" width="558" x="43.78125" y="22.318125"/>
  </clipPath>
 </defs>
</svg>