<?xml version="1.0" encoding="utf-8" standalone="no"?>
<!DOCTYPE svg PUBLIC "-//W3C//DTD SVG 1.1//EN"
  "http://www.w3.org/Graphics/SVG/1.1/DTD/svg11.dtd">
<!-- Created with matplotlib (https://matplotlib.org/) -->
<svg height="1080pt" version="1.1" viewBox="0 0 720 1080" width="720pt" xmlns="http://www.w3.org/2000/svg" xmlns:xlink="http://www.w3.org/1999/xlink">
 <defs>
  <style type="text/css">
*{stroke-linecap:butt;stroke-linejoin:round;}
  </style>
 </defs>
 <g id="figure_1">
  <g id="patch_1">
   <path d="M 0 1080 
L 720 1080 
L 720 0 
L 0 0 
z
" style="fill:#d3d3d3;"/>
  </g>
  <g id="axes_1">
   <g id="patch_2">
    <path d="M 63.125 313.7 
L 709.2 313.7 
L 709.2 31.8 
L 63.125 31.8 
z
" style="fill:#ffffff;"/>
   </g>
   <g id="matplotlib.axis_1">
    <g id="xtick_1">
     <g id="line2d_1">
      <path clip-path="url(#p0f295eb602)" d="M 92.48587 313.7 
L 92.48587 31.8 
" style="fill:none;stroke:#ffffff;"/>
     </g>
     <g id="line2d_2"/>
     <g id="text_1">
      <!-- 0 -->
      <defs>
       <path d="M 51.703125 34.421875 
Q 51.703125 24.515625 49.828125 17.75 
Q 47.953125 10.984375 44.703125 6.8125 
Q 41.453125 2.640625 37.0625 0.828125 
Q 32.671875 -0.984375 27.6875 -0.984375 
Q 22.65625 -0.984375 18.3125 0.828125 
Q 13.96875 2.640625 10.765625 6.78125 
Q 7.5625 10.9375 5.734375 17.703125 
Q 3.90625 24.46875 3.90625 34.421875 
Q 3.90625 44.828125 5.734375 51.640625 
Q 7.5625 58.453125 10.78125 62.5 
Q 14.015625 66.546875 18.40625 68.1875 
Q 22.796875 69.828125 27.984375 69.828125 
Q 32.90625 69.828125 37.21875 68.1875 
Q 41.546875 66.546875 44.765625 62.5 
Q 48 58.453125 49.84375 51.640625 
Q 51.703125 44.828125 51.703125 34.421875 
z
M 42.78125 34.421875 
Q 42.78125 42.625 41.796875 48.0625 
Q 40.828125 53.515625 38.921875 56.765625 
Q 37.015625 60.015625 34.25 61.359375 
Q 31.5 62.703125 27.984375 62.703125 
Q 24.265625 62.703125 21.4375 61.328125 
Q 18.609375 59.96875 16.671875 56.71875 
Q 14.75 53.46875 13.765625 48.015625 
Q 12.796875 42.578125 12.796875 34.421875 
Q 12.796875 26.515625 13.796875 21.09375 
Q 14.796875 15.671875 16.71875 12.375 
Q 18.65625 9.078125 21.4375 7.640625 
Q 24.21875 6.203125 27.78125 6.203125 
Q 31.25 6.203125 34.03125 7.640625 
Q 36.8125 9.078125 38.734375 12.375 
Q 40.671875 15.671875 41.71875 21.09375 
Q 42.78125 26.515625 42.78125 34.421875 
z
" id="LiberationSans-48"/>
      </defs>
      <g style="fill:#555555;" transform="translate(89.705402 327.946875)scale(0.1 -0.1)">
       <use xlink:href="#LiberationSans-48"/>
      </g>
     </g>
    </g>
    <g id="xtick_2">
     <g id="line2d_3">
      <path clip-path="url(#p0f295eb602)" d="M 220.170019 313.7 
L 220.170019 31.8 
" style="fill:none;stroke:#ffffff;"/>
     </g>
     <g id="line2d_4"/>
     <g id="text_2">
      <!-- 5 -->
      <defs>
       <path d="M 51.421875 22.40625 
Q 51.421875 17.234375 49.859375 12.9375 
Q 48.296875 8.640625 45.21875 5.53125 
Q 42.140625 2.4375 37.578125 0.71875 
Q 33.015625 -0.984375 27 -0.984375 
Q 21.578125 -0.984375 17.546875 0.28125 
Q 13.53125 1.5625 10.734375 3.78125 
Q 7.953125 6 6.3125 8.984375 
Q 4.6875 11.96875 4 15.375 
L 12.890625 16.40625 
Q 13.421875 14.453125 14.390625 12.625 
Q 15.375 10.796875 17.0625 9.34375 
Q 18.75 7.90625 21.21875 7.046875 
Q 23.6875 6.203125 27.203125 6.203125 
Q 30.609375 6.203125 33.390625 7.25 
Q 36.1875 8.296875 38.15625 10.34375 
Q 40.140625 12.40625 41.203125 15.375 
Q 42.28125 18.359375 42.28125 22.21875 
Q 42.28125 25.390625 41.25 28.046875 
Q 40.234375 30.71875 38.328125 32.640625 
Q 36.421875 34.578125 33.65625 35.640625 
Q 30.90625 36.71875 27.390625 36.71875 
Q 25.203125 36.71875 23.34375 36.328125 
Q 21.484375 35.9375 19.890625 35.25 
Q 18.3125 34.578125 17.015625 33.671875 
Q 15.71875 32.765625 14.59375 31.78125 
L 6 31.78125 
L 8.296875 68.796875 
L 47.40625 68.796875 
L 47.40625 61.328125 
L 16.3125 61.328125 
L 14.984375 39.5 
Q 17.328125 41.3125 20.84375 42.59375 
Q 24.359375 43.890625 29.203125 43.890625 
Q 34.328125 43.890625 38.421875 42.328125 
Q 42.53125 40.765625 45.40625 37.90625 
Q 48.296875 35.0625 49.859375 31.109375 
Q 51.421875 27.15625 51.421875 22.40625 
z
" id="LiberationSans-53"/>
      </defs>
      <g style="fill:#555555;" transform="translate(217.38955 327.946875)scale(0.1 -0.1)">
       <use xlink:href="#LiberationSans-53"/>
      </g>
     </g>
    </g>
    <g id="xtick_3">
     <g id="line2d_5">
      <path clip-path="url(#p0f295eb602)" d="M 347.854168 313.7 
L 347.854168 31.8 
" style="fill:none;stroke:#ffffff;"/>
     </g>
     <g id="line2d_6"/>
     <g id="text_3">
      <!-- 10 -->
      <defs>
       <path d="M 7.625 0 
L 7.625 7.46875 
L 25.140625 7.46875 
L 25.140625 60.40625 
L 9.625 49.3125 
L 9.625 57.625 
L 25.875 68.796875 
L 33.984375 68.796875 
L 33.984375 7.46875 
L 50.734375 7.46875 
L 50.734375 0 
z
" id="LiberationSans-49"/>
      </defs>
      <g style="fill:#555555;" transform="translate(342.29323 327.946875)scale(0.1 -0.1)">
       <use xlink:href="#LiberationSans-49"/>
       <use x="55.615234" xlink:href="#LiberationSans-48"/>
      </g>
     </g>
    </g>
    <g id="xtick_4">
     <g id="line2d_7">
      <path clip-path="url(#p0f295eb602)" d="M 475.538317 313.7 
L 475.538317 31.8 
" style="fill:none;stroke:#ffffff;"/>
     </g>
     <g id="line2d_8"/>
     <g id="text_4">
      <!-- 15 -->
      <g style="fill:#555555;" transform="translate(469.977379 327.946875)scale(0.1 -0.1)">
       <use xlink:href="#LiberationSans-49"/>
       <use x="55.615234" xlink:href="#LiberationSans-53"/>
      </g>
     </g>
    </g>
    <g id="xtick_5">
     <g id="line2d_9">
      <path clip-path="url(#p0f295eb602)" d="M 603.222465 313.7 
L 603.222465 31.8 
" style="fill:none;stroke:#ffffff;"/>
     </g>
     <g id="line2d_10"/>
     <g id="text_5">
      <!-- 20 -->
      <defs>
       <path d="M 5.03125 0 
L 5.03125 6.203125 
Q 7.515625 11.921875 11.109375 16.28125 
Q 14.703125 20.65625 18.65625 24.1875 
Q 22.609375 27.734375 26.484375 30.765625 
Q 30.375 33.796875 33.5 36.8125 
Q 36.625 39.84375 38.546875 43.15625 
Q 40.484375 46.484375 40.484375 50.6875 
Q 40.484375 53.609375 39.59375 55.828125 
Q 38.71875 58.0625 37.0625 59.5625 
Q 35.40625 61.078125 33.078125 61.828125 
Q 30.765625 62.59375 27.9375 62.59375 
Q 25.296875 62.59375 22.96875 61.859375 
Q 20.65625 61.140625 18.84375 59.671875 
Q 17.046875 58.203125 15.890625 56.03125 
Q 14.75 53.859375 14.40625 50.984375 
L 5.421875 51.8125 
Q 5.859375 55.515625 7.46875 58.78125 
Q 9.078125 62.0625 11.90625 64.53125 
Q 14.75 67 18.71875 68.40625 
Q 22.703125 69.828125 27.9375 69.828125 
Q 33.0625 69.828125 37.0625 68.609375 
Q 41.0625 67.390625 43.8125 64.984375 
Q 46.578125 62.59375 48.046875 59.078125 
Q 49.515625 55.5625 49.515625 50.984375 
Q 49.515625 47.515625 48.265625 44.390625 
Q 47.015625 41.265625 44.9375 38.421875 
Q 42.875 35.59375 40.140625 32.953125 
Q 37.40625 30.328125 34.421875 27.8125 
Q 31.453125 25.296875 28.421875 22.828125 
Q 25.390625 20.359375 22.71875 17.859375 
Q 20.0625 15.375 17.96875 12.8125 
Q 15.875 10.25 14.703125 7.46875 
L 50.59375 7.46875 
L 50.59375 0 
z
" id="LiberationSans-50"/>
      </defs>
      <g style="fill:#555555;" transform="translate(597.661528 327.946875)scale(0.1 -0.1)">
       <use xlink:href="#LiberationSans-50"/>
       <use x="55.615234" xlink:href="#LiberationSans-48"/>
      </g>
     </g>
    </g>
    <g id="text_6">
     <!-- $\chi^2$ statistic -->
     <defs>
      <path d="M 30.03125 -12.203125 
L 26.421875 6.5 
L 6.15625 -20.84375 
L -4.4375 -20.84375 
L 24.265625 17.828125 
L 19.828125 40.828125 
Q 18.65625 46.96875 11.140625 46.96875 
L 8.734375 46.96875 
L 10.203125 54.6875 
L 13.625 54.59375 
Q 26.171875 54.25 27.734375 46.09375 
L 31.34375 27.390625 
L 51.609375 54.734375 
L 62.203125 54.734375 
L 33.5 16.0625 
L 37.9375 -6.9375 
Q 39.109375 -13.09375 46.625 -13.09375 
L 49.03125 -13.09375 
L 47.5625 -20.796875 
L 44.140625 -20.703125 
Q 31.59375 -20.359375 30.03125 -12.203125 
z
" id="DejaVuSans-Oblique-967"/>
      <path d="M 19.1875 8.296875 
L 53.609375 8.296875 
L 53.609375 0 
L 7.328125 0 
L 7.328125 8.296875 
Q 12.9375 14.109375 22.625 23.890625 
Q 32.328125 33.6875 34.8125 36.53125 
Q 39.546875 41.84375 41.421875 45.53125 
Q 43.3125 49.21875 43.3125 52.78125 
Q 43.3125 58.59375 39.234375 62.25 
Q 35.15625 65.921875 28.609375 65.921875 
Q 23.96875 65.921875 18.8125 64.3125 
Q 13.671875 62.703125 7.8125 59.421875 
L 7.8125 69.390625 
Q 13.765625 71.78125 18.9375 73 
Q 24.125 74.21875 28.421875 74.21875 
Q 39.75 74.21875 46.484375 68.546875 
Q 53.21875 62.890625 53.21875 53.421875 
Q 53.21875 48.921875 51.53125 44.890625 
Q 49.859375 40.875 45.40625 35.40625 
Q 44.1875 33.984375 37.640625 27.21875 
Q 31.109375 20.453125 19.1875 8.296875 
z
" id="DejaVuSans-50"/>
      <path id="LiberationSans-32"/>
      <path d="M 46.390625 14.59375 
Q 46.390625 10.890625 44.9375 7.984375 
Q 43.5 5.078125 40.765625 3.09375 
Q 38.03125 1.125 34.046875 0.0625 
Q 30.078125 -0.984375 24.953125 -0.984375 
Q 20.359375 -0.984375 16.671875 -0.265625 
Q 12.984375 0.4375 10.203125 2 
Q 7.421875 3.5625 5.53125 6.125 
Q 3.65625 8.6875 2.78125 12.40625 
L 10.546875 13.921875 
Q 11.671875 9.671875 15.1875 7.6875 
Q 18.703125 5.71875 24.953125 5.71875 
Q 27.78125 5.71875 30.140625 6.109375 
Q 32.515625 6.5 34.21875 7.453125 
Q 35.9375 8.40625 36.890625 9.984375 
Q 37.84375 11.578125 37.84375 13.921875 
Q 37.84375 16.3125 36.71875 17.84375 
Q 35.59375 19.390625 33.59375 20.40625 
Q 31.59375 21.4375 28.734375 22.1875 
Q 25.875 22.953125 22.46875 23.875 
Q 19.28125 24.703125 16.15625 25.734375 
Q 13.03125 26.765625 10.515625 28.4375 
Q 8.015625 30.125 6.453125 32.609375 
Q 4.890625 35.109375 4.890625 38.875 
Q 4.890625 46.09375 10.03125 49.875 
Q 15.1875 53.65625 25.046875 53.65625 
Q 33.796875 53.65625 38.9375 50.578125 
Q 44.09375 47.515625 45.453125 40.71875 
L 37.546875 39.75 
Q 37.109375 41.796875 35.9375 43.1875 
Q 34.765625 44.578125 33.109375 45.4375 
Q 31.453125 46.296875 29.375 46.65625 
Q 27.296875 47.015625 25.046875 47.015625 
Q 19.09375 47.015625 16.25 45.203125 
Q 13.421875 43.40625 13.421875 39.75 
Q 13.421875 37.59375 14.46875 36.203125 
Q 15.53125 34.8125 17.40625 33.859375 
Q 19.28125 32.90625 21.921875 32.203125 
Q 24.5625 31.5 27.734375 30.71875 
Q 29.828125 30.171875 32.03125 29.5625 
Q 34.234375 28.953125 36.296875 28.09375 
Q 38.375 27.25 40.203125 26.09375 
Q 42.046875 24.953125 43.40625 23.34375 
Q 44.78125 21.734375 45.578125 19.578125 
Q 46.390625 17.4375 46.390625 14.59375 
z
" id="LiberationSans-115"/>
      <path d="M 27.046875 0.390625 
Q 25.046875 -0.140625 22.96875 -0.453125 
Q 20.90625 -0.78125 18.171875 -0.78125 
Q 7.625 -0.78125 7.625 11.1875 
L 7.625 46.4375 
L 1.515625 46.4375 
L 1.515625 52.828125 
L 7.953125 52.828125 
L 10.546875 64.65625 
L 16.40625 64.65625 
L 16.40625 52.828125 
L 26.171875 52.828125 
L 26.171875 46.4375 
L 16.40625 46.4375 
L 16.40625 13.09375 
Q 16.40625 9.28125 17.640625 7.734375 
Q 18.890625 6.203125 21.96875 6.203125 
Q 23.25 6.203125 24.4375 6.390625 
Q 25.640625 6.59375 27.046875 6.890625 
z
" id="LiberationSans-116"/>
      <path d="M 20.21875 -0.984375 
Q 12.25 -0.984375 8.25 3.21875 
Q 4.25 7.421875 4.25 14.75 
Q 4.25 19.96875 6.21875 23.3125 
Q 8.203125 26.65625 11.390625 28.5625 
Q 14.59375 30.46875 18.6875 31.203125 
Q 22.796875 31.9375 27.046875 32.03125 
L 38.921875 32.234375 
L 38.921875 35.109375 
Q 38.921875 38.375 38.234375 40.671875 
Q 37.546875 42.96875 36.125 44.375 
Q 34.71875 45.796875 32.59375 46.453125 
Q 30.46875 47.125 27.59375 47.125 
Q 25.046875 47.125 23 46.75 
Q 20.953125 46.390625 19.4375 45.4375 
Q 17.921875 44.484375 16.984375 42.84375 
Q 16.0625 41.21875 15.765625 38.71875 
L 6.59375 39.546875 
Q 7.078125 42.671875 8.4375 45.28125 
Q 9.8125 47.90625 12.328125 49.796875 
Q 14.84375 51.703125 18.625 52.75 
Q 22.40625 53.8125 27.78125 53.8125 
Q 37.75 53.8125 42.765625 49.234375 
Q 47.796875 44.671875 47.796875 36.03125 
L 47.796875 13.28125 
Q 47.796875 9.375 48.828125 7.390625 
Q 49.859375 5.421875 52.734375 5.421875 
Q 53.46875 5.421875 54.203125 5.515625 
Q 54.9375 5.609375 55.609375 5.765625 
L 55.609375 0.296875 
Q 53.953125 -0.09375 52.3125 -0.28125 
Q 50.6875 -0.484375 48.828125 -0.484375 
Q 46.34375 -0.484375 44.5625 0.171875 
Q 42.78125 0.828125 41.65625 2.171875 
Q 40.53125 3.515625 39.9375 5.484375 
Q 39.359375 7.46875 39.203125 10.109375 
L 38.921875 10.109375 
Q 37.5 7.5625 35.8125 5.515625 
Q 34.125 3.46875 31.875 2.03125 
Q 29.640625 0.59375 26.78125 -0.1875 
Q 23.921875 -0.984375 20.21875 -0.984375 
z
M 22.21875 5.609375 
Q 26.421875 5.609375 29.5625 7.140625 
Q 32.71875 8.6875 34.78125 11.078125 
Q 36.859375 13.484375 37.890625 16.3125 
Q 38.921875 19.140625 38.921875 21.734375 
L 38.921875 26.078125 
L 29.296875 25.875 
Q 26.078125 25.828125 23.171875 25.40625 
Q 20.265625 25 18.0625 23.78125 
Q 15.875 22.5625 14.578125 20.359375 
Q 13.28125 18.171875 13.28125 14.59375 
Q 13.28125 10.296875 15.59375 7.953125 
Q 17.921875 5.609375 22.21875 5.609375 
z
" id="LiberationSans-97"/>
      <path d="M 6.6875 64.0625 
L 6.6875 72.46875 
L 15.484375 72.46875 
L 15.484375 64.0625 
z
M 6.6875 0 
L 6.6875 52.828125 
L 15.484375 52.828125 
L 15.484375 0 
z
" id="LiberationSans-105"/>
      <path d="M 13.421875 26.65625 
Q 13.421875 22.125 14.078125 18.3125 
Q 14.75 14.5 16.3125 11.734375 
Q 17.875 8.984375 20.4375 7.46875 
Q 23 5.953125 26.765625 5.953125 
Q 31.453125 5.953125 34.59375 8.484375 
Q 37.75 11.03125 38.484375 16.3125 
L 47.359375 15.71875 
Q 46.921875 12.453125 45.453125 9.421875 
Q 44 6.390625 41.484375 4.09375 
Q 38.96875 1.8125 35.34375 0.40625 
Q 31.734375 -0.984375 27 -0.984375 
Q 20.796875 -0.984375 16.453125 1.109375 
Q 12.109375 3.21875 9.390625 6.90625 
Q 6.6875 10.59375 5.46875 15.59375 
Q 4.25 20.609375 4.25 26.46875 
Q 4.25 31.78125 5.125 35.859375 
Q 6 39.9375 7.59375 42.984375 
Q 9.1875 46.046875 11.328125 48.125 
Q 13.484375 50.203125 15.984375 51.4375 
Q 18.5 52.6875 21.28125 53.25 
Q 24.078125 53.8125 26.90625 53.8125 
Q 31.34375 53.8125 34.8125 52.59375 
Q 38.28125 51.375 40.796875 49.25 
Q 43.3125 47.125 44.875 44.234375 
Q 46.4375 41.359375 47.078125 38.03125 
L 38.03125 37.359375 
Q 37.359375 41.75 34.5625 44.328125 
Q 31.78125 46.921875 26.65625 46.921875 
Q 22.90625 46.921875 20.390625 45.671875 
Q 17.875 44.4375 16.3125 41.921875 
Q 14.75 39.40625 14.078125 35.59375 
Q 13.421875 31.78125 13.421875 26.65625 
z
" id="LiberationSans-99"/>
     </defs>
     <g style="fill:#555555;" transform="translate(348.3225 348.581875)scale(0.16 -0.16)">
      <use transform="translate(0 0.765625)" xlink:href="#DejaVuSans-Oblique-967"/>
      <use transform="translate(63.652396 39.046875)scale(0.7)" xlink:href="#DejaVuSans-50"/>
      <use transform="translate(110.922904 0.765625)" xlink:href="#LiberationSans-32"/>
      <use transform="translate(138.706107 0.765625)" xlink:href="#LiberationSans-115"/>
      <use transform="translate(188.706107 0.765625)" xlink:href="#LiberationSans-116"/>
      <use transform="translate(216.48931 0.765625)" xlink:href="#LiberationSans-97"/>
      <use transform="translate(272.104544 0.765625)" xlink:href="#LiberationSans-116"/>
      <use transform="translate(299.887747 0.765625)" xlink:href="#LiberationSans-105"/>
      <use transform="translate(322.104544 0.765625)" xlink:href="#LiberationSans-115"/>
      <use transform="translate(372.104544 0.765625)" xlink:href="#LiberationSans-116"/>
      <use transform="translate(399.887747 0.765625)" xlink:href="#LiberationSans-105"/>
      <use transform="translate(422.104544 0.765625)" xlink:href="#LiberationSans-99"/>
     </g>
    </g>
   </g>
   <g id="matplotlib.axis_2">
    <g id="ytick_1">
     <g id="line2d_11">
      <path clip-path="url(#p0f295eb602)" d="M 63.125 300.886364 
L 709.2 300.886364 
" style="fill:none;stroke:#ffffff;"/>
     </g>
     <g id="line2d_12"/>
     <g id="text_7">
      <!-- 0.00 -->
      <defs>
       <path d="M 9.125 0 
L 9.125 10.6875 
L 18.65625 10.6875 
L 18.65625 0 
z
" id="LiberationSans-46"/>
      </defs>
      <g style="fill:#555555;" transform="translate(36.664062 304.509801)scale(0.1 -0.1)">
       <use xlink:href="#LiberationSans-48"/>
       <use x="55.615234" xlink:href="#LiberationSans-46"/>
       <use x="83.398438" xlink:href="#LiberationSans-48"/>
       <use x="139.013672" xlink:href="#LiberationSans-48"/>
      </g>
     </g>
    </g>
    <g id="ytick_2">
     <g id="line2d_13">
      <path clip-path="url(#p0f295eb602)" d="M 63.125 247.929773 
L 709.2 247.929773 
" style="fill:none;stroke:#ffffff;"/>
     </g>
     <g id="line2d_14"/>
     <g id="text_8">
      <!-- 0.05 -->
      <g style="fill:#555555;" transform="translate(36.664062 251.55321)scale(0.1 -0.1)">
       <use xlink:href="#LiberationSans-48"/>
       <use x="55.615234" xlink:href="#LiberationSans-46"/>
       <use x="83.398438" xlink:href="#LiberationSans-48"/>
       <use x="139.013672" xlink:href="#LiberationSans-53"/>
      </g>
     </g>
    </g>
    <g id="ytick_3">
     <g id="line2d_15">
      <path clip-path="url(#p0f295eb602)" d="M 63.125 194.973182 
L 709.2 194.973182 
" style="fill:none;stroke:#ffffff;"/>
     </g>
     <g id="line2d_16"/>
     <g id="text_9">
      <!-- 0.10 -->
      <g style="fill:#555555;" transform="translate(36.664062 198.596619)scale(0.1 -0.1)">
       <use xlink:href="#LiberationSans-48"/>
       <use x="55.615234" xlink:href="#LiberationSans-46"/>
       <use x="83.398438" xlink:href="#LiberationSans-49"/>
       <use x="139.013672" xlink:href="#LiberationSans-48"/>
      </g>
     </g>
    </g>
    <g id="ytick_4">
     <g id="line2d_17">
      <path clip-path="url(#p0f295eb602)" d="M 63.125 142.016591 
L 709.2 142.016591 
" style="fill:none;stroke:#ffffff;"/>
     </g>
     <g id="line2d_18"/>
     <g id="text_10">
      <!-- 0.15 -->
      <g style="fill:#555555;" transform="translate(36.664062 145.640028)scale(0.1 -0.1)">
       <use xlink:href="#LiberationSans-48"/>
       <use x="55.615234" xlink:href="#LiberationSans-46"/>
       <use x="83.398438" xlink:href="#LiberationSans-49"/>
       <use x="139.013672" xlink:href="#LiberationSans-53"/>
      </g>
     </g>
    </g>
    <g id="ytick_5">
     <g id="line2d_19">
      <path clip-path="url(#p0f295eb602)" d="M 63.125 89.06 
L 709.2 89.06 
" style="fill:none;stroke:#ffffff;"/>
     </g>
     <g id="line2d_20"/>
     <g id="text_11">
      <!-- 0.20 -->
      <g style="fill:#555555;" transform="translate(36.664062 92.683437)scale(0.1 -0.1)">
       <use xlink:href="#LiberationSans-48"/>
       <use x="55.615234" xlink:href="#LiberationSans-46"/>
       <use x="83.398438" xlink:href="#LiberationSans-50"/>
       <use x="139.013672" xlink:href="#LiberationSans-48"/>
      </g>
     </g>
    </g>
    <g id="ytick_6">
     <g id="line2d_21">
      <path clip-path="url(#p0f295eb602)" d="M 63.125 36.103409 
L 709.2 36.103409 
" style="fill:none;stroke:#ffffff;"/>
     </g>
     <g id="line2d_22"/>
     <g id="text_12">
      <!-- 0.25 -->
      <g style="fill:#555555;" transform="translate(36.664062 39.726846)scale(0.1 -0.1)">
       <use xlink:href="#LiberationSans-48"/>
       <use x="55.615234" xlink:href="#LiberationSans-46"/>
       <use x="83.398438" xlink:href="#LiberationSans-50"/>
       <use x="139.013672" xlink:href="#LiberationSans-53"/>
      </g>
     </g>
    </g>
    <g id="text_13">
     <!-- $\chi^2$ pdf -->
     <defs>
      <path d="M 51.421875 26.65625 
Q 51.421875 20.65625 50.4375 15.578125 
Q 49.46875 10.5 47.1875 6.828125 
Q 44.921875 3.171875 41.1875 1.09375 
Q 37.453125 -0.984375 31.984375 -0.984375 
Q 26.3125 -0.984375 22.0625 1.171875 
Q 17.828125 3.328125 15.578125 8.203125 
L 15.328125 8.203125 
Q 15.375 8.109375 15.40625 7.328125 
Q 15.4375 6.546875 15.453125 5.375 
Q 15.484375 4.203125 15.5 2.75 
Q 15.53125 1.3125 15.53125 -0.09375 
L 15.53125 -20.75 
L 6.734375 -20.75 
L 6.734375 42.046875 
Q 6.734375 43.953125 6.703125 45.703125 
Q 6.6875 47.46875 6.640625 48.90625 
Q 6.59375 50.34375 6.546875 51.359375 
Q 6.5 52.390625 6.453125 52.828125 
L 14.9375 52.828125 
Q 14.984375 52.6875 15.0625 51.796875 
Q 15.140625 50.921875 15.203125 49.671875 
Q 15.28125 48.4375 15.359375 47.015625 
Q 15.4375 45.609375 15.4375 44.34375 
L 15.625 44.34375 
Q 16.84375 46.875 18.40625 48.65625 
Q 19.96875 50.4375 21.96875 51.578125 
Q 23.96875 52.734375 26.4375 53.25 
Q 28.90625 53.765625 31.984375 53.765625 
Q 37.453125 53.765625 41.1875 51.8125 
Q 44.921875 49.859375 47.1875 46.3125 
Q 49.46875 42.78125 50.4375 37.765625 
Q 51.421875 32.765625 51.421875 26.65625 
z
M 42.1875 26.46875 
Q 42.1875 31.34375 41.59375 35.15625 
Q 41.015625 38.96875 39.578125 41.59375 
Q 38.140625 44.234375 35.734375 45.59375 
Q 33.34375 46.96875 29.734375 46.96875 
Q 26.8125 46.96875 24.21875 46.140625 
Q 21.625 45.3125 19.703125 42.96875 
Q 17.78125 40.625 16.65625 36.5 
Q 15.53125 32.375 15.53125 25.78125 
Q 15.53125 20.171875 16.453125 16.28125 
Q 17.390625 12.40625 19.171875 10.015625 
Q 20.953125 7.625 23.578125 6.5625 
Q 26.21875 5.515625 29.640625 5.515625 
Q 33.296875 5.515625 35.71875 6.921875 
Q 38.140625 8.34375 39.578125 11.03125 
Q 41.015625 13.71875 41.59375 17.59375 
Q 42.1875 21.484375 42.1875 26.46875 
z
" id="LiberationSans-112"/>
      <path d="M 40.09375 8.5 
Q 37.640625 3.421875 33.609375 1.21875 
Q 29.59375 -0.984375 23.640625 -0.984375 
Q 13.625 -0.984375 8.90625 5.75 
Q 4.203125 12.5 4.203125 26.171875 
Q 4.203125 53.8125 23.640625 53.8125 
Q 29.640625 53.8125 33.640625 51.609375 
Q 37.640625 49.421875 40.09375 44.625 
L 40.1875 44.625 
Q 40.1875 45.125 40.15625 46.171875 
Q 40.140625 47.21875 40.109375 48.359375 
Q 40.09375 49.515625 40.09375 50.53125 
Q 40.09375 51.5625 40.09375 52 
L 40.09375 72.46875 
L 48.875 72.46875 
L 48.875 10.890625 
Q 48.875 8.984375 48.890625 7.21875 
Q 48.921875 5.46875 48.96875 4 
Q 49.03125 2.546875 49.078125 1.484375 
Q 49.125 0.4375 49.171875 0 
L 40.765625 0 
Q 40.671875 0.484375 40.59375 1.390625 
Q 40.53125 2.296875 40.453125 3.46875 
Q 40.375 4.640625 40.328125 5.9375 
Q 40.28125 7.234375 40.28125 8.5 
z
M 13.421875 26.46875 
Q 13.421875 21 14.109375 17.09375 
Q 14.796875 13.1875 16.3125 10.671875 
Q 17.828125 8.15625 20.171875 6.984375 
Q 22.515625 5.8125 25.875 5.8125 
Q 29.34375 5.8125 32 6.9375 
Q 34.671875 8.0625 36.453125 10.578125 
Q 38.234375 13.09375 39.15625 17.140625 
Q 40.09375 21.1875 40.09375 27.046875 
Q 40.09375 32.671875 39.15625 36.546875 
Q 38.234375 40.4375 36.421875 42.828125 
Q 34.625 45.21875 32 46.265625 
Q 29.390625 47.3125 25.984375 47.3125 
Q 22.75 47.3125 20.40625 46.1875 
Q 18.0625 45.0625 16.5 42.578125 
Q 14.9375 40.09375 14.171875 36.109375 
Q 13.421875 32.125 13.421875 26.46875 
z
" id="LiberationSans-100"/>
      <path d="M 17.625 46.4375 
L 17.625 0 
L 8.84375 0 
L 8.84375 46.4375 
L 1.421875 46.4375 
L 1.421875 52.828125 
L 8.84375 52.828125 
L 8.84375 58.796875 
Q 8.84375 61.671875 9.375 64.140625 
Q 9.90625 66.609375 11.34375 68.4375 
Q 12.796875 70.265625 15.28125 71.3125 
Q 17.78125 72.359375 21.734375 72.359375 
Q 23.296875 72.359375 24.96875 72.21875 
Q 26.65625 72.078125 27.9375 71.78125 
L 27.9375 65.09375 
Q 27.09375 65.234375 26 65.359375 
Q 24.90625 65.484375 24.03125 65.484375 
Q 22.078125 65.484375 20.828125 64.9375 
Q 19.578125 64.40625 18.875 63.40625 
Q 18.171875 62.40625 17.890625 60.9375 
Q 17.625 59.46875 17.625 57.5625 
L 17.625 52.828125 
L 27.9375 52.828125 
L 27.9375 46.4375 
z
" id="LiberationSans-102"/>
     </defs>
     <g style="fill:#555555;" transform="translate(29.304062 194.99)rotate(-90)scale(0.16 -0.16)">
      <use transform="translate(0 0.765625)" xlink:href="#DejaVuSans-Oblique-967"/>
      <use transform="translate(63.652396 39.046875)scale(0.7)" xlink:href="#DejaVuSans-50"/>
      <use transform="translate(110.922904 0.765625)" xlink:href="#LiberationSans-32"/>
      <use transform="translate(138.706107 0.765625)" xlink:href="#LiberationSans-112"/>
      <use transform="translate(194.321341 0.765625)" xlink:href="#LiberationSans-100"/>
      <use transform="translate(249.936576 0.765625)" xlink:href="#LiberationSans-102"/>
     </g>
    </g>
   </g>
   <g id="PolyCollection_1">
    <defs>
     <path d="M 640.810776 -779.156218 
L 640.810776 -779.113636 
L 641.204939 -779.113636 
L 641.599103 -779.113636 
L 641.993266 -779.113636 
L 642.38743 -779.113636 
L 642.781593 -779.113636 
L 643.175756 -779.113636 
L 643.56992 -779.113636 
L 643.964083 -779.113636 
L 644.358247 -779.113636 
L 644.75241 -779.113636 
L 645.146574 -779.113636 
L 645.540737 -779.113636 
L 645.9349 -779.113636 
L 646.329064 -779.113636 
L 646.723227 -779.113636 
L 647.117391 -779.113636 
L 647.511554 -779.113636 
L 647.905717 -779.113636 
L 648.299881 -779.113636 
L 648.694044 -779.113636 
L 649.088208 -779.113636 
L 649.482371 -779.113636 
L 649.876535 -779.113636 
L 650.270698 -779.113636 
L 650.664861 -779.113636 
L 651.059025 -779.113636 
L 651.453188 -779.113636 
L 651.847352 -779.113636 
L 652.241515 -779.113636 
L 652.635679 -779.113636 
L 653.029842 -779.113636 
L 653.424005 -779.113636 
L 653.818169 -779.113636 
L 654.212332 -779.113636 
L 654.606496 -779.113636 
L 655.000659 -779.113636 
L 655.394822 -779.113636 
L 655.788986 -779.113636 
L 656.183149 -779.113636 
L 656.577313 -779.113636 
L 656.971476 -779.113636 
L 657.36564 -779.113636 
L 657.759803 -779.113636 
L 658.153966 -779.113636 
L 658.54813 -779.113636 
L 658.942293 -779.113636 
L 659.336457 -779.113636 
L 659.73062 -779.113636 
L 660.124784 -779.113636 
L 660.518947 -779.113636 
L 660.91311 -779.113636 
L 661.307274 -779.113636 
L 661.701437 -779.113636 
L 662.095601 -779.113636 
L 662.489764 -779.113636 
L 662.883927 -779.113636 
L 663.278091 -779.113636 
L 663.672254 -779.113636 
L 664.066418 -779.113636 
L 664.460581 -779.113636 
L 664.854745 -779.113636 
L 665.248908 -779.113636 
L 665.643071 -779.113636 
L 666.037235 -779.113636 
L 666.431398 -779.113636 
L 666.825562 -779.113636 
L 667.219725 -779.113636 
L 667.613889 -779.113636 
L 668.008052 -779.113636 
L 668.402215 -779.113636 
L 668.796379 -779.113636 
L 669.190542 -779.113636 
L 669.584706 -779.113636 
L 669.978869 -779.113636 
L 670.373032 -779.113636 
L 670.767196 -779.113636 
L 671.161359 -779.113636 
L 671.555523 -779.113636 
L 671.949686 -779.113636 
L 672.34385 -779.113636 
L 672.738013 -779.113636 
L 673.132176 -779.113636 
L 673.52634 -779.113636 
L 673.920503 -779.113636 
L 674.314667 -779.113636 
L 674.70883 -779.113636 
L 675.102993 -779.113636 
L 675.497157 -779.113636 
L 675.89132 -779.113636 
L 676.285484 -779.113636 
L 676.679647 -779.113636 
L 677.073811 -779.113636 
L 677.467974 -779.113636 
L 677.862137 -779.113636 
L 678.256301 -779.113636 
L 678.650464 -779.113636 
L 679.044628 -779.113636 
L 679.438791 -779.113636 
L 679.832955 -779.113636 
L 679.832955 -779.134164 
L 679.832955 -779.134164 
L 679.438791 -779.134316 
L 679.044628 -779.134469 
L 678.650464 -779.134624 
L 678.256301 -779.134779 
L 677.862137 -779.134936 
L 677.467974 -779.135093 
L 677.073811 -779.135252 
L 676.679647 -779.135413 
L 676.285484 -779.135574 
L 675.89132 -779.135736 
L 675.497157 -779.1359 
L 675.102993 -779.136065 
L 674.70883 -779.136231 
L 674.314667 -779.136398 
L 673.920503 -779.136567 
L 673.52634 -779.136737 
L 673.132176 -779.136908 
L 672.738013 -779.13708 
L 672.34385 -779.137254 
L 671.949686 -779.137429 
L 671.555523 -779.137605 
L 671.161359 -779.137782 
L 670.767196 -779.137961 
L 670.373032 -779.138141 
L 669.978869 -779.138323 
L 669.584706 -779.138505 
L 669.190542 -779.13869 
L 668.796379 -779.138875 
L 668.402215 -779.139062 
L 668.008052 -779.13925 
L 667.613889 -779.13944 
L 667.219725 -779.139631 
L 666.825562 -779.139823 
L 666.431398 -779.140017 
L 666.037235 -779.140212 
L 665.643071 -779.140409 
L 665.248908 -779.140607 
L 664.854745 -779.140807 
L 664.460581 -779.141008 
L 664.066418 -779.14121 
L 663.672254 -779.141414 
L 663.278091 -779.14162 
L 662.883927 -779.141827 
L 662.489764 -779.142035 
L 662.095601 -779.142245 
L 661.701437 -779.142457 
L 661.307274 -779.14267 
L 660.91311 -779.142885 
L 660.518947 -779.143102 
L 660.124784 -779.14332 
L 659.73062 -779.143539 
L 659.336457 -779.14376 
L 658.942293 -779.143983 
L 658.54813 -779.144208 
L 658.153966 -779.144434 
L 657.759803 -779.144662 
L 657.36564 -779.144891 
L 656.971476 -779.145122 
L 656.577313 -779.145355 
L 656.183149 -779.14559 
L 655.788986 -779.145826 
L 655.394822 -779.146064 
L 655.000659 -779.146304 
L 654.606496 -779.146545 
L 654.212332 -779.146789 
L 653.818169 -779.147034 
L 653.424005 -779.147281 
L 653.029842 -779.147529 
L 652.635679 -779.14778 
L 652.241515 -779.148032 
L 651.847352 -779.148287 
L 651.453188 -779.148543 
L 651.059025 -779.148801 
L 650.664861 -779.149061 
L 650.270698 -779.149323 
L 649.876535 -779.149586 
L 649.482371 -779.149852 
L 649.088208 -779.15012 
L 648.694044 -779.150389 
L 648.299881 -779.150661 
L 647.905717 -779.150935 
L 647.511554 -779.15121 
L 647.117391 -779.151488 
L 646.723227 -779.151768 
L 646.329064 -779.152049 
L 645.9349 -779.152333 
L 645.540737 -779.152619 
L 645.146574 -779.152907 
L 644.75241 -779.153197 
L 644.358247 -779.153489 
L 643.964083 -779.153784 
L 643.56992 -779.15408 
L 643.175756 -779.154379 
L 642.781593 -779.15468 
L 642.38743 -779.154983 
L 641.993266 -779.155289 
L 641.599103 -779.155596 
L 641.204939 -779.155906 
L 640.810776 -779.156218 
z
" id="m2a4b2258d3" style="stroke:#ff0000;stroke-width:0.5;"/>
    </defs>
    <g clip-path="url(#p0f295eb602)">
     <use style="fill:#ff0000;stroke:#ff0000;stroke-width:0.5;" x="0" xlink:href="#m2a4b2258d3" y="1080"/>
    </g>
   </g>
   <g id="line2d_23">
    <path clip-path="url(#p0f295eb602)" d="M 92.492045 294.31667 
L 94.255832 193.435972 
L 97.783405 127.399345 
L 101.898907 87.532938 
L 106.014409 64.911984 
L 110.129911 52.262334 
L 113.657484 46.715914 
L 117.185057 44.67794 
L 120.71263 45.271213 
L 124.828132 48.453475 
L 130.119491 55.384525 
L 137.762566 69.033334 
L 151.284929 98.129328 
L 178.917585 157.780101 
L 194.203734 185.796248 
L 208.314027 207.719284 
L 222.424319 226.028014 
L 236.534611 241.094493 
L 251.232832 253.815 
L 266.518981 264.348988 
L 282.980989 273.192599 
L 300.618854 280.392185 
L 320.608435 286.379723 
L 344.125588 291.272477 
L 372.934101 295.112475 
L 409.973618 297.911634 
L 462.887213 299.746165 
L 556.367899 300.681741 
L 679.832955 300.865836 
L 679.832955 300.865836 
" style="fill:none;stroke:#0000ff;"/>
   </g>
   <g id="line2d_24">
    <path clip-path="url(#p0f295eb602)" d="M 640.810776 313.7 
L 640.810776 255.44775 
" style="fill:none;stroke:#ff0000;"/>
   </g>
   <g id="patch_3">
    <path d="M 63.125 313.7 
L 63.125 31.8 
" style="fill:none;stroke:#ffffff;stroke-linecap:square;stroke-linejoin:miter;"/>
   </g>
   <g id="patch_4">
    <path d="M 709.2 313.7 
L 709.2 31.8 
" style="fill:none;stroke:#ffffff;stroke-linecap:square;stroke-linejoin:miter;"/>
   </g>
   <g id="patch_5">
    <path d="M 63.125 313.7 
L 709.2 313.7 
" style="fill:none;stroke:#ffffff;stroke-linecap:square;stroke-linejoin:miter;"/>
   </g>
   <g id="patch_6">
    <path d="M 63.125 31.8 
L 709.2 31.8 
" style="fill:none;stroke:#ffffff;stroke-linecap:square;stroke-linejoin:miter;"/>
   </g>
   <g id="text_14">
    <!-- p = 8.40e-05 -->
    <defs>
     <path d="M 4.890625 41.796875 
L 4.890625 49.03125 
L 53.46875 49.03125 
L 53.46875 41.796875 
z
M 4.890625 16.796875 
L 4.890625 24.03125 
L 53.46875 24.03125 
L 53.46875 16.796875 
z
" id="LiberationSans-61"/>
     <path d="M 51.265625 19.1875 
Q 51.265625 14.796875 49.875 11.109375 
Q 48.484375 7.421875 45.625 4.734375 
Q 42.78125 2.046875 38.328125 0.53125 
Q 33.890625 -0.984375 27.828125 -0.984375 
Q 21.78125 -0.984375 17.359375 0.53125 
Q 12.9375 2.046875 10.03125 4.703125 
Q 7.125 7.375 5.734375 11.0625 
Q 4.34375 14.75 4.34375 19.09375 
Q 4.34375 22.859375 5.484375 25.78125 
Q 6.640625 28.71875 8.5625 30.828125 
Q 10.5 32.953125 12.96875 34.25 
Q 15.4375 35.546875 18.0625 35.984375 
L 18.0625 36.1875 
Q 15.1875 36.859375 12.90625 38.375 
Q 10.640625 39.890625 9.09375 42.015625 
Q 7.5625 44.140625 6.75 46.71875 
Q 5.953125 49.3125 5.953125 52.203125 
Q 5.953125 55.8125 7.34375 59 
Q 8.734375 62.203125 11.46875 64.625 
Q 14.203125 67.046875 18.25 68.4375 
Q 22.3125 69.828125 27.640625 69.828125 
Q 33.25 69.828125 37.375 68.40625 
Q 41.5 67 44.203125 64.578125 
Q 46.921875 62.15625 48.234375 58.9375 
Q 49.5625 55.71875 49.5625 52.09375 
Q 49.5625 49.265625 48.75 46.671875 
Q 47.953125 44.09375 46.40625 41.96875 
Q 44.875 39.84375 42.59375 38.34375 
Q 40.328125 36.859375 37.359375 36.28125 
L 37.359375 36.078125 
Q 40.328125 35.59375 42.859375 34.296875 
Q 45.40625 33.015625 47.265625 30.890625 
Q 49.125 28.765625 50.1875 25.828125 
Q 51.265625 22.90625 51.265625 19.1875 
z
M 40.4375 51.609375 
Q 40.4375 54.203125 39.765625 56.34375 
Q 39.109375 58.5 37.59375 60.03125 
Q 36.078125 61.578125 33.640625 62.421875 
Q 31.203125 63.28125 27.640625 63.28125 
Q 24.171875 63.28125 21.78125 62.421875 
Q 19.390625 61.578125 17.84375 60.03125 
Q 16.3125 58.5 15.625 56.34375 
Q 14.9375 54.203125 14.9375 51.609375 
Q 14.9375 49.5625 15.46875 47.40625 
Q 16.015625 45.265625 17.421875 43.5 
Q 18.84375 41.75 21.328125 40.625 
Q 23.828125 39.5 27.734375 39.5 
Q 31.890625 39.5 34.40625 40.625 
Q 36.921875 41.75 38.25 43.5 
Q 39.59375 45.265625 40.015625 47.40625 
Q 40.4375 49.5625 40.4375 51.609375 
z
M 42.140625 20.015625 
Q 42.140625 22.515625 41.453125 24.828125 
Q 40.765625 27.15625 39.109375 28.9375 
Q 37.453125 30.71875 34.640625 31.8125 
Q 31.84375 32.90625 27.640625 32.90625 
Q 23.78125 32.90625 21.0625 31.8125 
Q 18.359375 30.71875 16.671875 28.90625 
Q 14.984375 27.09375 14.203125 24.71875 
Q 13.421875 22.359375 13.421875 19.828125 
Q 13.421875 16.65625 14.203125 14.03125 
Q 14.984375 11.421875 16.6875 9.546875 
Q 18.40625 7.671875 21.1875 6.640625 
Q 23.96875 5.609375 27.9375 5.609375 
Q 31.9375 5.609375 34.671875 6.640625 
Q 37.40625 7.671875 39.0625 9.546875 
Q 40.71875 11.421875 41.421875 14.078125 
Q 42.140625 16.75 42.140625 20.015625 
z
" id="LiberationSans-56"/>
     <path d="M 43.015625 15.578125 
L 43.015625 0 
L 34.71875 0 
L 34.71875 15.578125 
L 2.296875 15.578125 
L 2.296875 22.40625 
L 33.796875 68.796875 
L 43.015625 68.796875 
L 43.015625 22.515625 
L 52.6875 22.515625 
L 52.6875 15.578125 
z
M 34.71875 58.890625 
Q 34.625 58.640625 34.234375 57.9375 
Q 33.84375 57.234375 33.34375 56.34375 
Q 32.859375 55.46875 32.34375 54.5625 
Q 31.84375 53.65625 31.453125 53.078125 
L 13.8125 27.09375 
Q 13.578125 26.703125 13.109375 26.0625 
Q 12.640625 25.4375 12.15625 24.78125 
Q 11.671875 24.125 11.171875 23.484375 
Q 10.6875 22.859375 10.40625 22.515625 
L 34.71875 22.515625 
z
" id="LiberationSans-52"/>
     <path d="M 13.484375 24.5625 
Q 13.484375 20.40625 14.328125 16.90625 
Q 15.1875 13.421875 16.96875 10.90625 
Q 18.75 8.40625 21.53125 7 
Q 24.3125 5.609375 28.21875 5.609375 
Q 33.9375 5.609375 37.375 7.90625 
Q 40.828125 10.203125 42.046875 13.71875 
L 49.75 11.53125 
Q 48.921875 9.328125 47.4375 7.109375 
Q 45.953125 4.890625 43.453125 3.09375 
Q 40.96875 1.3125 37.234375 0.15625 
Q 33.5 -0.984375 28.21875 -0.984375 
Q 16.5 -0.984375 10.375 6 
Q 4.25 12.984375 4.25 26.765625 
Q 4.25 34.1875 6.09375 39.328125 
Q 7.953125 44.484375 11.171875 47.703125 
Q 14.40625 50.921875 18.703125 52.359375 
Q 23 53.8125 27.875 53.8125 
Q 34.515625 53.8125 38.984375 51.65625 
Q 43.453125 49.515625 46.15625 45.71875 
Q 48.875 41.9375 50.015625 36.8125 
Q 51.171875 31.6875 51.171875 25.734375 
L 51.171875 24.5625 
z
M 42.09375 31.296875 
Q 41.359375 39.65625 37.84375 43.484375 
Q 34.328125 47.3125 27.734375 47.3125 
Q 25.53125 47.3125 23.109375 46.609375 
Q 20.703125 45.90625 18.65625 44.09375 
Q 16.609375 42.28125 15.1875 39.171875 
Q 13.765625 36.078125 13.578125 31.296875 
z
" id="LiberationSans-101"/>
     <path d="M 4.4375 22.65625 
L 4.4375 30.46875 
L 28.859375 30.46875 
L 28.859375 22.65625 
z
" id="LiberationSans-45"/>
    </defs>
    <g style="fill:#262626;" transform="translate(584.379526 247.929773)scale(0.1 -0.1)">
     <use xlink:href="#LiberationSans-112"/>
     <use x="55.615234" xlink:href="#LiberationSans-32"/>
     <use x="83.398438" xlink:href="#LiberationSans-61"/>
     <use x="141.796875" xlink:href="#LiberationSans-32"/>
     <use x="169.580078" xlink:href="#LiberationSans-56"/>
     <use x="225.195312" xlink:href="#LiberationSans-46"/>
     <use x="252.978516" xlink:href="#LiberationSans-52"/>
     <use x="308.59375" xlink:href="#LiberationSans-48"/>
     <use x="364.208984" xlink:href="#LiberationSans-101"/>
     <use x="419.824219" xlink:href="#LiberationSans-45"/>
     <use x="453.125" xlink:href="#LiberationSans-48"/>
     <use x="508.740234" xlink:href="#LiberationSans-53"/>
    </g>
   </g>
   <g id="text_15">
    <!-- Christiana High School -->
    <defs>
     <path d="M 38.671875 62.203125 
Q 32.8125 62.203125 28.296875 60.25 
Q 23.78125 58.296875 20.71875 54.6875 
Q 17.671875 51.078125 16.109375 46 
Q 14.546875 40.921875 14.546875 34.71875 
Q 14.546875 28.515625 16.234375 23.359375 
Q 17.921875 18.21875 21.0625 14.5 
Q 24.21875 10.796875 28.78125 8.734375 
Q 33.34375 6.6875 39.0625 6.6875 
Q 43.0625 6.6875 46.359375 7.734375 
Q 49.65625 8.796875 52.3125 10.6875 
Q 54.984375 12.59375 57.078125 15.203125 
Q 59.1875 17.828125 60.796875 21 
L 68.40625 17.1875 
Q 66.546875 13.328125 63.8125 10 
Q 61.078125 6.6875 57.390625 4.25 
Q 53.71875 1.8125 49.046875 0.40625 
Q 44.390625 -0.984375 38.625 -0.984375 
Q 30.28125 -0.984375 24 1.671875 
Q 17.71875 4.34375 13.5 9.109375 
Q 9.28125 13.875 7.171875 20.40625 
Q 5.078125 26.953125 5.078125 34.71875 
Q 5.078125 42.78125 7.296875 49.265625 
Q 9.515625 55.765625 13.78125 60.328125 
Q 18.0625 64.890625 24.3125 67.359375 
Q 30.5625 69.828125 38.578125 69.828125 
Q 49.5625 69.828125 56.9375 65.53125 
Q 64.3125 61.234375 67.78125 52.78125 
L 58.9375 49.859375 
Q 57.953125 52.296875 56.296875 54.515625 
Q 54.640625 56.734375 52.140625 58.4375 
Q 49.65625 60.15625 46.3125 61.171875 
Q 42.96875 62.203125 38.671875 62.203125 
z
" id="LiberationSans-67"/>
     <path d="M 15.484375 43.796875 
Q 16.9375 46.484375 18.640625 48.359375 
Q 20.359375 50.25 22.40625 51.46875 
Q 24.46875 52.6875 26.90625 53.25 
Q 29.34375 53.8125 32.375 53.8125 
Q 37.453125 53.8125 40.703125 52.4375 
Q 43.953125 51.078125 45.828125 48.609375 
Q 47.703125 46.140625 48.40625 42.71875 
Q 49.125 39.3125 49.125 35.203125 
L 49.125 0 
L 40.28125 0 
L 40.28125 33.5 
Q 40.28125 36.859375 39.859375 39.390625 
Q 39.453125 41.9375 38.28125 43.625 
Q 37.109375 45.3125 34.953125 46.15625 
Q 32.8125 47.015625 29.390625 47.015625 
Q 26.265625 47.015625 23.75 45.890625 
Q 21.234375 44.78125 19.453125 42.71875 
Q 17.671875 40.671875 16.6875 37.734375 
Q 15.71875 34.8125 15.71875 31.15625 
L 15.71875 0 
L 6.9375 0 
L 6.9375 72.46875 
L 15.71875 72.46875 
L 15.71875 53.609375 
Q 15.71875 52 15.671875 50.390625 
Q 15.625 48.78125 15.546875 47.40625 
Q 15.484375 46.046875 15.421875 45.09375 
Q 15.375 44.140625 15.328125 43.796875 
z
" id="LiberationSans-104"/>
     <path d="M 6.9375 0 
L 6.9375 40.53125 
Q 6.9375 42.1875 6.90625 43.921875 
Q 6.890625 45.65625 6.828125 47.265625 
Q 6.78125 48.875 6.734375 50.28125 
Q 6.6875 51.703125 6.640625 52.828125 
L 14.9375 52.828125 
Q 14.984375 51.703125 15.0625 50.265625 
Q 15.140625 48.828125 15.203125 47.3125 
Q 15.28125 45.796875 15.296875 44.40625 
Q 15.328125 43.015625 15.328125 42.046875 
L 15.53125 42.046875 
Q 16.453125 45.0625 17.5 47.28125 
Q 18.5625 49.515625 19.96875 50.953125 
Q 21.390625 52.390625 23.34375 53.09375 
Q 25.296875 53.8125 28.078125 53.8125 
Q 29.15625 53.8125 30.125 53.640625 
Q 31.109375 53.46875 31.640625 53.328125 
L 31.640625 45.265625 
Q 30.765625 45.515625 29.59375 45.625 
Q 28.421875 45.75 26.953125 45.75 
Q 23.921875 45.75 21.796875 44.375 
Q 19.671875 43.015625 18.328125 40.59375 
Q 17 38.1875 16.359375 34.84375 
Q 15.71875 31.5 15.71875 27.546875 
L 15.71875 0 
z
" id="LiberationSans-114"/>
     <path d="M 40.28125 0 
L 40.28125 33.5 
Q 40.28125 37.359375 39.71875 39.9375 
Q 39.15625 42.53125 37.890625 44.109375 
Q 36.625 45.703125 34.546875 46.359375 
Q 32.46875 47.015625 29.390625 47.015625 
Q 26.265625 47.015625 23.75 45.921875 
Q 21.234375 44.828125 19.453125 42.75 
Q 17.671875 40.671875 16.6875 37.625 
Q 15.71875 34.578125 15.71875 30.609375 
L 15.71875 0 
L 6.9375 0 
L 6.9375 41.546875 
Q 6.9375 43.21875 6.90625 45.046875 
Q 6.890625 46.875 6.828125 48.5 
Q 6.78125 50.140625 6.734375 51.3125 
Q 6.6875 52.484375 6.640625 52.828125 
L 14.9375 52.828125 
Q 14.984375 52.59375 15.03125 51.515625 
Q 15.09375 50.4375 15.15625 49.046875 
Q 15.234375 47.65625 15.28125 46.21875 
Q 15.328125 44.78125 15.328125 43.796875 
L 15.484375 43.796875 
Q 16.75 46.09375 18.265625 47.953125 
Q 19.78125 49.8125 21.78125 51.09375 
Q 23.78125 52.390625 26.359375 53.09375 
Q 28.953125 53.8125 32.375 53.8125 
Q 36.765625 53.8125 39.9375 52.734375 
Q 43.109375 51.65625 45.15625 49.40625 
Q 47.21875 47.171875 48.171875 43.625 
Q 49.125 40.09375 49.125 35.203125 
L 49.125 0 
z
" id="LiberationSans-110"/>
     <path d="M 54.734375 0 
L 54.734375 31.890625 
L 17.53125 31.890625 
L 17.53125 0 
L 8.203125 0 
L 8.203125 68.796875 
L 17.53125 68.796875 
L 17.53125 39.703125 
L 54.734375 39.703125 
L 54.734375 68.796875 
L 64.0625 68.796875 
L 64.0625 0 
z
" id="LiberationSans-72"/>
     <path d="M 26.765625 -20.75 
Q 22.21875 -20.75 18.703125 -19.8125 
Q 15.1875 -18.890625 12.6875 -17.15625 
Q 10.203125 -15.4375 8.640625 -13.03125 
Q 7.078125 -10.640625 6.390625 -7.71875 
L 15.234375 -6.453125 
Q 16.109375 -10.109375 19.109375 -12.078125 
Q 22.125 -14.0625 27 -14.0625 
Q 29.984375 -14.0625 32.421875 -13.234375 
Q 34.859375 -12.40625 36.5625 -10.5625 
Q 38.28125 -8.734375 39.203125 -5.796875 
Q 40.140625 -2.875 40.140625 1.3125 
L 40.140625 9.8125 
L 40.046875 9.8125 
Q 39.0625 7.8125 37.625 5.984375 
Q 36.1875 4.15625 34.109375 2.734375 
Q 32.03125 1.3125 29.296875 0.453125 
Q 26.5625 -0.390625 23.046875 -0.390625 
Q 18.015625 -0.390625 14.421875 1.296875 
Q 10.84375 2.984375 8.5625 6.34375 
Q 6.296875 9.71875 5.25 14.71875 
Q 4.203125 19.734375 4.203125 26.3125 
Q 4.203125 32.671875 5.25 37.75 
Q 6.296875 42.828125 8.65625 46.359375 
Q 11.03125 49.90625 14.8125 51.78125 
Q 18.609375 53.65625 24.03125 53.65625 
Q 29.640625 53.65625 33.765625 51.09375 
Q 37.890625 48.53125 40.140625 43.796875 
L 40.234375 43.796875 
Q 40.234375 45.015625 40.296875 46.53125 
Q 40.375 48.046875 40.453125 49.390625 
Q 40.53125 50.734375 40.625 51.703125 
Q 40.71875 52.6875 40.828125 52.828125 
L 49.171875 52.828125 
Q 49.125 52.390625 49.078125 51.34375 
Q 49.03125 50.296875 48.96875 48.828125 
Q 48.921875 47.359375 48.890625 45.578125 
Q 48.875 43.796875 48.875 41.890625 
L 48.875 1.515625 
Q 48.875 -9.578125 43.421875 -15.15625 
Q 37.984375 -20.75 26.765625 -20.75 
z
M 40.140625 26.421875 
Q 40.140625 31.9375 38.9375 35.859375 
Q 37.75 39.796875 35.796875 42.28125 
Q 33.84375 44.78125 31.328125 45.953125 
Q 28.8125 47.125 26.171875 47.125 
Q 22.796875 47.125 20.375 45.953125 
Q 17.96875 44.78125 16.375 42.265625 
Q 14.796875 39.75 14.03125 35.8125 
Q 13.28125 31.890625 13.28125 26.421875 
Q 13.28125 20.703125 14.03125 16.8125 
Q 14.796875 12.9375 16.359375 10.546875 
Q 17.921875 8.15625 20.3125 7.125 
Q 22.703125 6.109375 26.03125 6.109375 
Q 28.65625 6.109375 31.171875 7.21875 
Q 33.6875 8.34375 35.6875 10.78125 
Q 37.703125 13.234375 38.921875 17.09375 
Q 40.140625 20.953125 40.140625 26.421875 
z
" id="LiberationSans-103"/>
     <path d="M 62.109375 19 
Q 62.109375 14.65625 60.421875 10.984375 
Q 58.734375 7.328125 55.21875 4.65625 
Q 51.703125 2 46.359375 0.5 
Q 41.015625 -0.984375 33.6875 -0.984375 
Q 20.84375 -0.984375 13.671875 3.515625 
Q 6.5 8.015625 4.546875 16.5 
L 13.578125 18.3125 
Q 14.265625 15.625 15.671875 13.421875 
Q 17.09375 11.234375 19.5 9.640625 
Q 21.921875 8.0625 25.484375 7.171875 
Q 29.046875 6.296875 34.03125 6.296875 
Q 38.1875 6.296875 41.65625 7 
Q 45.125 7.71875 47.609375 9.171875 
Q 50.09375 10.640625 51.484375 12.953125 
Q 52.875 15.28125 52.875 18.5 
Q 52.875 21.875 51.34375 23.96875 
Q 49.8125 26.078125 47.015625 27.4375 
Q 44.234375 28.8125 40.375 29.734375 
Q 36.53125 30.671875 31.84375 31.734375 
Q 28.953125 32.375 26.046875 33.125 
Q 23.140625 33.890625 20.484375 34.9375 
Q 17.828125 35.984375 15.484375 37.390625 
Q 13.140625 38.8125 11.421875 40.796875 
Q 9.71875 42.78125 8.734375 45.390625 
Q 7.765625 48 7.765625 51.421875 
Q 7.765625 56.296875 9.734375 59.78125 
Q 11.71875 63.28125 15.234375 65.53125 
Q 18.75 67.78125 23.53125 68.796875 
Q 28.328125 69.828125 33.890625 69.828125 
Q 40.28125 69.828125 44.8125 68.828125 
Q 49.359375 67.828125 52.484375 65.8125 
Q 55.609375 63.8125 57.484375 60.859375 
Q 59.375 57.90625 60.5 54 
L 51.3125 52.390625 
Q 50.640625 54.890625 49.34375 56.84375 
Q 48.046875 58.796875 45.9375 60.109375 
Q 43.84375 61.421875 40.84375 62.109375 
Q 37.84375 62.796875 33.796875 62.796875 
Q 29 62.796875 25.75 61.9375 
Q 22.515625 61.078125 20.53125 59.609375 
Q 18.5625 58.15625 17.703125 56.171875 
Q 16.84375 54.203125 16.84375 51.90625 
Q 16.84375 48.828125 18.375 46.84375 
Q 19.921875 44.875 22.5625 43.546875 
Q 25.203125 42.234375 28.65625 41.359375 
Q 32.125 40.484375 36.03125 39.59375 
Q 39.203125 38.875 42.359375 38.109375 
Q 45.515625 37.359375 48.390625 36.296875 
Q 51.265625 35.25 53.78125 33.828125 
Q 56.296875 32.421875 58.15625 30.375 
Q 60.015625 28.328125 61.0625 25.53125 
Q 62.109375 22.75 62.109375 19 
z
" id="LiberationSans-83"/>
     <path d="M 51.421875 26.46875 
Q 51.421875 12.59375 45.3125 5.796875 
Q 39.203125 -0.984375 27.59375 -0.984375 
Q 22.078125 -0.984375 17.71875 0.671875 
Q 13.375 2.34375 10.375 5.765625 
Q 7.375 9.1875 5.78125 14.328125 
Q 4.203125 19.484375 4.203125 26.46875 
Q 4.203125 53.8125 27.875 53.8125 
Q 34.03125 53.8125 38.5 52.09375 
Q 42.96875 50.390625 45.828125 46.96875 
Q 48.6875 43.5625 50.046875 38.421875 
Q 51.421875 33.296875 51.421875 26.46875 
z
M 42.1875 26.46875 
Q 42.1875 32.625 41.234375 36.625 
Q 40.28125 40.625 38.453125 43.015625 
Q 36.625 45.40625 33.984375 46.359375 
Q 31.34375 47.3125 28.03125 47.3125 
Q 24.65625 47.3125 21.9375 46.3125 
Q 19.234375 45.3125 17.328125 42.890625 
Q 15.4375 40.484375 14.421875 36.46875 
Q 13.421875 32.46875 13.421875 26.46875 
Q 13.421875 20.3125 14.5 16.28125 
Q 15.578125 12.25 17.453125 9.859375 
Q 19.34375 7.46875 21.90625 6.484375 
Q 24.46875 5.515625 27.484375 5.515625 
Q 30.859375 5.515625 33.59375 6.46875 
Q 36.328125 7.421875 38.234375 9.8125 
Q 40.140625 12.203125 41.15625 16.25 
Q 42.1875 20.3125 42.1875 26.46875 
z
" id="LiberationSans-111"/>
     <path d="M 6.734375 0 
L 6.734375 72.46875 
L 15.53125 72.46875 
L 15.53125 0 
z
" id="LiberationSans-108"/>
    </defs>
    <g style="fill:#262626;" transform="translate(284.448437 25.8)scale(0.2 -0.2)">
     <use xlink:href="#LiberationSans-67"/>
     <use x="72.216797" xlink:href="#LiberationSans-104"/>
     <use x="127.832031" xlink:href="#LiberationSans-114"/>
     <use x="161.132812" xlink:href="#LiberationSans-105"/>
     <use x="183.349609" xlink:href="#LiberationSans-115"/>
     <use x="233.349609" xlink:href="#LiberationSans-116"/>
     <use x="261.132812" xlink:href="#LiberationSans-105"/>
     <use x="283.349609" xlink:href="#LiberationSans-97"/>
     <use x="338.964844" xlink:href="#LiberationSans-110"/>
     <use x="394.580078" xlink:href="#LiberationSans-97"/>
     <use x="450.195312" xlink:href="#LiberationSans-32"/>
     <use x="477.978516" xlink:href="#LiberationSans-72"/>
     <use x="550.195312" xlink:href="#LiberationSans-105"/>
     <use x="572.412109" xlink:href="#LiberationSans-103"/>
     <use x="628.027344" xlink:href="#LiberationSans-104"/>
     <use x="683.642578" xlink:href="#LiberationSans-32"/>
     <use x="711.425781" xlink:href="#LiberationSans-83"/>
     <use x="778.125" xlink:href="#LiberationSans-99"/>
     <use x="828.125" xlink:href="#LiberationSans-104"/>
     <use x="883.740234" xlink:href="#LiberationSans-111"/>
     <use x="939.355469" xlink:href="#LiberationSans-111"/>
     <use x="994.970703" xlink:href="#LiberationSans-108"/>
    </g>
   </g>
  </g>
  <g id="axes_2">
   <g id="patch_7">
    <path d="M 63.125 670.1 
L 709.2 670.1 
L 709.2 388.2 
L 63.125 388.2 
z
" style="fill:#ffffff;"/>
   </g>
   <g id="matplotlib.axis_3">
    <g id="xtick_6">
     <g id="line2d_25">
      <path clip-path="url(#pefa37fe6fe)" d="M 92.48587 670.1 
L 92.48587 388.2 
" style="fill:none;stroke:#ffffff;"/>
     </g>
     <g id="line2d_26"/>
     <g id="text_16">
      <!-- 0 -->
      <g style="fill:#555555;" transform="translate(89.705402 684.346875)scale(0.1 -0.1)">
       <use xlink:href="#LiberationSans-48"/>
      </g>
     </g>
    </g>
    <g id="xtick_7">
     <g id="line2d_27">
      <path clip-path="url(#pefa37fe6fe)" d="M 220.170019 670.1 
L 220.170019 388.2 
" style="fill:none;stroke:#ffffff;"/>
     </g>
     <g id="line2d_28"/>
     <g id="text_17">
      <!-- 5 -->
      <g style="fill:#555555;" transform="translate(217.38955 684.346875)scale(0.1 -0.1)">
       <use xlink:href="#LiberationSans-53"/>
      </g>
     </g>
    </g>
    <g id="xtick_8">
     <g id="line2d_29">
      <path clip-path="url(#pefa37fe6fe)" d="M 347.854168 670.1 
L 347.854168 388.2 
" style="fill:none;stroke:#ffffff;"/>
     </g>
     <g id="line2d_30"/>
     <g id="text_18">
      <!-- 10 -->
      <g style="fill:#555555;" transform="translate(342.29323 684.346875)scale(0.1 -0.1)">
       <use xlink:href="#LiberationSans-49"/>
       <use x="55.615234" xlink:href="#LiberationSans-48"/>
      </g>
     </g>
    </g>
    <g id="xtick_9">
     <g id="line2d_31">
      <path clip-path="url(#pefa37fe6fe)" d="M 475.538317 670.1 
L 475.538317 388.2 
" style="fill:none;stroke:#ffffff;"/>
     </g>
     <g id="line2d_32"/>
     <g id="text_19">
      <!-- 15 -->
      <g style="fill:#555555;" transform="translate(469.977379 684.346875)scale(0.1 -0.1)">
       <use xlink:href="#LiberationSans-49"/>
       <use x="55.615234" xlink:href="#LiberationSans-53"/>
      </g>
     </g>
    </g>
    <g id="xtick_10">
     <g id="line2d_33">
      <path clip-path="url(#pefa37fe6fe)" d="M 603.222465 670.1 
L 603.222465 388.2 
" style="fill:none;stroke:#ffffff;"/>
     </g>
     <g id="line2d_34"/>
     <g id="text_20">
      <!-- 20 -->
      <g style="fill:#555555;" transform="translate(597.661528 684.346875)scale(0.1 -0.1)">
       <use xlink:href="#LiberationSans-50"/>
       <use x="55.615234" xlink:href="#LiberationSans-48"/>
      </g>
     </g>
    </g>
    <g id="text_21">
     <!-- $\chi^2$ statistic -->
     <g style="fill:#555555;" transform="translate(348.3225 704.981875)scale(0.16 -0.16)">
      <use transform="translate(0 0.765625)" xlink:href="#DejaVuSans-Oblique-967"/>
      <use transform="translate(63.652396 39.046875)scale(0.7)" xlink:href="#DejaVuSans-50"/>
      <use transform="translate(110.922904 0.765625)" xlink:href="#LiberationSans-32"/>
      <use transform="translate(138.706107 0.765625)" xlink:href="#LiberationSans-115"/>
      <use transform="translate(188.706107 0.765625)" xlink:href="#LiberationSans-116"/>
      <use transform="translate(216.48931 0.765625)" xlink:href="#LiberationSans-97"/>
      <use transform="translate(272.104544 0.765625)" xlink:href="#LiberationSans-116"/>
      <use transform="translate(299.887747 0.765625)" xlink:href="#LiberationSans-105"/>
      <use transform="translate(322.104544 0.765625)" xlink:href="#LiberationSans-115"/>
      <use transform="translate(372.104544 0.765625)" xlink:href="#LiberationSans-116"/>
      <use transform="translate(399.887747 0.765625)" xlink:href="#LiberationSans-105"/>
      <use transform="translate(422.104544 0.765625)" xlink:href="#LiberationSans-99"/>
     </g>
    </g>
   </g>
   <g id="matplotlib.axis_4">
    <g id="ytick_7">
     <g id="line2d_35">
      <path clip-path="url(#pefa37fe6fe)" d="M 63.125 657.286364 
L 709.2 657.286364 
" style="fill:none;stroke:#ffffff;"/>
     </g>
     <g id="line2d_36"/>
     <g id="text_22">
      <!-- 0.00 -->
      <g style="fill:#555555;" transform="translate(36.664062 660.909801)scale(0.1 -0.1)">
       <use xlink:href="#LiberationSans-48"/>
       <use x="55.615234" xlink:href="#LiberationSans-46"/>
       <use x="83.398438" xlink:href="#LiberationSans-48"/>
       <use x="139.013672" xlink:href="#LiberationSans-48"/>
      </g>
     </g>
    </g>
    <g id="ytick_8">
     <g id="line2d_37">
      <path clip-path="url(#pefa37fe6fe)" d="M 63.125 604.329773 
L 709.2 604.329773 
" style="fill:none;stroke:#ffffff;"/>
     </g>
     <g id="line2d_38"/>
     <g id="text_23">
      <!-- 0.05 -->
      <g style="fill:#555555;" transform="translate(36.664062 607.95321)scale(0.1 -0.1)">
       <use xlink:href="#LiberationSans-48"/>
       <use x="55.615234" xlink:href="#LiberationSans-46"/>
       <use x="83.398438" xlink:href="#LiberationSans-48"/>
       <use x="139.013672" xlink:href="#LiberationSans-53"/>
      </g>
     </g>
    </g>
    <g id="ytick_9">
     <g id="line2d_39">
      <path clip-path="url(#pefa37fe6fe)" d="M 63.125 551.373182 
L 709.2 551.373182 
" style="fill:none;stroke:#ffffff;"/>
     </g>
     <g id="line2d_40"/>
     <g id="text_24">
      <!-- 0.10 -->
      <g style="fill:#555555;" transform="translate(36.664062 554.996619)scale(0.1 -0.1)">
       <use xlink:href="#LiberationSans-48"/>
       <use x="55.615234" xlink:href="#LiberationSans-46"/>
       <use x="83.398438" xlink:href="#LiberationSans-49"/>
       <use x="139.013672" xlink:href="#LiberationSans-48"/>
      </g>
     </g>
    </g>
    <g id="ytick_10">
     <g id="line2d_41">
      <path clip-path="url(#pefa37fe6fe)" d="M 63.125 498.416591 
L 709.2 498.416591 
" style="fill:none;stroke:#ffffff;"/>
     </g>
     <g id="line2d_42"/>
     <g id="text_25">
      <!-- 0.15 -->
      <g style="fill:#555555;" transform="translate(36.664062 502.040028)scale(0.1 -0.1)">
       <use xlink:href="#LiberationSans-48"/>
       <use x="55.615234" xlink:href="#LiberationSans-46"/>
       <use x="83.398438" xlink:href="#LiberationSans-49"/>
       <use x="139.013672" xlink:href="#LiberationSans-53"/>
      </g>
     </g>
    </g>
    <g id="ytick_11">
     <g id="line2d_43">
      <path clip-path="url(#pefa37fe6fe)" d="M 63.125 445.46 
L 709.2 445.46 
" style="fill:none;stroke:#ffffff;"/>
     </g>
     <g id="line2d_44"/>
     <g id="text_26">
      <!-- 0.20 -->
      <g style="fill:#555555;" transform="translate(36.664062 449.083437)scale(0.1 -0.1)">
       <use xlink:href="#LiberationSans-48"/>
       <use x="55.615234" xlink:href="#LiberationSans-46"/>
       <use x="83.398438" xlink:href="#LiberationSans-50"/>
       <use x="139.013672" xlink:href="#LiberationSans-48"/>
      </g>
     </g>
    </g>
    <g id="ytick_12">
     <g id="line2d_45">
      <path clip-path="url(#pefa37fe6fe)" d="M 63.125 392.503409 
L 709.2 392.503409 
" style="fill:none;stroke:#ffffff;"/>
     </g>
     <g id="line2d_46"/>
     <g id="text_27">
      <!-- 0.25 -->
      <g style="fill:#555555;" transform="translate(36.664062 396.126846)scale(0.1 -0.1)">
       <use xlink:href="#LiberationSans-48"/>
       <use x="55.615234" xlink:href="#LiberationSans-46"/>
       <use x="83.398438" xlink:href="#LiberationSans-50"/>
       <use x="139.013672" xlink:href="#LiberationSans-53"/>
      </g>
     </g>
    </g>
    <g id="text_28">
     <!-- $\chi^2$ pdf -->
     <g style="fill:#555555;" transform="translate(29.304062 551.39)rotate(-90)scale(0.16 -0.16)">
      <use transform="translate(0 0.765625)" xlink:href="#DejaVuSans-Oblique-967"/>
      <use transform="translate(63.652396 39.046875)scale(0.7)" xlink:href="#DejaVuSans-50"/>
      <use transform="translate(110.922904 0.765625)" xlink:href="#LiberationSans-32"/>
      <use transform="translate(138.706107 0.765625)" xlink:href="#LiberationSans-112"/>
      <use transform="translate(194.321341 0.765625)" xlink:href="#LiberationSans-100"/>
      <use transform="translate(249.936576 0.765625)" xlink:href="#LiberationSans-102"/>
     </g>
    </g>
   </g>
   <g id="PolyCollection_2">
    <defs>
     <path d="M 412.842004 -425.53858 
L 412.842004 -422.713636 
L 415.538883 -422.713636 
L 418.235761 -422.713636 
L 420.932639 -422.713636 
L 423.629517 -422.713636 
L 426.326396 -422.713636 
L 429.023274 -422.713636 
L 431.720152 -422.713636 
L 434.417031 -422.713636 
L 437.113909 -422.713636 
L 439.810787 -422.713636 
L 442.507665 -422.713636 
L 445.204544 -422.713636 
L 447.901422 -422.713636 
L 450.5983 -422.713636 
L 453.295179 -422.713636 
L 455.992057 -422.713636 
L 458.688935 -422.713636 
L 461.385813 -422.713636 
L 464.082692 -422.713636 
L 466.77957 -422.713636 
L 469.476448 -422.713636 
L 472.173327 -422.713636 
L 474.870205 -422.713636 
L 477.567083 -422.713636 
L 480.263961 -422.713636 
L 482.96084 -422.713636 
L 485.657718 -422.713636 
L 488.354596 -422.713636 
L 491.051475 -422.713636 
L 493.748353 -422.713636 
L 496.445231 -422.713636 
L 499.142109 -422.713636 
L 501.838988 -422.713636 
L 504.535866 -422.713636 
L 507.232744 -422.713636 
L 509.929623 -422.713636 
L 512.626501 -422.713636 
L 515.323379 -422.713636 
L 518.020257 -422.713636 
L 520.717136 -422.713636 
L 523.414014 -422.713636 
L 526.110892 -422.713636 
L 528.807771 -422.713636 
L 531.504649 -422.713636 
L 534.201527 -422.713636 
L 536.898405 -422.713636 
L 539.595284 -422.713636 
L 542.292162 -422.713636 
L 544.98904 -422.713636 
L 547.685919 -422.713636 
L 550.382797 -422.713636 
L 553.079675 -422.713636 
L 555.776553 -422.713636 
L 558.473432 -422.713636 
L 561.17031 -422.713636 
L 563.867188 -422.713636 
L 566.564067 -422.713636 
L 569.260945 -422.713636 
L 571.957823 -422.713636 
L 574.654701 -422.713636 
L 577.35158 -422.713636 
L 580.048458 -422.713636 
L 582.745336 -422.713636 
L 585.442215 -422.713636 
L 588.139093 -422.713636 
L 590.835971 -422.713636 
L 593.532849 -422.713636 
L 596.229728 -422.713636 
L 598.926606 -422.713636 
L 601.623484 -422.713636 
L 604.320363 -422.713636 
L 607.017241 -422.713636 
L 609.714119 -422.713636 
L 612.410997 -422.713636 
L 615.107876 -422.713636 
L 617.804754 -422.713636 
L 620.501632 -422.713636 
L 623.198511 -422.713636 
L 625.895389 -422.713636 
L 628.592267 -422.713636 
L 631.289145 -422.713636 
L 633.986024 -422.713636 
L 636.682902 -422.713636 
L 639.37978 -422.713636 
L 642.076659 -422.713636 
L 644.773537 -422.713636 
L 647.470415 -422.713636 
L 650.167293 -422.713636 
L 652.864172 -422.713636 
L 655.56105 -422.713636 
L 658.257928 -422.713636 
L 660.954807 -422.713636 
L 663.651685 -422.713636 
L 666.348563 -422.713636 
L 669.045441 -422.713636 
L 671.74232 -422.713636 
L 674.439198 -422.713636 
L 677.136076 -422.713636 
L 679.832955 -422.713636 
L 679.832955 -422.734164 
L 679.832955 -422.734164 
L 677.136076 -422.735227 
L 674.439198 -422.736345 
L 671.74232 -422.737521 
L 669.045441 -422.738758 
L 666.348563 -422.740058 
L 663.651685 -422.741425 
L 660.954807 -422.742862 
L 658.257928 -422.744374 
L 655.56105 -422.745963 
L 652.864172 -422.747634 
L 650.167293 -422.749392 
L 647.470415 -422.751239 
L 644.773537 -422.753182 
L 642.076659 -422.755224 
L 639.37978 -422.757371 
L 636.682902 -422.759629 
L 633.986024 -422.762002 
L 631.289145 -422.764498 
L 628.592267 -422.767121 
L 625.895389 -422.769879 
L 623.198511 -422.772779 
L 620.501632 -422.775827 
L 617.804754 -422.779032 
L 615.107876 -422.7824 
L 612.410997 -422.785942 
L 609.714119 -422.789664 
L 607.017241 -422.793577 
L 604.320363 -422.797691 
L 601.623484 -422.802015 
L 598.926606 -422.80656 
L 596.229728 -422.811337 
L 593.532849 -422.816359 
L 590.835971 -422.821637 
L 588.139093 -422.827184 
L 585.442215 -422.833015 
L 582.745336 -422.839143 
L 580.048458 -422.845584 
L 577.35158 -422.852354 
L 574.654701 -422.859468 
L 571.957823 -422.866945 
L 569.260945 -422.874802 
L 566.564067 -422.88306 
L 563.867188 -422.891738 
L 561.17031 -422.900857 
L 558.473432 -422.91044 
L 555.776553 -422.92051 
L 553.079675 -422.931092 
L 550.382797 -422.94221 
L 547.685919 -422.953894 
L 544.98904 -422.96617 
L 542.292162 -422.979068 
L 539.595284 -422.99262 
L 536.898405 -423.006859 
L 534.201527 -423.021819 
L 531.504649 -423.037537 
L 528.807771 -423.054049 
L 526.110892 -423.071396 
L 523.414014 -423.08962 
L 520.717136 -423.108765 
L 518.020257 -423.128876 
L 515.323379 -423.150002 
L 512.626501 -423.172194 
L 509.929623 -423.195504 
L 507.232744 -423.219988 
L 504.535866 -423.245706 
L 501.838988 -423.272717 
L 499.142109 -423.301087 
L 496.445231 -423.330884 
L 493.748353 -423.362177 
L 491.051475 -423.395041 
L 488.354596 -423.429554 
L 485.657718 -423.465798 
L 482.96084 -423.503858 
L 480.263961 -423.543824 
L 477.567083 -423.58579 
L 474.870205 -423.629855 
L 472.173327 -423.676123 
L 469.476448 -423.724701 
L 466.77957 -423.775705 
L 464.082692 -423.829252 
L 461.385813 -423.885468 
L 458.688935 -423.944484 
L 455.992057 -424.006437 
L 453.295179 -424.071471 
L 450.5983 -424.139737 
L 447.901422 -424.211392 
L 445.204544 -424.286602 
L 442.507665 -424.365541 
L 439.810787 -424.44839 
L 437.113909 -424.535339 
L 434.417031 -424.626587 
L 431.720152 -424.722344 
L 429.023274 -424.822827 
L 426.326396 -424.928266 
L 423.629517 -425.0389 
L 420.932639 -425.154979 
L 418.235761 -425.276767 
L 415.538883 -425.404538 
L 412.842004 -425.53858 
z
" id="m0682796acc" style="stroke:#ff0000;stroke-width:0.5;"/>
    </defs>
    <g clip-path="url(#pefa37fe6fe)">
     <use style="fill:#ff0000;stroke:#ff0000;stroke-width:0.5;" x="0" xlink:href="#m0682796acc" y="1080"/>
    </g>
   </g>
   <g id="line2d_47">
    <path clip-path="url(#pefa37fe6fe)" d="M 92.492045 650.71667 
L 94.255832 549.835972 
L 97.783405 483.799345 
L 101.898907 443.932938 
L 106.014409 421.311984 
L 110.129911 408.662334 
L 113.657484 403.115914 
L 117.185057 401.07794 
L 120.71263 401.671213 
L 124.828132 404.853475 
L 130.119491 411.784525 
L 137.762566 425.433334 
L 151.284929 454.529328 
L 178.917585 514.180101 
L 194.203734 542.196248 
L 208.314027 564.119284 
L 222.424319 582.428014 
L 236.534611 597.494493 
L 251.232832 610.215 
L 266.518981 620.748988 
L 282.980989 629.592599 
L 300.618854 636.792185 
L 320.608435 642.779723 
L 344.125588 647.672477 
L 372.934101 651.512475 
L 409.973618 654.311634 
L 462.887213 656.146165 
L 556.367899 657.081741 
L 679.832955 657.265836 
L 679.832955 657.265836 
" style="fill:none;stroke:#0000ff;"/>
   </g>
   <g id="line2d_48">
    <path clip-path="url(#pefa37fe6fe)" d="M 412.842004 670.1 
L 412.842004 611.84775 
" style="fill:none;stroke:#ff0000;"/>
   </g>
   <g id="patch_8">
    <path d="M 63.125 670.1 
L 63.125 388.2 
" style="fill:none;stroke:#ffffff;stroke-linecap:square;stroke-linejoin:miter;"/>
   </g>
   <g id="patch_9">
    <path d="M 709.2 670.1 
L 709.2 388.2 
" style="fill:none;stroke:#ffffff;stroke-linecap:square;stroke-linejoin:miter;"/>
   </g>
   <g id="patch_10">
    <path d="M 63.125 670.1 
L 709.2 670.1 
" style="fill:none;stroke:#ffffff;stroke-linecap:square;stroke-linejoin:miter;"/>
   </g>
   <g id="patch_11">
    <path d="M 63.125 388.2 
L 709.2 388.2 
" style="fill:none;stroke:#ffffff;stroke-linecap:square;stroke-linejoin:miter;"/>
   </g>
   <g id="text_29">
    <!-- p = 5.73e-03 -->
    <defs>
     <path d="M 50.59375 61.671875 
Q 45.40625 53.765625 41.0625 46.453125 
Q 36.71875 39.15625 33.59375 31.75 
Q 30.46875 24.359375 28.734375 16.578125 
Q 27 8.796875 27 0 
L 17.828125 0 
Q 17.828125 8.25 19.78125 16.1875 
Q 21.734375 24.125 25.046875 31.765625 
Q 28.375 39.40625 32.765625 46.78125 
Q 37.15625 54.15625 42.09375 61.328125 
L 5.125 61.328125 
L 5.125 68.796875 
L 50.59375 68.796875 
z
" id="LiberationSans-55"/>
     <path d="M 51.21875 19 
Q 51.21875 14.265625 49.671875 10.546875 
Q 48.140625 6.84375 45.1875 4.265625 
Q 42.234375 1.703125 37.859375 0.359375 
Q 33.5 -0.984375 27.875 -0.984375 
Q 21.484375 -0.984375 17.109375 0.609375 
Q 12.75 2.203125 9.90625 4.8125 
Q 7.078125 7.421875 5.65625 10.765625 
Q 4.25 14.109375 3.8125 17.671875 
L 12.890625 18.5 
Q 13.28125 15.765625 14.328125 13.515625 
Q 15.375 11.28125 17.1875 9.671875 
Q 19 8.0625 21.625 7.171875 
Q 24.265625 6.296875 27.875 6.296875 
Q 34.515625 6.296875 38.296875 9.5625 
Q 42.09375 12.84375 42.09375 19.28125 
Q 42.09375 23.09375 40.40625 25.40625 
Q 38.71875 27.734375 36.203125 29.03125 
Q 33.6875 30.328125 30.734375 30.765625 
Q 27.78125 31.203125 25.296875 31.203125 
L 20.3125 31.203125 
L 20.3125 38.8125 
L 25.09375 38.8125 
Q 27.59375 38.8125 30.265625 39.328125 
Q 32.953125 39.84375 35.171875 41.1875 
Q 37.40625 42.53125 38.84375 44.828125 
Q 40.28125 47.125 40.28125 50.6875 
Q 40.28125 56.203125 37.03125 59.390625 
Q 33.796875 62.59375 27.390625 62.59375 
Q 21.578125 62.59375 17.984375 59.609375 
Q 14.40625 56.640625 13.8125 51.21875 
L 4.984375 51.90625 
Q 5.515625 56.453125 7.46875 59.8125 
Q 9.421875 63.1875 12.421875 65.40625 
Q 15.4375 67.625 19.28125 68.71875 
Q 23.140625 69.828125 27.484375 69.828125 
Q 33.25 69.828125 37.390625 68.375 
Q 41.546875 66.9375 44.1875 64.46875 
Q 46.828125 62.015625 48.0625 58.6875 
Q 49.3125 55.375 49.3125 51.609375 
Q 49.3125 48.578125 48.484375 45.9375 
Q 47.65625 43.3125 45.890625 41.203125 
Q 44.140625 39.109375 41.421875 37.59375 
Q 38.71875 36.078125 34.90625 35.296875 
L 34.90625 35.109375 
Q 39.0625 34.671875 42.140625 33.21875 
Q 45.21875 31.78125 47.21875 29.625 
Q 49.21875 27.484375 50.21875 24.75 
Q 51.21875 22.015625 51.21875 19 
z
" id="LiberationSans-51"/>
    </defs>
    <g style="fill:#262626;" transform="translate(356.410754 604.329773)scale(0.1 -0.1)">
     <use xlink:href="#LiberationSans-112"/>
     <use x="55.615234" xlink:href="#LiberationSans-32"/>
     <use x="83.398438" xlink:href="#LiberationSans-61"/>
     <use x="141.796875" xlink:href="#LiberationSans-32"/>
     <use x="169.580078" xlink:href="#LiberationSans-53"/>
     <use x="225.195312" xlink:href="#LiberationSans-46"/>
     <use x="252.978516" xlink:href="#LiberationSans-55"/>
     <use x="308.59375" xlink:href="#LiberationSans-51"/>
     <use x="364.208984" xlink:href="#LiberationSans-101"/>
     <use x="419.824219" xlink:href="#LiberationSans-45"/>
     <use x="453.125" xlink:href="#LiberationSans-48"/>
     <use x="508.740234" xlink:href="#LiberationSans-51"/>
    </g>
   </g>
   <g id="text_30">
    <!-- Glasgow High School -->
    <defs>
     <path d="M 5.03125 34.71875 
Q 5.03125 42.78125 7.203125 49.265625 
Q 9.375 55.765625 13.6875 60.328125 
Q 18.015625 64.890625 24.40625 67.359375 
Q 30.8125 69.828125 39.265625 69.828125 
Q 45.609375 69.828125 50.390625 68.703125 
Q 55.171875 67.578125 58.6875 65.46875 
Q 62.203125 63.375 64.640625 60.375 
Q 67.09375 57.375 68.796875 53.609375 
L 59.90625 50.984375 
Q 58.640625 53.515625 56.859375 55.59375 
Q 55.078125 57.671875 52.53125 59.125 
Q 50 60.59375 46.65625 61.390625 
Q 43.3125 62.203125 39.015625 62.203125 
Q 32.765625 62.203125 28.140625 60.25 
Q 23.53125 58.296875 20.5 54.6875 
Q 17.484375 51.078125 15.984375 46 
Q 14.5 40.921875 14.5 34.71875 
Q 14.5 28.515625 16.109375 23.359375 
Q 17.71875 18.21875 20.890625 14.484375 
Q 24.078125 10.75 28.78125 8.671875 
Q 33.5 6.59375 39.703125 6.59375 
Q 43.75 6.59375 47.171875 7.265625 
Q 50.59375 7.953125 53.34375 9.046875 
Q 56.109375 10.15625 58.203125 11.5 
Q 60.296875 12.84375 61.71875 14.203125 
L 61.71875 26.609375 
L 41.15625 26.609375 
L 41.15625 34.421875 
L 70.3125 34.421875 
L 70.3125 10.6875 
Q 68.015625 8.34375 64.90625 6.21875 
Q 61.8125 4.109375 57.953125 2.484375 
Q 54.109375 0.875 49.515625 -0.046875 
Q 44.921875 -0.984375 39.703125 -0.984375 
Q 31 -0.984375 24.5 1.671875 
Q 18.015625 4.34375 13.6875 9.109375 
Q 9.375 13.875 7.203125 20.40625 
Q 5.03125 26.953125 5.03125 34.71875 
z
" id="LiberationSans-71"/>
     <path d="M 57.328125 0 
L 47.125 0 
L 38.671875 34.078125 
Q 38.28125 35.40625 37.859375 37.359375 
Q 37.453125 39.3125 37.0625 41.15625 
Q 36.578125 43.3125 36.140625 45.609375 
Q 35.6875 43.40625 35.203125 41.265625 
Q 34.8125 39.40625 34.34375 37.40625 
Q 33.890625 35.40625 33.5 33.890625 
L 24.8125 0 
L 14.65625 0 
L -0.140625 52.828125 
L 8.546875 52.828125 
L 17.484375 16.9375 
Q 17.828125 15.828125 18.15625 14.1875 
Q 18.5 12.546875 18.84375 10.984375 
Q 19.1875 9.1875 19.578125 7.28125 
Q 19.96875 9.125 20.40625 10.890625 
Q 20.796875 12.40625 21.1875 13.96875 
Q 21.578125 15.53125 21.875 16.546875 
L 31.453125 52.828125 
L 40.875 52.828125 
L 50.09375 16.546875 
Q 50.4375 15.28125 50.828125 13.671875 
Q 51.21875 12.0625 51.5625 10.640625 
Q 51.953125 8.984375 52.34375 7.28125 
Q 52.734375 9.125 53.125 10.890625 
Q 53.46875 12.40625 53.828125 14.03125 
Q 54.203125 15.671875 54.546875 16.9375 
L 63.875 52.828125 
L 72.46875 52.828125 
z
" id="LiberationSans-119"/>
    </defs>
    <g style="fill:#262626;" transform="translate(290.560937 382.2)scale(0.2 -0.2)">
     <use xlink:href="#LiberationSans-71"/>
     <use x="77.783203" xlink:href="#LiberationSans-108"/>
     <use x="100" xlink:href="#LiberationSans-97"/>
     <use x="155.615234" xlink:href="#LiberationSans-115"/>
     <use x="205.615234" xlink:href="#LiberationSans-103"/>
     <use x="261.230469" xlink:href="#LiberationSans-111"/>
     <use x="316.845703" xlink:href="#LiberationSans-119"/>
     <use x="389.0625" xlink:href="#LiberationSans-32"/>
     <use x="416.845703" xlink:href="#LiberationSans-72"/>
     <use x="489.0625" xlink:href="#LiberationSans-105"/>
     <use x="511.279297" xlink:href="#LiberationSans-103"/>
     <use x="566.894531" xlink:href="#LiberationSans-104"/>
     <use x="622.509766" xlink:href="#LiberationSans-32"/>
     <use x="650.292969" xlink:href="#LiberationSans-83"/>
     <use x="716.992188" xlink:href="#LiberationSans-99"/>
     <use x="766.992188" xlink:href="#LiberationSans-104"/>
     <use x="822.607422" xlink:href="#LiberationSans-111"/>
     <use x="878.222656" xlink:href="#LiberationSans-111"/>
     <use x="933.837891" xlink:href="#LiberationSans-108"/>
    </g>
   </g>
  </g>
  <g id="axes_3">
   <g id="patch_12">
    <path d="M 63.125 1026.5 
L 709.2 1026.5 
L 709.2 744.6 
L 63.125 744.6 
z
" style="fill:#ffffff;"/>
   </g>
   <g id="matplotlib.axis_5">
    <g id="xtick_11">
     <g id="line2d_49">
      <path clip-path="url(#p6a15959e0b)" d="M 92.49202 1026.5 
L 92.49202 744.6 
" style="fill:none;stroke:#ffffff;"/>
     </g>
     <g id="line2d_50"/>
     <g id="text_31">
      <!-- 0 -->
      <g style="fill:#555555;" transform="translate(89.711552 1040.746875)scale(0.1 -0.1)">
       <use xlink:href="#LiberationSans-48"/>
      </g>
     </g>
    </g>
    <g id="xtick_12">
     <g id="line2d_51">
      <path clip-path="url(#p6a15959e0b)" d="M 217.458177 1026.5 
L 217.458177 744.6 
" style="fill:none;stroke:#ffffff;"/>
     </g>
     <g id="line2d_52"/>
     <g id="text_32">
      <!-- 10 -->
      <g style="fill:#555555;" transform="translate(211.897239 1040.746875)scale(0.1 -0.1)">
       <use xlink:href="#LiberationSans-49"/>
       <use x="55.615234" xlink:href="#LiberationSans-48"/>
      </g>
     </g>
    </g>
    <g id="xtick_13">
     <g id="line2d_53">
      <path clip-path="url(#p6a15959e0b)" d="M 342.424333 1026.5 
L 342.424333 744.6 
" style="fill:none;stroke:#ffffff;"/>
     </g>
     <g id="line2d_54"/>
     <g id="text_33">
      <!-- 20 -->
      <g style="fill:#555555;" transform="translate(336.863395 1040.746875)scale(0.1 -0.1)">
       <use xlink:href="#LiberationSans-50"/>
       <use x="55.615234" xlink:href="#LiberationSans-48"/>
      </g>
     </g>
    </g>
    <g id="xtick_14">
     <g id="line2d_55">
      <path clip-path="url(#p6a15959e0b)" d="M 467.390489 1026.5 
L 467.390489 744.6 
" style="fill:none;stroke:#ffffff;"/>
     </g>
     <g id="line2d_56"/>
     <g id="text_34">
      <!-- 30 -->
      <g style="fill:#555555;" transform="translate(461.829552 1040.746875)scale(0.1 -0.1)">
       <use xlink:href="#LiberationSans-51"/>
       <use x="55.615234" xlink:href="#LiberationSans-48"/>
      </g>
     </g>
    </g>
    <g id="xtick_15">
     <g id="line2d_57">
      <path clip-path="url(#p6a15959e0b)" d="M 592.356645 1026.5 
L 592.356645 744.6 
" style="fill:none;stroke:#ffffff;"/>
     </g>
     <g id="line2d_58"/>
     <g id="text_35">
      <!-- 40 -->
      <g style="fill:#555555;" transform="translate(586.795708 1040.746875)scale(0.1 -0.1)">
       <use xlink:href="#LiberationSans-52"/>
       <use x="55.615234" xlink:href="#LiberationSans-48"/>
      </g>
     </g>
    </g>
    <g id="text_36">
     <!-- $\chi^2$ statistic -->
     <g style="fill:#555555;" transform="translate(348.3225 1061.381875)scale(0.16 -0.16)">
      <use transform="translate(0 0.765625)" xlink:href="#DejaVuSans-Oblique-967"/>
      <use transform="translate(63.652396 39.046875)scale(0.7)" xlink:href="#DejaVuSans-50"/>
      <use transform="translate(110.922904 0.765625)" xlink:href="#LiberationSans-32"/>
      <use transform="translate(138.706107 0.765625)" xlink:href="#LiberationSans-115"/>
      <use transform="translate(188.706107 0.765625)" xlink:href="#LiberationSans-116"/>
      <use transform="translate(216.48931 0.765625)" xlink:href="#LiberationSans-97"/>
      <use transform="translate(272.104544 0.765625)" xlink:href="#LiberationSans-116"/>
      <use transform="translate(299.887747 0.765625)" xlink:href="#LiberationSans-105"/>
      <use transform="translate(322.104544 0.765625)" xlink:href="#LiberationSans-115"/>
      <use transform="translate(372.104544 0.765625)" xlink:href="#LiberationSans-116"/>
      <use transform="translate(399.887747 0.765625)" xlink:href="#LiberationSans-105"/>
      <use transform="translate(422.104544 0.765625)" xlink:href="#LiberationSans-99"/>
     </g>
    </g>
   </g>
   <g id="matplotlib.axis_6">
    <g id="ytick_13">
     <g id="line2d_59">
      <path clip-path="url(#p6a15959e0b)" d="M 63.125 1013.686364 
L 709.2 1013.686364 
" style="fill:none;stroke:#ffffff;"/>
     </g>
     <g id="line2d_60"/>
     <g id="text_37">
      <!-- 0.0 -->
      <g style="fill:#555555;" transform="translate(42.225 1017.309801)scale(0.1 -0.1)">
       <use xlink:href="#LiberationSans-48"/>
       <use x="55.615234" xlink:href="#LiberationSans-46"/>
       <use x="83.398438" xlink:href="#LiberationSans-48"/>
      </g>
     </g>
    </g>
    <g id="ytick_14">
     <g id="line2d_61">
      <path clip-path="url(#p6a15959e0b)" d="M 63.125 962.431767 
L 709.2 962.431767 
" style="fill:none;stroke:#ffffff;"/>
     </g>
     <g id="line2d_62"/>
     <g id="text_38">
      <!-- 0.1 -->
      <g style="fill:#555555;" transform="translate(42.225 966.055204)scale(0.1 -0.1)">
       <use xlink:href="#LiberationSans-48"/>
       <use x="55.615234" xlink:href="#LiberationSans-46"/>
       <use x="83.398438" xlink:href="#LiberationSans-49"/>
      </g>
     </g>
    </g>
    <g id="ytick_15">
     <g id="line2d_63">
      <path clip-path="url(#p6a15959e0b)" d="M 63.125 911.17717 
L 709.2 911.17717 
" style="fill:none;stroke:#ffffff;"/>
     </g>
     <g id="line2d_64"/>
     <g id="text_39">
      <!-- 0.2 -->
      <g style="fill:#555555;" transform="translate(42.225 914.800608)scale(0.1 -0.1)">
       <use xlink:href="#LiberationSans-48"/>
       <use x="55.615234" xlink:href="#LiberationSans-46"/>
       <use x="83.398438" xlink:href="#LiberationSans-50"/>
      </g>
     </g>
    </g>
    <g id="ytick_16">
     <g id="line2d_65">
      <path clip-path="url(#p6a15959e0b)" d="M 63.125 859.922574 
L 709.2 859.922574 
" style="fill:none;stroke:#ffffff;"/>
     </g>
     <g id="line2d_66"/>
     <g id="text_40">
      <!-- 0.3 -->
      <g style="fill:#555555;" transform="translate(42.225 863.546011)scale(0.1 -0.1)">
       <use xlink:href="#LiberationSans-48"/>
       <use x="55.615234" xlink:href="#LiberationSans-46"/>
       <use x="83.398438" xlink:href="#LiberationSans-51"/>
      </g>
     </g>
    </g>
    <g id="ytick_17">
     <g id="line2d_67">
      <path clip-path="url(#p6a15959e0b)" d="M 63.125 808.667977 
L 709.2 808.667977 
" style="fill:none;stroke:#ffffff;"/>
     </g>
     <g id="line2d_68"/>
     <g id="text_41">
      <!-- 0.4 -->
      <g style="fill:#555555;" transform="translate(42.225 812.291414)scale(0.1 -0.1)">
       <use xlink:href="#LiberationSans-48"/>
       <use x="55.615234" xlink:href="#LiberationSans-46"/>
       <use x="83.398438" xlink:href="#LiberationSans-52"/>
      </g>
     </g>
    </g>
    <g id="ytick_18">
     <g id="line2d_69">
      <path clip-path="url(#p6a15959e0b)" d="M 63.125 757.41338 
L 709.2 757.41338 
" style="fill:none;stroke:#ffffff;"/>
     </g>
     <g id="line2d_70"/>
     <g id="text_42">
      <!-- 0.5 -->
      <g style="fill:#555555;" transform="translate(42.225 761.036818)scale(0.1 -0.1)">
       <use xlink:href="#LiberationSans-48"/>
       <use x="55.615234" xlink:href="#LiberationSans-46"/>
       <use x="83.398438" xlink:href="#LiberationSans-53"/>
      </g>
     </g>
    </g>
    <g id="text_43">
     <!-- $\chi^2$ pdf -->
     <g style="fill:#555555;" transform="translate(34.865 907.79)rotate(-90)scale(0.16 -0.16)">
      <use transform="translate(0 0.765625)" xlink:href="#DejaVuSans-Oblique-967"/>
      <use transform="translate(63.652396 39.046875)scale(0.7)" xlink:href="#DejaVuSans-50"/>
      <use transform="translate(110.922904 0.765625)" xlink:href="#LiberationSans-32"/>
      <use transform="translate(138.706107 0.765625)" xlink:href="#LiberationSans-112"/>
      <use transform="translate(194.321341 0.765625)" xlink:href="#LiberationSans-100"/>
      <use transform="translate(249.936576 0.765625)" xlink:href="#LiberationSans-102"/>
     </g>
    </g>
   </g>
   <g id="PolyCollection_3">
    <defs>
     <path d="M 656.995529 -66.313636 
L 656.995529 -66.313636 
L 657.226211 -66.313636 
L 657.456892 -66.313636 
L 657.687573 -66.313636 
L 657.918254 -66.313636 
L 658.148935 -66.313636 
L 658.379616 -66.313636 
L 658.610297 -66.313636 
L 658.840978 -66.313636 
L 659.071659 -66.313636 
L 659.30234 -66.313636 
L 659.533021 -66.313636 
L 659.763702 -66.313636 
L 659.994383 -66.313636 
L 660.225064 -66.313636 
L 660.455745 -66.313636 
L 660.686426 -66.313636 
L 660.917108 -66.313636 
L 661.147789 -66.313636 
L 661.37847 -66.313636 
L 661.609151 -66.313636 
L 661.839832 -66.313636 
L 662.070513 -66.313636 
L 662.301194 -66.313636 
L 662.531875 -66.313636 
L 662.762556 -66.313636 
L 662.993237 -66.313636 
L 663.223918 -66.313636 
L 663.454599 -66.313636 
L 663.68528 -66.313636 
L 663.915961 -66.313636 
L 664.146642 -66.313636 
L 664.377323 -66.313636 
L 664.608004 -66.313636 
L 664.838686 -66.313636 
L 665.069367 -66.313636 
L 665.300048 -66.313636 
L 665.530729 -66.313636 
L 665.76141 -66.313636 
L 665.992091 -66.313636 
L 666.222772 -66.313636 
L 666.453453 -66.313636 
L 666.684134 -66.313636 
L 666.914815 -66.313636 
L 667.145496 -66.313636 
L 667.376177 -66.313636 
L 667.606858 -66.313636 
L 667.837539 -66.313636 
L 668.06822 -66.313636 
L 668.298901 -66.313636 
L 668.529583 -66.313636 
L 668.760264 -66.313636 
L 668.990945 -66.313636 
L 669.221626 -66.313636 
L 669.452307 -66.313636 
L 669.682988 -66.313636 
L 669.913669 -66.313636 
L 670.14435 -66.313636 
L 670.375031 -66.313636 
L 670.605712 -66.313636 
L 670.836393 -66.313636 
L 671.067074 -66.313636 
L 671.297755 -66.313636 
L 671.528436 -66.313636 
L 671.759117 -66.313636 
L 671.989798 -66.313636 
L 672.22048 -66.313636 
L 672.451161 -66.313636 
L 672.681842 -66.313636 
L 672.912523 -66.313636 
L 673.143204 -66.313636 
L 673.373885 -66.313636 
L 673.604566 -66.313636 
L 673.835247 -66.313636 
L 674.065928 -66.313636 
L 674.296609 -66.313636 
L 674.52729 -66.313636 
L 674.757971 -66.313636 
L 674.988652 -66.313636 
L 675.219333 -66.313636 
L 675.450014 -66.313636 
L 675.680695 -66.313636 
L 675.911377 -66.313636 
L 676.142058 -66.313636 
L 676.372739 -66.313636 
L 676.60342 -66.313636 
L 676.834101 -66.313636 
L 677.064782 -66.313636 
L 677.295463 -66.313636 
L 677.526144 -66.313636 
L 677.756825 -66.313636 
L 677.987506 -66.313636 
L 678.218187 -66.313636 
L 678.448868 -66.313636 
L 678.679549 -66.313636 
L 678.91023 -66.313636 
L 679.140911 -66.313636 
L 679.371592 -66.313636 
L 679.602273 -66.313636 
L 679.832955 -66.313636 
L 679.832955 -66.313636 
L 679.832955 -66.313636 
L 679.602273 -66.313636 
L 679.371592 -66.313636 
L 679.140911 -66.313636 
L 678.91023 -66.313636 
L 678.679549 -66.313636 
L 678.448868 -66.313636 
L 678.218187 -66.313636 
L 677.987506 -66.313636 
L 677.756825 -66.313636 
L 677.526144 -66.313636 
L 677.295463 -66.313636 
L 677.064782 -66.313636 
L 676.834101 -66.313636 
L 676.60342 -66.313636 
L 676.372739 -66.313636 
L 676.142058 -66.313636 
L 675.911377 -66.313636 
L 675.680695 -66.313636 
L 675.450014 -66.313636 
L 675.219333 -66.313636 
L 674.988652 -66.313636 
L 674.757971 -66.313636 
L 674.52729 -66.313636 
L 674.296609 -66.313636 
L 674.065928 -66.313636 
L 673.835247 -66.313636 
L 673.604566 -66.313636 
L 673.373885 -66.313636 
L 673.143204 -66.313636 
L 672.912523 -66.313636 
L 672.681842 -66.313636 
L 672.451161 -66.313636 
L 672.22048 -66.313636 
L 671.989798 -66.313636 
L 671.759117 -66.313636 
L 671.528436 -66.313636 
L 671.297755 -66.313636 
L 671.067074 -66.313636 
L 670.836393 -66.313636 
L 670.605712 -66.313636 
L 670.375031 -66.313636 
L 670.14435 -66.313636 
L 669.913669 -66.313636 
L 669.682988 -66.313636 
L 669.452307 -66.313636 
L 669.221626 -66.313636 
L 668.990945 -66.313636 
L 668.760264 -66.313636 
L 668.529583 -66.313636 
L 668.298901 -66.313636 
L 668.06822 -66.313636 
L 667.837539 -66.313636 
L 667.606858 -66.313636 
L 667.376177 -66.313636 
L 667.145496 -66.313636 
L 666.914815 -66.313636 
L 666.684134 -66.313636 
L 666.453453 -66.313636 
L 666.222772 -66.313636 
L 665.992091 -66.313636 
L 665.76141 -66.313636 
L 665.530729 -66.313636 
L 665.300048 -66.313636 
L 665.069367 -66.313636 
L 664.838686 -66.313636 
L 664.608004 -66.313636 
L 664.377323 -66.313636 
L 664.146642 -66.313636 
L 663.915961 -66.313636 
L 663.68528 -66.313636 
L 663.454599 -66.313636 
L 663.223918 -66.313636 
L 662.993237 -66.313636 
L 662.762556 -66.313636 
L 662.531875 -66.313636 
L 662.301194 -66.313636 
L 662.070513 -66.313636 
L 661.839832 -66.313636 
L 661.609151 -66.313636 
L 661.37847 -66.313636 
L 661.147789 -66.313636 
L 660.917108 -66.313636 
L 660.686426 -66.313636 
L 660.455745 -66.313636 
L 660.225064 -66.313636 
L 659.994383 -66.313636 
L 659.763702 -66.313636 
L 659.533021 -66.313636 
L 659.30234 -66.313636 
L 659.071659 -66.313636 
L 658.840978 -66.313636 
L 658.610297 -66.313636 
L 658.379616 -66.313636 
L 658.148935 -66.313636 
L 657.918254 -66.313636 
L 657.687573 -66.313636 
L 657.456892 -66.313636 
L 657.226211 -66.313636 
L 656.995529 -66.313636 
z
" id="ma62a209e14" style="stroke:#ff0000;stroke-width:0.5;"/>
    </defs>
    <g clip-path="url(#p6a15959e0b)">
     <use style="fill:#ff0000;stroke:#ff0000;stroke-width:0.5;" x="0" xlink:href="#ma62a209e14" y="1080"/>
    </g>
   </g>
   <g id="line2d_71">
    <path clip-path="url(#p6a15959e0b)" d="M 92.492045 757.413636 
L 100.13512 824.933903 
L 107.778195 874.664581 
L 115.42127 911.292699 
L 123.064345 938.270394 
L 130.70742 958.140267 
L 138.350495 972.775016 
L 146.581499 984.254492 
L 155.400431 993.005159 
L 164.807293 999.491943 
L 175.390012 1004.391838 
L 188.324446 1008.146843 
L 205.374382 1010.886065 
L 230.067394 1012.643742 
L 275.337914 1013.515958 
L 448.776921 1013.686199 
L 679.832955 1013.686364 
L 679.832955 1013.686364 
" style="fill:none;stroke:#0000ff;"/>
   </g>
   <g id="line2d_72">
    <path clip-path="url(#p6a15959e0b)" d="M 656.995529 1026.5 
L 656.995529 998.309972 
" style="fill:none;stroke:#ff0000;"/>
   </g>
   <g id="patch_13">
    <path d="M 63.125 1026.5 
L 63.125 744.6 
" style="fill:none;stroke:#ffffff;stroke-linecap:square;stroke-linejoin:miter;"/>
   </g>
   <g id="patch_14">
    <path d="M 709.2 1026.5 
L 709.2 744.6 
" style="fill:none;stroke:#ffffff;stroke-linecap:square;stroke-linejoin:miter;"/>
   </g>
   <g id="patch_15">
    <path d="M 63.125 1026.5 
L 709.2 1026.5 
" style="fill:none;stroke:#ffffff;stroke-linecap:square;stroke-linejoin:miter;"/>
   </g>
   <g id="patch_16">
    <path d="M 63.125 744.6 
L 709.2 744.6 
" style="fill:none;stroke:#ffffff;stroke-linecap:square;stroke-linejoin:miter;"/>
   </g>
   <g id="text_44">
    <!-- p = 1.55e-10 -->
    <g style="fill:#262626;" transform="translate(600.564279 988.059065)scale(0.1 -0.1)">
     <use xlink:href="#LiberationSans-112"/>
     <use x="55.615234" xlink:href="#LiberationSans-32"/>
     <use x="83.398438" xlink:href="#LiberationSans-61"/>
     <use x="141.796875" xlink:href="#LiberationSans-32"/>
     <use x="169.580078" xlink:href="#LiberationSans-49"/>
     <use x="225.195312" xlink:href="#LiberationSans-46"/>
     <use x="252.978516" xlink:href="#LiberationSans-53"/>
     <use x="308.59375" xlink:href="#LiberationSans-53"/>
     <use x="364.208984" xlink:href="#LiberationSans-101"/>
     <use x="419.824219" xlink:href="#LiberationSans-45"/>
     <use x="453.125" xlink:href="#LiberationSans-49"/>
     <use x="508.740234" xlink:href="#LiberationSans-48"/>
    </g>
   </g>
   <g id="text_45">
    <!-- Newark High School -->
    <defs>
     <path d="M 52.828125 0 
L 16.015625 58.59375 
Q 16.109375 56.203125 16.265625 53.859375 
Q 16.359375 51.859375 16.421875 49.625 
Q 16.5 47.40625 16.5 45.703125 
L 16.5 0 
L 8.203125 0 
L 8.203125 68.796875 
L 19.046875 68.796875 
L 56.25 9.8125 
Q 56.109375 12.203125 55.953125 14.59375 
Q 55.859375 16.65625 55.765625 19.0625 
Q 55.671875 21.484375 55.671875 23.6875 
L 55.671875 68.796875 
L 64.0625 68.796875 
L 64.0625 0 
z
" id="LiberationSans-78"/>
     <path d="M 39.84375 0 
L 21.96875 24.125 
L 15.53125 18.796875 
L 15.53125 0 
L 6.734375 0 
L 6.734375 72.46875 
L 15.53125 72.46875 
L 15.53125 27.203125 
L 38.71875 52.828125 
L 49.03125 52.828125 
L 27.59375 30.125 
L 50.140625 0 
z
" id="LiberationSans-107"/>
    </defs>
    <g style="fill:#262626;" transform="translate(295.570312 738.6)scale(0.2 -0.2)">
     <use xlink:href="#LiberationSans-78"/>
     <use x="72.216797" xlink:href="#LiberationSans-101"/>
     <use x="127.832031" xlink:href="#LiberationSans-119"/>
     <use x="200.048828" xlink:href="#LiberationSans-97"/>
     <use x="255.664062" xlink:href="#LiberationSans-114"/>
     <use x="288.964844" xlink:href="#LiberationSans-107"/>
     <use x="338.964844" xlink:href="#LiberationSans-32"/>
     <use x="366.748047" xlink:href="#LiberationSans-72"/>
     <use x="438.964844" xlink:href="#LiberationSans-105"/>
     <use x="461.181641" xlink:href="#LiberationSans-103"/>
     <use x="516.796875" xlink:href="#LiberationSans-104"/>
     <use x="572.412109" xlink:href="#LiberationSans-32"/>
     <use x="600.195312" xlink:href="#LiberationSans-83"/>
     <use x="666.894531" xlink:href="#LiberationSans-99"/>
     <use x="716.894531" xlink:href="#LiberationSans-104"/>
     <use x="772.509766" xlink:href="#LiberationSans-111"/>
     <use x="828.125" xlink:href="#LiberationSans-111"/>
     <use x="883.740234" xlink:href="#LiberationSans-108"/>
    </g>
   </g>
  </g>
  <g id="text_46">
   <!-- $\chi^2$ Distributions -->
   <defs>
    <path d="M 67.4375 35.109375 
Q 67.4375 26.515625 64.84375 19.9375 
Q 62.25 13.375 57.75 8.953125 
Q 53.265625 4.546875 47.140625 2.265625 
Q 41.015625 0 33.9375 0 
L 8.203125 0 
L 8.203125 68.796875 
L 30.953125 68.796875 
Q 38.921875 68.796875 45.625 66.8125 
Q 52.34375 64.84375 57.171875 60.71875 
Q 62.015625 56.59375 64.71875 50.234375 
Q 67.4375 43.890625 67.4375 35.109375 
z
M 58.0625 35.109375 
Q 58.0625 42.09375 56.046875 47.046875 
Q 54.046875 52 50.4375 55.171875 
Q 46.828125 58.34375 41.796875 59.828125 
Q 36.765625 61.328125 30.765625 61.328125 
L 17.53125 61.328125 
L 17.53125 7.46875 
L 32.859375 7.46875 
Q 38.28125 7.46875 42.890625 9.21875 
Q 47.515625 10.984375 50.875 14.453125 
Q 54.25 17.921875 56.15625 23.09375 
Q 58.0625 28.265625 58.0625 35.109375 
z
" id="LiberationSans-68"/>
    <path d="M 51.421875 26.65625 
Q 51.421875 -0.984375 31.984375 -0.984375 
Q 25.984375 -0.984375 22 1.1875 
Q 18.015625 3.375 15.53125 8.203125 
L 15.4375 8.203125 
Q 15.4375 6.9375 15.359375 5.5625 
Q 15.28125 4.203125 15.203125 3.03125 
Q 15.140625 1.859375 15.0625 1.03125 
Q 14.984375 0.203125 14.9375 0 
L 6.453125 0 
Q 6.5 0.4375 6.546875 1.484375 
Q 6.59375 2.546875 6.640625 4 
Q 6.6875 5.46875 6.703125 7.21875 
Q 6.734375 8.984375 6.734375 10.890625 
L 6.734375 72.46875 
L 15.53125 72.46875 
L 15.53125 51.8125 
Q 15.53125 50.34375 15.5 49 
Q 15.484375 47.65625 15.4375 46.625 
Q 15.375 45.40625 15.328125 44.34375 
L 15.53125 44.34375 
Q 17.96875 49.421875 22 51.609375 
Q 26.03125 53.8125 31.984375 53.8125 
Q 42 53.8125 46.703125 47.0625 
Q 51.421875 40.328125 51.421875 26.65625 
z
M 42.1875 26.375 
Q 42.1875 31.84375 41.5 35.75 
Q 40.828125 39.65625 39.3125 42.15625 
Q 37.796875 44.671875 35.453125 45.84375 
Q 33.109375 47.015625 29.734375 47.015625 
Q 26.265625 47.015625 23.609375 45.890625 
Q 20.953125 44.78125 19.171875 42.28125 
Q 17.390625 39.796875 16.453125 35.734375 
Q 15.53125 31.6875 15.53125 25.828125 
Q 15.53125 20.171875 16.453125 16.3125 
Q 17.390625 12.453125 19.171875 10.03125 
Q 20.953125 7.625 23.578125 6.5625 
Q 26.21875 5.515625 29.640625 5.515625 
Q 32.859375 5.515625 35.203125 6.640625 
Q 37.546875 7.765625 39.109375 10.25 
Q 40.671875 12.75 41.421875 16.71875 
Q 42.1875 20.703125 42.1875 26.375 
z
" id="LiberationSans-98"/>
    <path d="M 15.328125 52.828125 
L 15.328125 19.34375 
Q 15.328125 15.484375 15.890625 12.890625 
Q 16.453125 10.296875 17.71875 8.703125 
Q 19 7.125 21.0625 6.46875 
Q 23.140625 5.8125 26.21875 5.8125 
Q 29.34375 5.8125 31.859375 6.90625 
Q 34.375 8.015625 36.15625 10.078125 
Q 37.9375 12.15625 38.90625 15.203125 
Q 39.890625 18.265625 39.890625 22.21875 
L 39.890625 52.828125 
L 48.6875 52.828125 
L 48.6875 11.28125 
Q 48.6875 9.625 48.703125 7.78125 
Q 48.734375 5.953125 48.78125 4.3125 
Q 48.828125 2.6875 48.875 1.515625 
Q 48.921875 0.34375 48.96875 0 
L 40.671875 0 
Q 40.625 0.25 40.578125 1.3125 
Q 40.53125 2.390625 40.453125 3.78125 
Q 40.375 5.171875 40.328125 6.609375 
Q 40.28125 8.0625 40.28125 9.03125 
L 40.140625 9.03125 
Q 38.875 6.734375 37.359375 4.875 
Q 35.84375 3.03125 33.84375 1.734375 
Q 31.84375 0.4375 29.25 -0.265625 
Q 26.65625 -0.984375 23.25 -0.984375 
Q 18.84375 -0.984375 15.671875 0.09375 
Q 12.5 1.171875 10.453125 3.421875 
Q 8.40625 5.671875 7.453125 9.1875 
Q 6.5 12.703125 6.5 17.625 
L 6.5 52.828125 
z
" id="LiberationSans-117"/>
   </defs>
   <g style="fill:#262626;" transform="translate(285.14 -28.52)scale(0.28 -0.28)">
    <use transform="translate(0 0.765625)" xlink:href="#DejaVuSans-Oblique-967"/>
    <use transform="translate(63.652396 39.046875)scale(0.7)" xlink:href="#DejaVuSans-50"/>
    <use transform="translate(110.922904 0.765625)" xlink:href="#LiberationSans-32"/>
    <use transform="translate(138.706107 0.765625)" xlink:href="#LiberationSans-68"/>
    <use transform="translate(210.922904 0.765625)" xlink:href="#LiberationSans-105"/>
    <use transform="translate(233.139701 0.765625)" xlink:href="#LiberationSans-115"/>
    <use transform="translate(283.139701 0.765625)" xlink:href="#LiberationSans-116"/>
    <use transform="translate(310.922904 0.765625)" xlink:href="#LiberationSans-114"/>
    <use transform="translate(344.223685 0.765625)" xlink:href="#LiberationSans-105"/>
    <use transform="translate(366.440482 0.765625)" xlink:href="#LiberationSans-98"/>
    <use transform="translate(422.055716 0.765625)" xlink:href="#LiberationSans-117"/>
    <use transform="translate(477.670951 0.765625)" xlink:href="#LiberationSans-116"/>
    <use transform="translate(505.454154 0.765625)" xlink:href="#LiberationSans-105"/>
    <use transform="translate(527.670951 0.765625)" xlink:href="#LiberationSans-111"/>
    <use transform="translate(583.286185 0.765625)" xlink:href="#LiberationSans-110"/>
    <use transform="translate(638.901419 0.765625)" xlink:href="#LiberationSans-115"/>
   </g>
  </g>
 </g>
 <defs>
  <clipPath id="p0f295eb602">
   <rect height="281.9" width="646.075" x="63.125" y="31.8"/>
  </clipPath>
  <clipPath id="pefa37fe6fe">
   <rect height="281.9" width="646.075" x="63.125" y="388.2"/>
  </clipPath>
  <clipPath id="p6a15959e0b">
   <rect height="281.9" width="646.075" x="63.125" y="744.6"/>
  </clipPath>
 </defs>
</svg>
